%TF.GenerationSoftware,KiCad,Pcbnew,(6.0.7)*%
%TF.CreationDate,2022-08-03T23:00:46+02:00*%
%TF.ProjectId,SD_interrupter,53445f69-6e74-4657-9272-75707465722e,rev?*%
%TF.SameCoordinates,Original*%
%TF.FileFunction,Soldermask,Bot*%
%TF.FilePolarity,Negative*%
%FSLAX46Y46*%
G04 Gerber Fmt 4.6, Leading zero omitted, Abs format (unit mm)*
G04 Created by KiCad (PCBNEW (6.0.7)) date 2022-08-03 23:00:46*
%MOMM*%
%LPD*%
G01*
G04 APERTURE LIST*
G04 Aperture macros list*
%AMRoundRect*
0 Rectangle with rounded corners*
0 $1 Rounding radius*
0 $2 $3 $4 $5 $6 $7 $8 $9 X,Y pos of 4 corners*
0 Add a 4 corners polygon primitive as box body*
4,1,4,$2,$3,$4,$5,$6,$7,$8,$9,$2,$3,0*
0 Add four circle primitives for the rounded corners*
1,1,$1+$1,$2,$3*
1,1,$1+$1,$4,$5*
1,1,$1+$1,$6,$7*
1,1,$1+$1,$8,$9*
0 Add four rect primitives between the rounded corners*
20,1,$1+$1,$2,$3,$4,$5,0*
20,1,$1+$1,$4,$5,$6,$7,0*
20,1,$1+$1,$6,$7,$8,$9,0*
20,1,$1+$1,$8,$9,$2,$3,0*%
G04 Aperture macros list end*
%ADD10C,1.400000*%
%ADD11O,1.400000X1.400000*%
%ADD12C,1.270000*%
%ADD13C,2.205000*%
%ADD14R,1.600000X1.600000*%
%ADD15O,1.600000X1.600000*%
%ADD16C,2.500000*%
%ADD17C,2.000000*%
%ADD18C,3.200000*%
%ADD19C,1.600000*%
%ADD20R,1.208000X1.208000*%
%ADD21R,1.700000X1.700000*%
%ADD22O,1.700000X1.700000*%
%ADD23R,3.500000X3.500000*%
%ADD24RoundRect,0.750000X0.750000X1.000000X-0.750000X1.000000X-0.750000X-1.000000X0.750000X-1.000000X0*%
%ADD25RoundRect,0.875000X0.875000X0.875000X-0.875000X0.875000X-0.875000X-0.875000X0.875000X-0.875000X0*%
%ADD26O,2.200000X3.500000*%
%ADD27R,1.500000X2.500000*%
%ADD28O,1.500000X2.500000*%
%ADD29C,1.500000*%
%ADD30C,3.000000*%
%ADD31R,1.800000X2.600000*%
%ADD32O,1.800000X2.600000*%
%ADD33O,3.500000X2.200000*%
%ADD34R,2.500000X1.500000*%
%ADD35O,2.500000X1.500000*%
%ADD36R,1.905000X2.000000*%
%ADD37O,1.905000X2.000000*%
G04 APERTURE END LIST*
D10*
%TO.C,R6*%
X81788000Y-102870000D03*
D11*
X74168000Y-102870000D03*
%TD*%
D12*
%TO.C,BT1*%
X37617000Y-70020000D03*
D13*
X31247000Y-108585000D03*
X31247000Y-70615000D03*
%TD*%
D14*
%TO.C,U2*%
X82032000Y-72644000D03*
D15*
X82032000Y-70104000D03*
X82032000Y-67564000D03*
X82032000Y-65024000D03*
X82032000Y-62484000D03*
X82032000Y-59944000D03*
X82032000Y-57404000D03*
X82032000Y-54864000D03*
X74412000Y-54864000D03*
X74412000Y-57404000D03*
X74412000Y-59944000D03*
X74412000Y-62484000D03*
X74412000Y-65024000D03*
X74412000Y-67564000D03*
X74412000Y-70104000D03*
X74412000Y-72644000D03*
%TD*%
D16*
%TO.C,J3*%
X101480000Y-98600000D03*
X93980000Y-98600000D03*
X86480000Y-98600000D03*
X98980000Y-96100000D03*
X88980000Y-96100000D03*
X88980000Y-108600000D03*
X98980000Y-108600000D03*
%TD*%
D17*
%TO.C,SW3*%
X63500000Y-74585000D03*
X70000000Y-74585000D03*
X70000000Y-79085000D03*
X63500000Y-79085000D03*
%TD*%
D10*
%TO.C,R3*%
X62940000Y-95885000D03*
D11*
X70560000Y-95885000D03*
%TD*%
D18*
%TO.C,U6*%
X94617625Y-34310000D03*
D19*
X92117625Y-26710000D03*
X97117625Y-26710000D03*
D20*
X95817625Y-29210000D03*
X93217625Y-29210000D03*
%TD*%
D21*
%TO.C,J5*%
X25654000Y-66040000D03*
D22*
X25654000Y-63500000D03*
%TD*%
D14*
%TO.C,D1*%
X74168000Y-99319200D03*
D15*
X81788000Y-99319200D03*
%TD*%
D12*
%TO.C,BT2*%
X43795000Y-109180000D03*
D13*
X50165000Y-70615000D03*
X50165000Y-108585000D03*
%TD*%
D10*
%TO.C,R10*%
X79756000Y-34544000D03*
D11*
X87376000Y-34544000D03*
%TD*%
D19*
%TO.C,C4*%
X71120000Y-35560000D03*
X76120000Y-35560000D03*
%TD*%
%TO.C,C10*%
X75478000Y-77216000D03*
X80478000Y-77216000D03*
%TD*%
D10*
%TO.C,R8*%
X79756000Y-36830000D03*
D11*
X87376000Y-36830000D03*
%TD*%
D23*
%TO.C,J4*%
X90678000Y-86868000D03*
D24*
X96678000Y-86868000D03*
D25*
X93678000Y-82168000D03*
%TD*%
D10*
%TO.C,R1*%
X62940000Y-83185000D03*
D11*
X70560000Y-83185000D03*
%TD*%
D21*
%TO.C,J2*%
X102890000Y-40655000D03*
D22*
X100350000Y-40655000D03*
X102890000Y-43195000D03*
X100350000Y-43195000D03*
X102890000Y-45735000D03*
X100350000Y-45735000D03*
%TD*%
D26*
%TO.C,SW1*%
X86060000Y-27940000D03*
X73960000Y-27940000D03*
D27*
X77010000Y-27940000D03*
D28*
X80010000Y-27940000D03*
X83010000Y-27940000D03*
%TD*%
D29*
%TO.C,Y1*%
X60920000Y-35560000D03*
X65800000Y-35560000D03*
%TD*%
D10*
%TO.C,R2*%
X62940000Y-108585000D03*
D11*
X70560000Y-108585000D03*
%TD*%
D14*
%TO.C,U4*%
X80000000Y-39380000D03*
D15*
X77460000Y-39380000D03*
X74920000Y-39380000D03*
X72380000Y-39380000D03*
X69840000Y-39380000D03*
X67300000Y-39380000D03*
X64760000Y-39380000D03*
X62220000Y-39380000D03*
X59680000Y-39380000D03*
X57140000Y-39380000D03*
X54600000Y-39380000D03*
X52060000Y-39380000D03*
X49520000Y-39380000D03*
X46980000Y-39380000D03*
X46980000Y-47000000D03*
X49520000Y-47000000D03*
X52060000Y-47000000D03*
X54600000Y-47000000D03*
X57140000Y-47000000D03*
X59680000Y-47000000D03*
X62220000Y-47000000D03*
X64760000Y-47000000D03*
X67300000Y-47000000D03*
X69840000Y-47000000D03*
X72380000Y-47000000D03*
X74920000Y-47000000D03*
X77460000Y-47000000D03*
X80000000Y-47000000D03*
%TD*%
D19*
%TO.C,C2*%
X59730000Y-50800000D03*
X64730000Y-50800000D03*
%TD*%
%TO.C,C7*%
X59730000Y-55245000D03*
X64730000Y-55245000D03*
%TD*%
D10*
%TO.C,R4*%
X39624000Y-34925000D03*
D11*
X39624000Y-42545000D03*
%TD*%
D10*
%TO.C,R7*%
X74168000Y-95768400D03*
D11*
X81788000Y-95768400D03*
%TD*%
D17*
%TO.C,SW4*%
X70000000Y-99985000D03*
X63500000Y-99985000D03*
X63500000Y-104485000D03*
X70000000Y-104485000D03*
%TD*%
%TO.C,SW5*%
X63500000Y-87285000D03*
X70000000Y-87285000D03*
X63500000Y-91785000D03*
X70000000Y-91785000D03*
%TD*%
D10*
%TO.C,R5*%
X36576000Y-34925000D03*
D11*
X36576000Y-42545000D03*
%TD*%
D30*
%TO.C,DS1*%
X100995480Y-58940700D03*
X25996900Y-27940000D03*
X25996900Y-58940700D03*
X100996000Y-27940000D03*
D31*
X31496000Y-27940000D03*
D32*
X34036000Y-27940000D03*
X36576000Y-27940000D03*
X39116000Y-27940000D03*
X41656000Y-27940000D03*
X44196000Y-27940000D03*
X46736000Y-27940000D03*
X49276000Y-27940000D03*
X51816000Y-27940000D03*
X54356000Y-27940000D03*
X56896000Y-27940000D03*
X59436000Y-27940000D03*
X61976000Y-27940000D03*
X64516000Y-27940000D03*
X67056000Y-27940000D03*
X69596000Y-27940000D03*
%TD*%
D10*
%TO.C,R9*%
X74168000Y-81366800D03*
D11*
X81788000Y-81366800D03*
%TD*%
D19*
%TO.C,C5*%
X55800000Y-35560000D03*
X50800000Y-35560000D03*
%TD*%
D33*
%TO.C,SW2*%
X24765000Y-38146000D03*
X24765000Y-50246000D03*
D34*
X24765000Y-47196000D03*
D35*
X24765000Y-44196000D03*
X24765000Y-41196000D03*
%TD*%
D36*
%TO.C,U1*%
X64210000Y-68890000D03*
D37*
X66750000Y-68890000D03*
X69290000Y-68890000D03*
%TD*%
D19*
%TO.C,C3*%
X50506000Y-52832000D03*
X45506000Y-52832000D03*
%TD*%
%TO.C,C1*%
X37378000Y-52832000D03*
X42378000Y-52832000D03*
%TD*%
D14*
%TO.C,U5*%
X75453000Y-92367600D03*
D15*
X77993000Y-92367600D03*
X80533000Y-92367600D03*
X80533000Y-84747600D03*
X77993000Y-84747600D03*
X75453000Y-84747600D03*
%TD*%
M02*
