%TF.GenerationSoftware,KiCad,Pcbnew,(6.0.6)*%
%TF.CreationDate,2022-07-11T20:45:56+02:00*%
%TF.ProjectId,SD_interrupter,53445f69-6e74-4657-9272-75707465722e,rev?*%
%TF.SameCoordinates,Original*%
%TF.FileFunction,Legend,Top*%
%TF.FilePolarity,Positive*%
%FSLAX46Y46*%
G04 Gerber Fmt 4.6, Leading zero omitted, Abs format (unit mm)*
G04 Created by KiCad (PCBNEW (6.0.6)) date 2022-07-11 20:45:56*
%MOMM*%
%LPD*%
G01*
G04 APERTURE LIST*
%ADD10C,0.125000*%
%ADD11C,0.150000*%
%ADD12C,0.300000*%
%ADD13C,0.120000*%
%ADD14C,0.127000*%
%ADD15C,0.304800*%
G04 APERTURE END LIST*
D10*
X26114952Y-101306380D02*
X26114952Y-102020666D01*
X26067333Y-102163523D01*
X25972095Y-102258761D01*
X25829238Y-102306380D01*
X25734000Y-102306380D01*
X27067333Y-102306380D02*
X26591142Y-102306380D01*
X26591142Y-101306380D01*
X27972095Y-102211142D02*
X27924476Y-102258761D01*
X27781619Y-102306380D01*
X27686380Y-102306380D01*
X27543523Y-102258761D01*
X27448285Y-102163523D01*
X27400666Y-102068285D01*
X27353047Y-101877809D01*
X27353047Y-101734952D01*
X27400666Y-101544476D01*
X27448285Y-101449238D01*
X27543523Y-101354000D01*
X27686380Y-101306380D01*
X27781619Y-101306380D01*
X27924476Y-101354000D01*
X27972095Y-101401619D01*
X28686380Y-101306380D02*
X28686380Y-102020666D01*
X28638761Y-102163523D01*
X28543523Y-102258761D01*
X28400666Y-102306380D01*
X28305428Y-102306380D01*
X29638761Y-102306380D02*
X29162571Y-102306380D01*
X29162571Y-101306380D01*
X30543523Y-102211142D02*
X30495904Y-102258761D01*
X30353047Y-102306380D01*
X30257809Y-102306380D01*
X30114952Y-102258761D01*
X30019714Y-102163523D01*
X29972095Y-102068285D01*
X29924476Y-101877809D01*
X29924476Y-101734952D01*
X29972095Y-101544476D01*
X30019714Y-101449238D01*
X30114952Y-101354000D01*
X30257809Y-101306380D01*
X30353047Y-101306380D01*
X30495904Y-101354000D01*
X30543523Y-101401619D01*
X31257809Y-101306380D02*
X31257809Y-102020666D01*
X31210190Y-102163523D01*
X31114952Y-102258761D01*
X30972095Y-102306380D01*
X30876857Y-102306380D01*
X32210190Y-102306380D02*
X31734000Y-102306380D01*
X31734000Y-101306380D01*
X33114952Y-102211142D02*
X33067333Y-102258761D01*
X32924476Y-102306380D01*
X32829238Y-102306380D01*
X32686380Y-102258761D01*
X32591142Y-102163523D01*
X32543523Y-102068285D01*
X32495904Y-101877809D01*
X32495904Y-101734952D01*
X32543523Y-101544476D01*
X32591142Y-101449238D01*
X32686380Y-101354000D01*
X32829238Y-101306380D01*
X32924476Y-101306380D01*
X33067333Y-101354000D01*
X33114952Y-101401619D01*
X33829238Y-101306380D02*
X33829238Y-102020666D01*
X33781619Y-102163523D01*
X33686380Y-102258761D01*
X33543523Y-102306380D01*
X33448285Y-102306380D01*
X34781619Y-102306380D02*
X34305428Y-102306380D01*
X34305428Y-101306380D01*
X35686380Y-102211142D02*
X35638761Y-102258761D01*
X35495904Y-102306380D01*
X35400666Y-102306380D01*
X35257809Y-102258761D01*
X35162571Y-102163523D01*
X35114952Y-102068285D01*
X35067333Y-101877809D01*
X35067333Y-101734952D01*
X35114952Y-101544476D01*
X35162571Y-101449238D01*
X35257809Y-101354000D01*
X35400666Y-101306380D01*
X35495904Y-101306380D01*
X35638761Y-101354000D01*
X35686380Y-101401619D01*
D11*
%TO.C,J4*%
X98794666Y-80570380D02*
X98794666Y-81284666D01*
X98747047Y-81427523D01*
X98651809Y-81522761D01*
X98508952Y-81570380D01*
X98413714Y-81570380D01*
X99699428Y-80903714D02*
X99699428Y-81570380D01*
X99461333Y-80522761D02*
X99223238Y-81237047D01*
X99842285Y-81237047D01*
%TO.C,R6*%
X77811333Y-103322380D02*
X77478000Y-102846190D01*
X77239904Y-103322380D02*
X77239904Y-102322380D01*
X77620857Y-102322380D01*
X77716095Y-102370000D01*
X77763714Y-102417619D01*
X77811333Y-102512857D01*
X77811333Y-102655714D01*
X77763714Y-102750952D01*
X77716095Y-102798571D01*
X77620857Y-102846190D01*
X77239904Y-102846190D01*
X78668476Y-102322380D02*
X78478000Y-102322380D01*
X78382761Y-102370000D01*
X78335142Y-102417619D01*
X78239904Y-102560476D01*
X78192285Y-102750952D01*
X78192285Y-103131904D01*
X78239904Y-103227142D01*
X78287523Y-103274761D01*
X78382761Y-103322380D01*
X78573238Y-103322380D01*
X78668476Y-103274761D01*
X78716095Y-103227142D01*
X78763714Y-103131904D01*
X78763714Y-102893809D01*
X78716095Y-102798571D01*
X78668476Y-102750952D01*
X78573238Y-102703333D01*
X78382761Y-102703333D01*
X78287523Y-102750952D01*
X78239904Y-102798571D01*
X78192285Y-102893809D01*
%TO.C,BT1*%
X31175571Y-90385714D02*
X31223190Y-90242857D01*
X31270809Y-90195238D01*
X31366047Y-90147619D01*
X31508904Y-90147619D01*
X31604142Y-90195238D01*
X31651761Y-90242857D01*
X31699380Y-90338095D01*
X31699380Y-90719047D01*
X30699380Y-90719047D01*
X30699380Y-90385714D01*
X30747000Y-90290476D01*
X30794619Y-90242857D01*
X30889857Y-90195238D01*
X30985095Y-90195238D01*
X31080333Y-90242857D01*
X31127952Y-90290476D01*
X31175571Y-90385714D01*
X31175571Y-90719047D01*
X30699380Y-89861904D02*
X30699380Y-89290476D01*
X31699380Y-89576190D02*
X30699380Y-89576190D01*
X31699380Y-88433333D02*
X31699380Y-89004761D01*
X31699380Y-88719047D02*
X30699380Y-88719047D01*
X30842238Y-88814285D01*
X30937476Y-88909523D01*
X30985095Y-89004761D01*
X34009000Y-71337333D02*
X34009000Y-70270666D01*
X34542333Y-70804000D02*
X33475666Y-70804000D01*
X33501000Y-109437333D02*
X33501000Y-108370666D01*
%TO.C,U2*%
X77460095Y-71080380D02*
X77460095Y-71889904D01*
X77507714Y-71985142D01*
X77555333Y-72032761D01*
X77650571Y-72080380D01*
X77841047Y-72080380D01*
X77936285Y-72032761D01*
X77983904Y-71985142D01*
X78031523Y-71889904D01*
X78031523Y-71080380D01*
X78460095Y-71175619D02*
X78507714Y-71128000D01*
X78602952Y-71080380D01*
X78841047Y-71080380D01*
X78936285Y-71128000D01*
X78983904Y-71175619D01*
X79031523Y-71270857D01*
X79031523Y-71366095D01*
X78983904Y-71508952D01*
X78412476Y-72080380D01*
X79031523Y-72080380D01*
D12*
%TO.C,J3*%
X93480000Y-105350571D02*
X93480000Y-106422000D01*
X93408571Y-106636285D01*
X93265714Y-106779142D01*
X93051428Y-106850571D01*
X92908571Y-106850571D01*
X94051428Y-105350571D02*
X94980000Y-105350571D01*
X94480000Y-105922000D01*
X94694285Y-105922000D01*
X94837142Y-105993428D01*
X94908571Y-106064857D01*
X94980000Y-106207714D01*
X94980000Y-106564857D01*
X94908571Y-106707714D01*
X94837142Y-106779142D01*
X94694285Y-106850571D01*
X94265714Y-106850571D01*
X94122857Y-106779142D01*
X94051428Y-106707714D01*
X90801428Y-104310571D02*
X90801428Y-102810571D01*
X91158571Y-102810571D01*
X91372857Y-102882000D01*
X91515714Y-103024857D01*
X91587142Y-103167714D01*
X91658571Y-103453428D01*
X91658571Y-103667714D01*
X91587142Y-103953428D01*
X91515714Y-104096285D01*
X91372857Y-104239142D01*
X91158571Y-104310571D01*
X90801428Y-104310571D01*
X92301428Y-104310571D02*
X92301428Y-102810571D01*
X93015714Y-104310571D02*
X93015714Y-102810571D01*
X93872857Y-104310571D01*
X93872857Y-102810571D01*
X94587142Y-103739142D02*
X95730000Y-103739142D01*
X97158571Y-102810571D02*
X96444285Y-102810571D01*
X96372857Y-103524857D01*
X96444285Y-103453428D01*
X96587142Y-103382000D01*
X96944285Y-103382000D01*
X97087142Y-103453428D01*
X97158571Y-103524857D01*
X97230000Y-103667714D01*
X97230000Y-104024857D01*
X97158571Y-104167714D01*
X97087142Y-104239142D01*
X96944285Y-104310571D01*
X96587142Y-104310571D01*
X96444285Y-104239142D01*
X96372857Y-104167714D01*
D11*
%TO.C,SW3*%
X65416666Y-77039761D02*
X65559523Y-77087380D01*
X65797619Y-77087380D01*
X65892857Y-77039761D01*
X65940476Y-76992142D01*
X65988095Y-76896904D01*
X65988095Y-76801666D01*
X65940476Y-76706428D01*
X65892857Y-76658809D01*
X65797619Y-76611190D01*
X65607142Y-76563571D01*
X65511904Y-76515952D01*
X65464285Y-76468333D01*
X65416666Y-76373095D01*
X65416666Y-76277857D01*
X65464285Y-76182619D01*
X65511904Y-76135000D01*
X65607142Y-76087380D01*
X65845238Y-76087380D01*
X65988095Y-76135000D01*
X66321428Y-76087380D02*
X66559523Y-77087380D01*
X66750000Y-76373095D01*
X66940476Y-77087380D01*
X67178571Y-76087380D01*
X67464285Y-76087380D02*
X68083333Y-76087380D01*
X67750000Y-76468333D01*
X67892857Y-76468333D01*
X67988095Y-76515952D01*
X68035714Y-76563571D01*
X68083333Y-76658809D01*
X68083333Y-76896904D01*
X68035714Y-76992142D01*
X67988095Y-77039761D01*
X67892857Y-77087380D01*
X67607142Y-77087380D01*
X67511904Y-77039761D01*
X67464285Y-76992142D01*
%TO.C,R3*%
X66583333Y-96337380D02*
X66250000Y-95861190D01*
X66011904Y-96337380D02*
X66011904Y-95337380D01*
X66392857Y-95337380D01*
X66488095Y-95385000D01*
X66535714Y-95432619D01*
X66583333Y-95527857D01*
X66583333Y-95670714D01*
X66535714Y-95765952D01*
X66488095Y-95813571D01*
X66392857Y-95861190D01*
X66011904Y-95861190D01*
X66916666Y-95337380D02*
X67535714Y-95337380D01*
X67202380Y-95718333D01*
X67345238Y-95718333D01*
X67440476Y-95765952D01*
X67488095Y-95813571D01*
X67535714Y-95908809D01*
X67535714Y-96146904D01*
X67488095Y-96242142D01*
X67440476Y-96289761D01*
X67345238Y-96337380D01*
X67059523Y-96337380D01*
X66964285Y-96289761D01*
X66916666Y-96242142D01*
%TO.C,U6*%
X93917699Y-31318803D02*
X93917699Y-31956224D01*
X93955195Y-32031215D01*
X93992690Y-32068710D01*
X94067681Y-32106205D01*
X94217662Y-32106205D01*
X94292653Y-32068710D01*
X94330148Y-32031215D01*
X94367643Y-31956224D01*
X94367643Y-31318803D01*
X95080055Y-31318803D02*
X94930073Y-31318803D01*
X94855083Y-31356299D01*
X94817587Y-31393794D01*
X94742597Y-31506280D01*
X94705101Y-31656261D01*
X94705101Y-31956224D01*
X94742597Y-32031215D01*
X94780092Y-32068710D01*
X94855083Y-32106205D01*
X95005064Y-32106205D01*
X95080055Y-32068710D01*
X95117550Y-32031215D01*
X95155045Y-31956224D01*
X95155045Y-31768747D01*
X95117550Y-31693757D01*
X95080055Y-31656261D01*
X95005064Y-31618766D01*
X94855083Y-31618766D01*
X94780092Y-31656261D01*
X94742597Y-31693757D01*
X94705101Y-31768747D01*
%TO.C,U3*%
X53848095Y-49084380D02*
X53848095Y-49893904D01*
X53895714Y-49989142D01*
X53943333Y-50036761D01*
X54038571Y-50084380D01*
X54229047Y-50084380D01*
X54324285Y-50036761D01*
X54371904Y-49989142D01*
X54419523Y-49893904D01*
X54419523Y-49084380D01*
X54800476Y-49084380D02*
X55419523Y-49084380D01*
X55086190Y-49465333D01*
X55229047Y-49465333D01*
X55324285Y-49512952D01*
X55371904Y-49560571D01*
X55419523Y-49655809D01*
X55419523Y-49893904D01*
X55371904Y-49989142D01*
X55324285Y-50036761D01*
X55229047Y-50084380D01*
X54943333Y-50084380D01*
X54848095Y-50036761D01*
X54800476Y-49989142D01*
%TO.C,D1*%
X77239904Y-99771580D02*
X77239904Y-98771580D01*
X77478000Y-98771580D01*
X77620857Y-98819200D01*
X77716095Y-98914438D01*
X77763714Y-99009676D01*
X77811333Y-99200152D01*
X77811333Y-99343009D01*
X77763714Y-99533485D01*
X77716095Y-99628723D01*
X77620857Y-99723961D01*
X77478000Y-99771580D01*
X77239904Y-99771580D01*
X78763714Y-99771580D02*
X78192285Y-99771580D01*
X78478000Y-99771580D02*
X78478000Y-98771580D01*
X78382761Y-98914438D01*
X78287523Y-99009676D01*
X78192285Y-99057295D01*
%TO.C,BT2*%
X50093571Y-90385714D02*
X50141190Y-90242857D01*
X50188809Y-90195238D01*
X50284047Y-90147619D01*
X50426904Y-90147619D01*
X50522142Y-90195238D01*
X50569761Y-90242857D01*
X50617380Y-90338095D01*
X50617380Y-90719047D01*
X49617380Y-90719047D01*
X49617380Y-90385714D01*
X49665000Y-90290476D01*
X49712619Y-90242857D01*
X49807857Y-90195238D01*
X49903095Y-90195238D01*
X49998333Y-90242857D01*
X50045952Y-90290476D01*
X50093571Y-90385714D01*
X50093571Y-90719047D01*
X49617380Y-89861904D02*
X49617380Y-89290476D01*
X50617380Y-89576190D02*
X49617380Y-89576190D01*
X49712619Y-89004761D02*
X49665000Y-88957142D01*
X49617380Y-88861904D01*
X49617380Y-88623809D01*
X49665000Y-88528571D01*
X49712619Y-88480952D01*
X49807857Y-88433333D01*
X49903095Y-88433333D01*
X50045952Y-88480952D01*
X50617380Y-89052380D01*
X50617380Y-88433333D01*
X52297000Y-71337333D02*
X52297000Y-70270666D01*
X52805000Y-108929333D02*
X52805000Y-107862666D01*
X53338333Y-108396000D02*
X52271666Y-108396000D01*
%TO.C,R10*%
X82923142Y-34996380D02*
X82589809Y-34520190D01*
X82351714Y-34996380D02*
X82351714Y-33996380D01*
X82732666Y-33996380D01*
X82827904Y-34044000D01*
X82875523Y-34091619D01*
X82923142Y-34186857D01*
X82923142Y-34329714D01*
X82875523Y-34424952D01*
X82827904Y-34472571D01*
X82732666Y-34520190D01*
X82351714Y-34520190D01*
X83875523Y-34996380D02*
X83304095Y-34996380D01*
X83589809Y-34996380D02*
X83589809Y-33996380D01*
X83494571Y-34139238D01*
X83399333Y-34234476D01*
X83304095Y-34282095D01*
X84494571Y-33996380D02*
X84589809Y-33996380D01*
X84685047Y-34044000D01*
X84732666Y-34091619D01*
X84780285Y-34186857D01*
X84827904Y-34377333D01*
X84827904Y-34615428D01*
X84780285Y-34805904D01*
X84732666Y-34901142D01*
X84685047Y-34948761D01*
X84589809Y-34996380D01*
X84494571Y-34996380D01*
X84399333Y-34948761D01*
X84351714Y-34901142D01*
X84304095Y-34805904D01*
X84256476Y-34615428D01*
X84256476Y-34377333D01*
X84304095Y-34186857D01*
X84351714Y-34091619D01*
X84399333Y-34044000D01*
X84494571Y-33996380D01*
%TO.C,C4*%
X73453333Y-35917142D02*
X73405714Y-35964761D01*
X73262857Y-36012380D01*
X73167619Y-36012380D01*
X73024761Y-35964761D01*
X72929523Y-35869523D01*
X72881904Y-35774285D01*
X72834285Y-35583809D01*
X72834285Y-35440952D01*
X72881904Y-35250476D01*
X72929523Y-35155238D01*
X73024761Y-35060000D01*
X73167619Y-35012380D01*
X73262857Y-35012380D01*
X73405714Y-35060000D01*
X73453333Y-35107619D01*
X74310476Y-35345714D02*
X74310476Y-36012380D01*
X74072380Y-34964761D02*
X73834285Y-35679047D01*
X74453333Y-35679047D01*
%TO.C,C10*%
X77335142Y-77573142D02*
X77287523Y-77620761D01*
X77144666Y-77668380D01*
X77049428Y-77668380D01*
X76906571Y-77620761D01*
X76811333Y-77525523D01*
X76763714Y-77430285D01*
X76716095Y-77239809D01*
X76716095Y-77096952D01*
X76763714Y-76906476D01*
X76811333Y-76811238D01*
X76906571Y-76716000D01*
X77049428Y-76668380D01*
X77144666Y-76668380D01*
X77287523Y-76716000D01*
X77335142Y-76763619D01*
X78287523Y-77668380D02*
X77716095Y-77668380D01*
X78001809Y-77668380D02*
X78001809Y-76668380D01*
X77906571Y-76811238D01*
X77811333Y-76906476D01*
X77716095Y-76954095D01*
X78906571Y-76668380D02*
X79001809Y-76668380D01*
X79097047Y-76716000D01*
X79144666Y-76763619D01*
X79192285Y-76858857D01*
X79239904Y-77049333D01*
X79239904Y-77287428D01*
X79192285Y-77477904D01*
X79144666Y-77573142D01*
X79097047Y-77620761D01*
X79001809Y-77668380D01*
X78906571Y-77668380D01*
X78811333Y-77620761D01*
X78763714Y-77573142D01*
X78716095Y-77477904D01*
X78668476Y-77287428D01*
X78668476Y-77049333D01*
X78716095Y-76858857D01*
X78763714Y-76763619D01*
X78811333Y-76716000D01*
X78906571Y-76668380D01*
%TO.C,R8*%
X83399334Y-37282380D02*
X83066001Y-36806190D01*
X82827905Y-37282380D02*
X82827905Y-36282380D01*
X83208858Y-36282380D01*
X83304096Y-36330000D01*
X83351715Y-36377619D01*
X83399334Y-36472857D01*
X83399334Y-36615714D01*
X83351715Y-36710952D01*
X83304096Y-36758571D01*
X83208858Y-36806190D01*
X82827905Y-36806190D01*
X83970762Y-36710952D02*
X83875524Y-36663333D01*
X83827905Y-36615714D01*
X83780286Y-36520476D01*
X83780286Y-36472857D01*
X83827905Y-36377619D01*
X83875524Y-36330000D01*
X83970762Y-36282380D01*
X84161239Y-36282380D01*
X84256477Y-36330000D01*
X84304096Y-36377619D01*
X84351715Y-36472857D01*
X84351715Y-36520476D01*
X84304096Y-36615714D01*
X84256477Y-36663333D01*
X84161239Y-36710952D01*
X83970762Y-36710952D01*
X83875524Y-36758571D01*
X83827905Y-36806190D01*
X83780286Y-36901428D01*
X83780286Y-37091904D01*
X83827905Y-37187142D01*
X83875524Y-37234761D01*
X83970762Y-37282380D01*
X84161239Y-37282380D01*
X84256477Y-37234761D01*
X84304096Y-37187142D01*
X84351715Y-37091904D01*
X84351715Y-36901428D01*
X84304096Y-36806190D01*
X84256477Y-36758571D01*
X84161239Y-36710952D01*
%TO.C,R1*%
X66583333Y-83637380D02*
X66250000Y-83161190D01*
X66011904Y-83637380D02*
X66011904Y-82637380D01*
X66392857Y-82637380D01*
X66488095Y-82685000D01*
X66535714Y-82732619D01*
X66583333Y-82827857D01*
X66583333Y-82970714D01*
X66535714Y-83065952D01*
X66488095Y-83113571D01*
X66392857Y-83161190D01*
X66011904Y-83161190D01*
X67535714Y-83637380D02*
X66964285Y-83637380D01*
X67250000Y-83637380D02*
X67250000Y-82637380D01*
X67154761Y-82780238D01*
X67059523Y-82875476D01*
X66964285Y-82923095D01*
%TO.C,J2*%
X102556666Y-47727380D02*
X102556666Y-48441666D01*
X102509047Y-48584523D01*
X102413809Y-48679761D01*
X102270952Y-48727380D01*
X102175714Y-48727380D01*
X102985238Y-47822619D02*
X103032857Y-47775000D01*
X103128095Y-47727380D01*
X103366190Y-47727380D01*
X103461428Y-47775000D01*
X103509047Y-47822619D01*
X103556666Y-47917857D01*
X103556666Y-48013095D01*
X103509047Y-48155952D01*
X102937619Y-48727380D01*
X103556666Y-48727380D01*
%TO.C,SW1*%
X78676666Y-32154761D02*
X78819523Y-32202380D01*
X79057619Y-32202380D01*
X79152857Y-32154761D01*
X79200476Y-32107142D01*
X79248095Y-32011904D01*
X79248095Y-31916666D01*
X79200476Y-31821428D01*
X79152857Y-31773809D01*
X79057619Y-31726190D01*
X78867142Y-31678571D01*
X78771904Y-31630952D01*
X78724285Y-31583333D01*
X78676666Y-31488095D01*
X78676666Y-31392857D01*
X78724285Y-31297619D01*
X78771904Y-31250000D01*
X78867142Y-31202380D01*
X79105238Y-31202380D01*
X79248095Y-31250000D01*
X79581428Y-31202380D02*
X79819523Y-32202380D01*
X80010000Y-31488095D01*
X80200476Y-32202380D01*
X80438571Y-31202380D01*
X81343333Y-32202380D02*
X80771904Y-32202380D01*
X81057619Y-32202380D02*
X81057619Y-31202380D01*
X80962380Y-31345238D01*
X80867142Y-31440476D01*
X80771904Y-31488095D01*
%TO.C,Y1*%
X62973809Y-35798690D02*
X62973809Y-36274880D01*
X62640476Y-35274880D02*
X62973809Y-35798690D01*
X63307142Y-35274880D01*
X64164285Y-36274880D02*
X63592857Y-36274880D01*
X63878571Y-36274880D02*
X63878571Y-35274880D01*
X63783333Y-35417738D01*
X63688095Y-35512976D01*
X63592857Y-35560595D01*
%TO.C,R2*%
X66583333Y-109037380D02*
X66250000Y-108561190D01*
X66011904Y-109037380D02*
X66011904Y-108037380D01*
X66392857Y-108037380D01*
X66488095Y-108085000D01*
X66535714Y-108132619D01*
X66583333Y-108227857D01*
X66583333Y-108370714D01*
X66535714Y-108465952D01*
X66488095Y-108513571D01*
X66392857Y-108561190D01*
X66011904Y-108561190D01*
X66964285Y-108132619D02*
X67011904Y-108085000D01*
X67107142Y-108037380D01*
X67345238Y-108037380D01*
X67440476Y-108085000D01*
X67488095Y-108132619D01*
X67535714Y-108227857D01*
X67535714Y-108323095D01*
X67488095Y-108465952D01*
X66916666Y-109037380D01*
X67535714Y-109037380D01*
%TO.C,U4*%
X78700380Y-43951904D02*
X79509904Y-43951904D01*
X79605142Y-43904285D01*
X79652761Y-43856666D01*
X79700380Y-43761428D01*
X79700380Y-43570952D01*
X79652761Y-43475714D01*
X79605142Y-43428095D01*
X79509904Y-43380476D01*
X78700380Y-43380476D01*
X79033714Y-42475714D02*
X79700380Y-42475714D01*
X78652761Y-42713809D02*
X79367047Y-42951904D01*
X79367047Y-42332857D01*
%TO.C,C2*%
X62063333Y-51157142D02*
X62015714Y-51204761D01*
X61872857Y-51252380D01*
X61777619Y-51252380D01*
X61634761Y-51204761D01*
X61539523Y-51109523D01*
X61491904Y-51014285D01*
X61444285Y-50823809D01*
X61444285Y-50680952D01*
X61491904Y-50490476D01*
X61539523Y-50395238D01*
X61634761Y-50300000D01*
X61777619Y-50252380D01*
X61872857Y-50252380D01*
X62015714Y-50300000D01*
X62063333Y-50347619D01*
X62444285Y-50347619D02*
X62491904Y-50300000D01*
X62587142Y-50252380D01*
X62825238Y-50252380D01*
X62920476Y-50300000D01*
X62968095Y-50347619D01*
X63015714Y-50442857D01*
X63015714Y-50538095D01*
X62968095Y-50680952D01*
X62396666Y-51252380D01*
X63015714Y-51252380D01*
%TO.C,C7*%
X62063333Y-55602142D02*
X62015714Y-55649761D01*
X61872857Y-55697380D01*
X61777619Y-55697380D01*
X61634761Y-55649761D01*
X61539523Y-55554523D01*
X61491904Y-55459285D01*
X61444285Y-55268809D01*
X61444285Y-55125952D01*
X61491904Y-54935476D01*
X61539523Y-54840238D01*
X61634761Y-54745000D01*
X61777619Y-54697380D01*
X61872857Y-54697380D01*
X62015714Y-54745000D01*
X62063333Y-54792619D01*
X62396666Y-54697380D02*
X63063333Y-54697380D01*
X62634761Y-55697380D01*
%TO.C,R4*%
X40076380Y-38901666D02*
X39600190Y-39235000D01*
X40076380Y-39473095D02*
X39076380Y-39473095D01*
X39076380Y-39092142D01*
X39124000Y-38996904D01*
X39171619Y-38949285D01*
X39266857Y-38901666D01*
X39409714Y-38901666D01*
X39504952Y-38949285D01*
X39552571Y-38996904D01*
X39600190Y-39092142D01*
X39600190Y-39473095D01*
X39409714Y-38044523D02*
X40076380Y-38044523D01*
X39028761Y-38282619D02*
X39743047Y-38520714D01*
X39743047Y-37901666D01*
%TO.C,R7*%
X77811333Y-96220780D02*
X77478000Y-95744590D01*
X77239904Y-96220780D02*
X77239904Y-95220780D01*
X77620857Y-95220780D01*
X77716095Y-95268400D01*
X77763714Y-95316019D01*
X77811333Y-95411257D01*
X77811333Y-95554114D01*
X77763714Y-95649352D01*
X77716095Y-95696971D01*
X77620857Y-95744590D01*
X77239904Y-95744590D01*
X78144666Y-95220780D02*
X78811333Y-95220780D01*
X78382761Y-96220780D01*
%TO.C,SW4*%
X65416666Y-102639761D02*
X65559523Y-102687380D01*
X65797619Y-102687380D01*
X65892857Y-102639761D01*
X65940476Y-102592142D01*
X65988095Y-102496904D01*
X65988095Y-102401666D01*
X65940476Y-102306428D01*
X65892857Y-102258809D01*
X65797619Y-102211190D01*
X65607142Y-102163571D01*
X65511904Y-102115952D01*
X65464285Y-102068333D01*
X65416666Y-101973095D01*
X65416666Y-101877857D01*
X65464285Y-101782619D01*
X65511904Y-101735000D01*
X65607142Y-101687380D01*
X65845238Y-101687380D01*
X65988095Y-101735000D01*
X66321428Y-101687380D02*
X66559523Y-102687380D01*
X66750000Y-101973095D01*
X66940476Y-102687380D01*
X67178571Y-101687380D01*
X67988095Y-102020714D02*
X67988095Y-102687380D01*
X67750000Y-101639761D02*
X67511904Y-102354047D01*
X68130952Y-102354047D01*
%TO.C,J1*%
X95337380Y-72088333D02*
X96051666Y-72088333D01*
X96194523Y-72135952D01*
X96289761Y-72231190D01*
X96337380Y-72374047D01*
X96337380Y-72469285D01*
X96337380Y-71088333D02*
X96337380Y-71659761D01*
X96337380Y-71374047D02*
X95337380Y-71374047D01*
X95480238Y-71469285D01*
X95575476Y-71564523D01*
X95623095Y-71659761D01*
%TO.C,SW5*%
X65416666Y-89839761D02*
X65559523Y-89887380D01*
X65797619Y-89887380D01*
X65892857Y-89839761D01*
X65940476Y-89792142D01*
X65988095Y-89696904D01*
X65988095Y-89601666D01*
X65940476Y-89506428D01*
X65892857Y-89458809D01*
X65797619Y-89411190D01*
X65607142Y-89363571D01*
X65511904Y-89315952D01*
X65464285Y-89268333D01*
X65416666Y-89173095D01*
X65416666Y-89077857D01*
X65464285Y-88982619D01*
X65511904Y-88935000D01*
X65607142Y-88887380D01*
X65845238Y-88887380D01*
X65988095Y-88935000D01*
X66321428Y-88887380D02*
X66559523Y-89887380D01*
X66750000Y-89173095D01*
X66940476Y-89887380D01*
X67178571Y-88887380D01*
X68035714Y-88887380D02*
X67559523Y-88887380D01*
X67511904Y-89363571D01*
X67559523Y-89315952D01*
X67654761Y-89268333D01*
X67892857Y-89268333D01*
X67988095Y-89315952D01*
X68035714Y-89363571D01*
X68083333Y-89458809D01*
X68083333Y-89696904D01*
X68035714Y-89792142D01*
X67988095Y-89839761D01*
X67892857Y-89887380D01*
X67654761Y-89887380D01*
X67559523Y-89839761D01*
X67511904Y-89792142D01*
%TO.C,R5*%
X37028380Y-38901666D02*
X36552190Y-39235000D01*
X37028380Y-39473095D02*
X36028380Y-39473095D01*
X36028380Y-39092142D01*
X36076000Y-38996904D01*
X36123619Y-38949285D01*
X36218857Y-38901666D01*
X36361714Y-38901666D01*
X36456952Y-38949285D01*
X36504571Y-38996904D01*
X36552190Y-39092142D01*
X36552190Y-39473095D01*
X36028380Y-37996904D02*
X36028380Y-38473095D01*
X36504571Y-38520714D01*
X36456952Y-38473095D01*
X36409333Y-38377857D01*
X36409333Y-38139761D01*
X36456952Y-38044523D01*
X36504571Y-37996904D01*
X36599809Y-37949285D01*
X36837904Y-37949285D01*
X36933142Y-37996904D01*
X36980761Y-38044523D01*
X37028380Y-38139761D01*
X37028380Y-38377857D01*
X36980761Y-38473095D01*
X36933142Y-38520714D01*
%TO.C,DS1*%
X24461714Y-24582380D02*
X24461714Y-23582380D01*
X24699809Y-23582380D01*
X24842666Y-23630000D01*
X24937904Y-23725238D01*
X24985523Y-23820476D01*
X25033142Y-24010952D01*
X25033142Y-24153809D01*
X24985523Y-24344285D01*
X24937904Y-24439523D01*
X24842666Y-24534761D01*
X24699809Y-24582380D01*
X24461714Y-24582380D01*
X25414095Y-24534761D02*
X25556952Y-24582380D01*
X25795047Y-24582380D01*
X25890285Y-24534761D01*
X25937904Y-24487142D01*
X25985523Y-24391904D01*
X25985523Y-24296666D01*
X25937904Y-24201428D01*
X25890285Y-24153809D01*
X25795047Y-24106190D01*
X25604571Y-24058571D01*
X25509333Y-24010952D01*
X25461714Y-23963333D01*
X25414095Y-23868095D01*
X25414095Y-23772857D01*
X25461714Y-23677619D01*
X25509333Y-23630000D01*
X25604571Y-23582380D01*
X25842666Y-23582380D01*
X25985523Y-23630000D01*
X26937904Y-24582380D02*
X26366476Y-24582380D01*
X26652190Y-24582380D02*
X26652190Y-23582380D01*
X26556952Y-23725238D01*
X26461714Y-23820476D01*
X26366476Y-23868095D01*
%TO.C,R9*%
X77811333Y-81819180D02*
X77478000Y-81342990D01*
X77239904Y-81819180D02*
X77239904Y-80819180D01*
X77620857Y-80819180D01*
X77716095Y-80866800D01*
X77763714Y-80914419D01*
X77811333Y-81009657D01*
X77811333Y-81152514D01*
X77763714Y-81247752D01*
X77716095Y-81295371D01*
X77620857Y-81342990D01*
X77239904Y-81342990D01*
X78287523Y-81819180D02*
X78478000Y-81819180D01*
X78573238Y-81771561D01*
X78620857Y-81723942D01*
X78716095Y-81581085D01*
X78763714Y-81390609D01*
X78763714Y-81009657D01*
X78716095Y-80914419D01*
X78668476Y-80866800D01*
X78573238Y-80819180D01*
X78382761Y-80819180D01*
X78287523Y-80866800D01*
X78239904Y-80914419D01*
X78192285Y-81009657D01*
X78192285Y-81247752D01*
X78239904Y-81342990D01*
X78287523Y-81390609D01*
X78382761Y-81438228D01*
X78573238Y-81438228D01*
X78668476Y-81390609D01*
X78716095Y-81342990D01*
X78763714Y-81247752D01*
%TO.C,C5*%
X53133333Y-35917142D02*
X53085714Y-35964761D01*
X52942857Y-36012380D01*
X52847619Y-36012380D01*
X52704761Y-35964761D01*
X52609523Y-35869523D01*
X52561904Y-35774285D01*
X52514285Y-35583809D01*
X52514285Y-35440952D01*
X52561904Y-35250476D01*
X52609523Y-35155238D01*
X52704761Y-35060000D01*
X52847619Y-35012380D01*
X52942857Y-35012380D01*
X53085714Y-35060000D01*
X53133333Y-35107619D01*
X54038095Y-35012380D02*
X53561904Y-35012380D01*
X53514285Y-35488571D01*
X53561904Y-35440952D01*
X53657142Y-35393333D01*
X53895238Y-35393333D01*
X53990476Y-35440952D01*
X54038095Y-35488571D01*
X54085714Y-35583809D01*
X54085714Y-35821904D01*
X54038095Y-35917142D01*
X53990476Y-35964761D01*
X53895238Y-36012380D01*
X53657142Y-36012380D01*
X53561904Y-35964761D01*
X53514285Y-35917142D01*
%TO.C,SW2*%
X28725761Y-45529333D02*
X28773380Y-45386476D01*
X28773380Y-45148380D01*
X28725761Y-45053142D01*
X28678142Y-45005523D01*
X28582904Y-44957904D01*
X28487666Y-44957904D01*
X28392428Y-45005523D01*
X28344809Y-45053142D01*
X28297190Y-45148380D01*
X28249571Y-45338857D01*
X28201952Y-45434095D01*
X28154333Y-45481714D01*
X28059095Y-45529333D01*
X27963857Y-45529333D01*
X27868619Y-45481714D01*
X27821000Y-45434095D01*
X27773380Y-45338857D01*
X27773380Y-45100761D01*
X27821000Y-44957904D01*
X27773380Y-44624571D02*
X28773380Y-44386476D01*
X28059095Y-44196000D01*
X28773380Y-44005523D01*
X27773380Y-43767428D01*
X27868619Y-43434095D02*
X27821000Y-43386476D01*
X27773380Y-43291238D01*
X27773380Y-43053142D01*
X27821000Y-42957904D01*
X27868619Y-42910285D01*
X27963857Y-42862666D01*
X28059095Y-42862666D01*
X28201952Y-42910285D01*
X28773380Y-43481714D01*
X28773380Y-42862666D01*
%TO.C,U1*%
X65988095Y-64072380D02*
X65988095Y-64881904D01*
X66035714Y-64977142D01*
X66083333Y-65024761D01*
X66178571Y-65072380D01*
X66369047Y-65072380D01*
X66464285Y-65024761D01*
X66511904Y-64977142D01*
X66559523Y-64881904D01*
X66559523Y-64072380D01*
X67559523Y-65072380D02*
X66988095Y-65072380D01*
X67273809Y-65072380D02*
X67273809Y-64072380D01*
X67178571Y-64215238D01*
X67083333Y-64310476D01*
X66988095Y-64358095D01*
%TO.C,C3*%
X47331333Y-53189142D02*
X47283714Y-53236761D01*
X47140857Y-53284380D01*
X47045619Y-53284380D01*
X46902761Y-53236761D01*
X46807523Y-53141523D01*
X46759904Y-53046285D01*
X46712285Y-52855809D01*
X46712285Y-52712952D01*
X46759904Y-52522476D01*
X46807523Y-52427238D01*
X46902761Y-52332000D01*
X47045619Y-52284380D01*
X47140857Y-52284380D01*
X47283714Y-52332000D01*
X47331333Y-52379619D01*
X47664666Y-52284380D02*
X48283714Y-52284380D01*
X47950380Y-52665333D01*
X48093238Y-52665333D01*
X48188476Y-52712952D01*
X48236095Y-52760571D01*
X48283714Y-52855809D01*
X48283714Y-53093904D01*
X48236095Y-53189142D01*
X48188476Y-53236761D01*
X48093238Y-53284380D01*
X47807523Y-53284380D01*
X47712285Y-53236761D01*
X47664666Y-53189142D01*
%TO.C,C1*%
X39711333Y-53443142D02*
X39663714Y-53490761D01*
X39520857Y-53538380D01*
X39425619Y-53538380D01*
X39282761Y-53490761D01*
X39187523Y-53395523D01*
X39139904Y-53300285D01*
X39092285Y-53109809D01*
X39092285Y-52966952D01*
X39139904Y-52776476D01*
X39187523Y-52681238D01*
X39282761Y-52586000D01*
X39425619Y-52538380D01*
X39520857Y-52538380D01*
X39663714Y-52586000D01*
X39711333Y-52633619D01*
X40663714Y-53538380D02*
X40092285Y-53538380D01*
X40378000Y-53538380D02*
X40378000Y-52538380D01*
X40282761Y-52681238D01*
X40187523Y-52776476D01*
X40092285Y-52824095D01*
%TO.C,U5*%
X75906380Y-89319504D02*
X76715904Y-89319504D01*
X76811142Y-89271885D01*
X76858761Y-89224266D01*
X76906380Y-89129028D01*
X76906380Y-88938552D01*
X76858761Y-88843314D01*
X76811142Y-88795695D01*
X76715904Y-88748076D01*
X75906380Y-88748076D01*
X75906380Y-87795695D02*
X75906380Y-88271885D01*
X76382571Y-88319504D01*
X76334952Y-88271885D01*
X76287333Y-88176647D01*
X76287333Y-87938552D01*
X76334952Y-87843314D01*
X76382571Y-87795695D01*
X76477809Y-87748076D01*
X76715904Y-87748076D01*
X76811142Y-87795695D01*
X76858761Y-87843314D01*
X76906380Y-87938552D01*
X76906380Y-88176647D01*
X76858761Y-88271885D01*
X76811142Y-88319504D01*
D13*
%TO.C,J4*%
X104478000Y-91468000D02*
X89778000Y-91468000D01*
X104478000Y-82268000D02*
X104478000Y-91468000D01*
X89778000Y-82268000D02*
X91678000Y-82268000D01*
X89778000Y-84968000D02*
X89778000Y-82268000D01*
X89778000Y-91468000D02*
X89778000Y-88868000D01*
X95678000Y-82268000D02*
X104478000Y-82268000D01*
X89578000Y-90618000D02*
X89578000Y-91668000D01*
X90628000Y-91668000D02*
X89578000Y-91668000D01*
%TO.C,R6*%
X79898000Y-101950000D02*
X76058000Y-101950000D01*
X76058000Y-101950000D02*
X76058000Y-103790000D01*
X80848000Y-102870000D02*
X79898000Y-102870000D01*
X76058000Y-103790000D02*
X79898000Y-103790000D01*
X79898000Y-103790000D02*
X79898000Y-101950000D01*
X75108000Y-102870000D02*
X76058000Y-102870000D01*
D14*
%TO.C,BT1*%
X22357000Y-111100000D02*
X22357000Y-68100000D01*
X40137000Y-111100000D02*
X22357000Y-111100000D01*
X40137000Y-68100000D02*
X40137000Y-111100000D01*
X22357000Y-68100000D02*
X40137000Y-68100000D01*
D13*
%TO.C,U2*%
X75572000Y-73974000D02*
X77222000Y-73974000D01*
X79222000Y-73974000D02*
X80872000Y-73974000D01*
X80872000Y-73974000D02*
X80872000Y-53534000D01*
X80872000Y-53534000D02*
X75572000Y-53534000D01*
X75572000Y-53534000D02*
X75572000Y-73974000D01*
X79222000Y-73974000D02*
G75*
G03*
X77222000Y-73974000I-1000000J0D01*
G01*
D15*
%TO.C,J3*%
X84980780Y-92600780D02*
X85481160Y-92100400D01*
X91981020Y-92600780D02*
X91981020Y-94599760D01*
X95978980Y-92600780D02*
X95978980Y-94599760D01*
X102979220Y-109601000D02*
X102478840Y-109601000D01*
X87980520Y-92100400D02*
X88480900Y-92600780D01*
X92478860Y-92100400D02*
X91981020Y-92600780D01*
X92478860Y-92100400D02*
X95481140Y-92100400D01*
X88480900Y-92600780D02*
X88480900Y-94599760D01*
X102979220Y-92600780D02*
X102979220Y-109601000D01*
X83479640Y-110599220D02*
X84980780Y-110599220D01*
X83479640Y-111099600D02*
X83479640Y-110599220D01*
X102979220Y-110599220D02*
X84980780Y-110599220D01*
X102478840Y-110098840D02*
X102478840Y-109601000D01*
X83479640Y-110850680D02*
X102979220Y-110850680D01*
X104480360Y-110599220D02*
X102979220Y-110599220D01*
X84980780Y-110599220D02*
X84980780Y-110098840D01*
X100479860Y-92100400D02*
X99979480Y-92100400D01*
X104480360Y-110098840D02*
X104480360Y-110599220D01*
X84980780Y-92600780D02*
X84980780Y-109601000D01*
X88480900Y-94599760D02*
X91981020Y-94599760D01*
X102478840Y-92100400D02*
X100479860Y-92100400D01*
X84980780Y-110098840D02*
X104480360Y-110098840D01*
X95481140Y-92100400D02*
X95978980Y-92600780D01*
X99979480Y-92100400D02*
X99479100Y-92600780D01*
X85481160Y-92100400D02*
X87980520Y-92100400D01*
X84980780Y-109601000D02*
X85481160Y-109601000D01*
X99479100Y-92600780D02*
X99479100Y-94599760D01*
X99479100Y-94599760D02*
X95978980Y-94599760D01*
X84980780Y-110350300D02*
X104480360Y-110350300D01*
X102979220Y-111099600D02*
X83479640Y-111099600D01*
X102979220Y-92600780D02*
X102478840Y-92100400D01*
X102979220Y-110599220D02*
X102979220Y-111099600D01*
X85481160Y-109601000D02*
X85481160Y-110098840D01*
D13*
%TO.C,SW3*%
X63250000Y-76085000D02*
X63250000Y-77585000D01*
X64500000Y-80085000D02*
X69000000Y-80085000D01*
X69000000Y-73585000D02*
X64500000Y-73585000D01*
X70250000Y-77585000D02*
X70250000Y-76085000D01*
%TO.C,R3*%
X63880000Y-95885000D02*
X64830000Y-95885000D01*
X69620000Y-95885000D02*
X68670000Y-95885000D01*
X68670000Y-94965000D02*
X64830000Y-94965000D01*
X68670000Y-96805000D02*
X68670000Y-94965000D01*
X64830000Y-96805000D02*
X68670000Y-96805000D01*
X64830000Y-94965000D02*
X64830000Y-96805000D01*
D14*
%TO.C,U6*%
X92217625Y-36810000D02*
X96917625Y-36810000D01*
X91017625Y-25710000D02*
X91017625Y-31210000D01*
X91017625Y-31210000D02*
X92217625Y-36810000D01*
X98217625Y-25710000D02*
X98217625Y-31010000D01*
X91017625Y-25710000D02*
X98217625Y-25710000D01*
X96917625Y-36810000D02*
X98217625Y-31010000D01*
X95817625Y-29210000D02*
G75*
G03*
X95817625Y-29210000I-1300000J0D01*
G01*
D13*
%TO.C,U3*%
X52810000Y-55042000D02*
X56410000Y-55042000D01*
X54610000Y-50591999D02*
G75*
G03*
X52771522Y-55030478I0J-2600001D01*
G01*
X56448478Y-55030478D02*
G75*
G03*
X54610000Y-50592000I-1838478J1838478D01*
G01*
%TO.C,D1*%
X76698000Y-98199200D02*
X76698000Y-100439200D01*
X76458000Y-98199200D02*
X76458000Y-100439200D01*
X75858000Y-98199200D02*
X75858000Y-100439200D01*
X80098000Y-100439200D02*
X80098000Y-98199200D01*
X75208000Y-99319200D02*
X75858000Y-99319200D01*
X80098000Y-98199200D02*
X75858000Y-98199200D01*
X80748000Y-99319200D02*
X80098000Y-99319200D01*
X75858000Y-100439200D02*
X80098000Y-100439200D01*
X76578000Y-98199200D02*
X76578000Y-100439200D01*
D14*
%TO.C,BT2*%
X59055000Y-111100000D02*
X41275000Y-111100000D01*
X59055000Y-68100000D02*
X59055000Y-111100000D01*
X41275000Y-68100000D02*
X59055000Y-68100000D01*
X41275000Y-111100000D02*
X41275000Y-68100000D01*
D13*
%TO.C,R10*%
X80696000Y-34544000D02*
X81646000Y-34544000D01*
X86436000Y-34544000D02*
X85486000Y-34544000D01*
X81646000Y-33624000D02*
X81646000Y-35464000D01*
X85486000Y-33624000D02*
X81646000Y-33624000D01*
X81646000Y-35464000D02*
X85486000Y-35464000D01*
X85486000Y-35464000D02*
X85486000Y-33624000D01*
%TO.C,C4*%
X70950000Y-36615000D02*
X70950000Y-37281000D01*
X76290000Y-33839000D02*
X76290000Y-34505000D01*
X70950000Y-33839000D02*
X70950000Y-34505000D01*
X70950000Y-37281000D02*
X76290000Y-37281000D01*
X76290000Y-36615000D02*
X76290000Y-37281000D01*
X70950000Y-33839000D02*
X76290000Y-33839000D01*
%TO.C,C10*%
X80648000Y-78271000D02*
X80648000Y-78937000D01*
X75308000Y-78271000D02*
X75308000Y-78937000D01*
X75308000Y-75495000D02*
X80648000Y-75495000D01*
X80648000Y-75495000D02*
X80648000Y-76161000D01*
X75308000Y-75495000D02*
X75308000Y-76161000D01*
X75308000Y-78937000D02*
X80648000Y-78937000D01*
%TO.C,R8*%
X81646000Y-37750000D02*
X85486000Y-37750000D01*
X86436000Y-36830000D02*
X85486000Y-36830000D01*
X80696000Y-36830000D02*
X81646000Y-36830000D01*
X85486000Y-37750000D02*
X85486000Y-35910000D01*
X81646000Y-35910000D02*
X81646000Y-37750000D01*
X85486000Y-35910000D02*
X81646000Y-35910000D01*
%TO.C,R1*%
X64830000Y-82265000D02*
X64830000Y-84105000D01*
X68670000Y-82265000D02*
X64830000Y-82265000D01*
X64830000Y-84105000D02*
X68670000Y-84105000D01*
X69620000Y-83185000D02*
X68670000Y-83185000D01*
X68670000Y-84105000D02*
X68670000Y-82265000D01*
X63880000Y-83185000D02*
X64830000Y-83185000D01*
%TO.C,J2*%
X102890000Y-39325000D02*
X104220000Y-39325000D01*
X99020000Y-39325000D02*
X99020000Y-47065000D01*
X101620000Y-39325000D02*
X101620000Y-41925000D01*
X104220000Y-41925000D02*
X104220000Y-47065000D01*
X99020000Y-47065000D02*
X104220000Y-47065000D01*
X104220000Y-39325000D02*
X104220000Y-40655000D01*
X101620000Y-41925000D02*
X104220000Y-41925000D01*
X99020000Y-39325000D02*
X101620000Y-39325000D01*
D11*
%TO.C,SW1*%
X72710000Y-25340000D02*
X87310000Y-25340000D01*
X72710000Y-30540000D02*
X87310000Y-30540000D01*
D13*
%TO.C,Y1*%
X60160000Y-33035000D02*
X66560000Y-33035000D01*
X60160000Y-38085000D02*
X66560000Y-38085000D01*
X60160000Y-33035000D02*
G75*
G03*
X60160000Y-38085000I0J-2525000D01*
G01*
X66560000Y-38085000D02*
G75*
G03*
X66560000Y-33035000I0J2525000D01*
G01*
%TO.C,R2*%
X69620000Y-108585000D02*
X68670000Y-108585000D01*
X68670000Y-107665000D02*
X64830000Y-107665000D01*
X63880000Y-108585000D02*
X64830000Y-108585000D01*
X64830000Y-109505000D02*
X68670000Y-109505000D01*
X68670000Y-109505000D02*
X68670000Y-107665000D01*
X64830000Y-107665000D02*
X64830000Y-109505000D01*
%TO.C,U4*%
X45650000Y-40540000D02*
X45650000Y-45840000D01*
X81330000Y-42190000D02*
X81330000Y-40540000D01*
X81330000Y-40540000D02*
X45650000Y-40540000D01*
X81330000Y-45840000D02*
X81330000Y-44190000D01*
X45650000Y-45840000D02*
X81330000Y-45840000D01*
X81330000Y-42190000D02*
G75*
G03*
X81330000Y-44190000I0J-1000000D01*
G01*
%TO.C,C2*%
X64900000Y-51855000D02*
X64900000Y-52521000D01*
X59560000Y-51855000D02*
X59560000Y-52521000D01*
X59560000Y-52521000D02*
X64900000Y-52521000D01*
X64900000Y-49079000D02*
X64900000Y-49745000D01*
X59560000Y-49079000D02*
X59560000Y-49745000D01*
X59560000Y-49079000D02*
X64900000Y-49079000D01*
%TO.C,C7*%
X59560000Y-56300000D02*
X59560000Y-56966000D01*
X59560000Y-53524000D02*
X59560000Y-54190000D01*
X64900000Y-53524000D02*
X64900000Y-54190000D01*
X59560000Y-53524000D02*
X64900000Y-53524000D01*
X64900000Y-56300000D02*
X64900000Y-56966000D01*
X59560000Y-56966000D02*
X64900000Y-56966000D01*
%TO.C,R4*%
X40544000Y-40655000D02*
X40544000Y-36815000D01*
X39624000Y-41605000D02*
X39624000Y-40655000D01*
X38704000Y-36815000D02*
X38704000Y-40655000D01*
X39624000Y-35865000D02*
X39624000Y-36815000D01*
X40544000Y-36815000D02*
X38704000Y-36815000D01*
X38704000Y-40655000D02*
X40544000Y-40655000D01*
%TO.C,R7*%
X79898000Y-96688400D02*
X79898000Y-94848400D01*
X76058000Y-94848400D02*
X76058000Y-96688400D01*
X76058000Y-96688400D02*
X79898000Y-96688400D01*
X75108000Y-95768400D02*
X76058000Y-95768400D01*
X79898000Y-94848400D02*
X76058000Y-94848400D01*
X80848000Y-95768400D02*
X79898000Y-95768400D01*
%TO.C,SW4*%
X63250000Y-101485000D02*
X63250000Y-102985000D01*
X70250000Y-102985000D02*
X70250000Y-101485000D01*
X69000000Y-98985000D02*
X64500000Y-98985000D01*
X64500000Y-105485000D02*
X69000000Y-105485000D01*
%TO.C,J1*%
X103995000Y-75660000D02*
X103995000Y-69290000D01*
X99385000Y-78760000D02*
X101185000Y-78760000D01*
X104345000Y-77730000D02*
X104345000Y-75870000D01*
X104345000Y-75870000D02*
X104145000Y-75660000D01*
X104345000Y-66470000D02*
X104145000Y-66270000D01*
X104345000Y-66470000D02*
X104345000Y-68780000D01*
X88075000Y-78760000D02*
X91685000Y-78760000D01*
X88075000Y-64790000D02*
X102085000Y-64790000D01*
X93385000Y-78760000D02*
X98085000Y-78760000D01*
X104345000Y-68780000D02*
X103995000Y-69290000D01*
X104145000Y-66270000D02*
X104145000Y-66010000D01*
X88075000Y-66710000D02*
X88075000Y-64790000D01*
X103995000Y-75660000D02*
X104145000Y-75660000D01*
X104345000Y-77730000D02*
X104145000Y-77930000D01*
X88075000Y-78310000D02*
X88075000Y-78760000D01*
%TO.C,SW5*%
X64500000Y-92785000D02*
X69000000Y-92785000D01*
X70250000Y-90285000D02*
X70250000Y-88785000D01*
X69000000Y-86285000D02*
X64500000Y-86285000D01*
X63250000Y-88785000D02*
X63250000Y-90285000D01*
%TO.C,R5*%
X37496000Y-36815000D02*
X35656000Y-36815000D01*
X35656000Y-36815000D02*
X35656000Y-40655000D01*
X37496000Y-40655000D02*
X37496000Y-36815000D01*
X35656000Y-40655000D02*
X37496000Y-40655000D01*
X36576000Y-35865000D02*
X36576000Y-36815000D01*
X36576000Y-41605000D02*
X36576000Y-40655000D01*
%TO.C,DS1*%
X103636000Y-61580000D02*
X103636000Y-25300000D01*
X31196280Y-50439320D02*
X31196280Y-36440000D01*
X99496000Y-30940000D02*
X99496000Y-55940000D01*
X26496000Y-55940000D02*
X26496000Y-30940000D01*
X29996000Y-24940000D02*
X32996000Y-24940000D01*
X31696000Y-35940000D02*
X95196000Y-35940000D01*
X26496000Y-30940000D02*
X99496000Y-30940000D01*
X95196660Y-50940000D02*
X31696000Y-50940000D01*
X23356000Y-61580000D02*
X103636000Y-61580000D01*
X23366000Y-25300000D02*
X24156000Y-25300000D01*
X103636000Y-25300000D02*
X24156000Y-25300000D01*
X95696000Y-36440000D02*
X95696000Y-50440000D01*
X99496000Y-55940000D02*
X26496000Y-55940000D01*
X23356000Y-25300000D02*
X23356000Y-61580000D01*
X95196660Y-50939740D02*
G75*
G03*
X95697040Y-50439320I-60J500440D01*
G01*
X31196280Y-50439320D02*
G75*
G03*
X31696660Y-50939700I500380J0D01*
G01*
X95696000Y-36440000D02*
G75*
G03*
X95196000Y-35940000I-500000J0D01*
G01*
X31696660Y-35938460D02*
G75*
G03*
X31196280Y-36438840I0J-500380D01*
G01*
%TO.C,R9*%
X76058000Y-80446800D02*
X76058000Y-82286800D01*
X75108000Y-81366800D02*
X76058000Y-81366800D01*
X79898000Y-82286800D02*
X79898000Y-80446800D01*
X76058000Y-82286800D02*
X79898000Y-82286800D01*
X80848000Y-81366800D02*
X79898000Y-81366800D01*
X79898000Y-80446800D02*
X76058000Y-80446800D01*
%TO.C,C5*%
X55970000Y-37281000D02*
X55970000Y-36615000D01*
X55970000Y-37281000D02*
X50630000Y-37281000D01*
X50630000Y-37281000D02*
X50630000Y-36615000D01*
X50630000Y-34505000D02*
X50630000Y-33839000D01*
X55970000Y-33839000D02*
X50630000Y-33839000D01*
X55970000Y-34505000D02*
X55970000Y-33839000D01*
D11*
%TO.C,SW2*%
X22165000Y-51496000D02*
X22165000Y-36896000D01*
X27365000Y-51496000D02*
X27365000Y-36896000D01*
D13*
%TO.C,U1*%
X61630000Y-67130000D02*
X71870000Y-67130000D01*
X61630000Y-65620000D02*
X61630000Y-70261000D01*
X68601000Y-65620000D02*
X68601000Y-67130000D01*
X64900000Y-65620000D02*
X64900000Y-67130000D01*
X61630000Y-65620000D02*
X71870000Y-65620000D01*
X61630000Y-70261000D02*
X71870000Y-70261000D01*
X71870000Y-65620000D02*
X71870000Y-70261000D01*
%TO.C,C3*%
X50168000Y-51777000D02*
X50168000Y-51111000D01*
X44828000Y-54553000D02*
X44828000Y-53887000D01*
X50168000Y-51111000D02*
X44828000Y-51111000D01*
X44828000Y-51777000D02*
X44828000Y-51111000D01*
X50168000Y-54553000D02*
X50168000Y-53887000D01*
X50168000Y-54553000D02*
X44828000Y-54553000D01*
%TO.C,C1*%
X37208000Y-54553000D02*
X42548000Y-54553000D01*
X37208000Y-53887000D02*
X37208000Y-54553000D01*
X42548000Y-53887000D02*
X42548000Y-54553000D01*
X42548000Y-51111000D02*
X42548000Y-51777000D01*
X37208000Y-51111000D02*
X37208000Y-51777000D01*
X37208000Y-51111000D02*
X42548000Y-51111000D01*
%TO.C,U5*%
X81863000Y-85907600D02*
X74123000Y-85907600D01*
X74123000Y-91207600D02*
X81863000Y-91207600D01*
X74123000Y-89557600D02*
X74123000Y-91207600D01*
X81863000Y-91207600D02*
X81863000Y-85907600D01*
X74123000Y-85907600D02*
X74123000Y-87557600D01*
X74123000Y-89557600D02*
G75*
G03*
X74123000Y-87557600I0J1000000D01*
G01*
%TD*%
M02*
