%TF.GenerationSoftware,KiCad,Pcbnew,(6.0.7)*%
%TF.CreationDate,2022-08-13T21:24:58+02:00*%
%TF.ProjectId,SD_interrupter,53445f69-6e74-4657-9272-75707465722e,rev?*%
%TF.SameCoordinates,Original*%
%TF.FileFunction,Legend,Bot*%
%TF.FilePolarity,Positive*%
%FSLAX46Y46*%
G04 Gerber Fmt 4.6, Leading zero omitted, Abs format (unit mm)*
G04 Created by KiCad (PCBNEW (6.0.7)) date 2022-08-13 21:24:58*
%MOMM*%
%LPD*%
G01*
G04 APERTURE LIST*
%ADD10C,0.150000*%
G04 APERTURE END LIST*
D10*
X81564857Y-78668571D02*
X81898190Y-78668571D01*
X81898190Y-79192380D02*
X81898190Y-78192380D01*
X81422000Y-78192380D01*
X80898190Y-79192380D02*
X80993428Y-79144761D01*
X81041047Y-79097142D01*
X81088666Y-79001904D01*
X81088666Y-78716190D01*
X81041047Y-78620952D01*
X80993428Y-78573333D01*
X80898190Y-78525714D01*
X80755333Y-78525714D01*
X80660095Y-78573333D01*
X80612476Y-78620952D01*
X80564857Y-78716190D01*
X80564857Y-79001904D01*
X80612476Y-79097142D01*
X80660095Y-79144761D01*
X80755333Y-79192380D01*
X80898190Y-79192380D01*
X80136285Y-79192380D02*
X80136285Y-78525714D01*
X80136285Y-78716190D02*
X80088666Y-78620952D01*
X80041047Y-78573333D01*
X79945809Y-78525714D01*
X79850571Y-78525714D01*
X78755333Y-78525714D02*
X78755333Y-79525714D01*
X78755333Y-78573333D02*
X78660095Y-78525714D01*
X78469619Y-78525714D01*
X78374380Y-78573333D01*
X78326761Y-78620952D01*
X78279142Y-78716190D01*
X78279142Y-79001904D01*
X78326761Y-79097142D01*
X78374380Y-79144761D01*
X78469619Y-79192380D01*
X78660095Y-79192380D01*
X78755333Y-79144761D01*
X77850571Y-79192380D02*
X77850571Y-78525714D01*
X77850571Y-78716190D02*
X77802952Y-78620952D01*
X77755333Y-78573333D01*
X77660095Y-78525714D01*
X77564857Y-78525714D01*
X77231523Y-79192380D02*
X77231523Y-78525714D01*
X77231523Y-78192380D02*
X77279142Y-78240000D01*
X77231523Y-78287619D01*
X77183904Y-78240000D01*
X77231523Y-78192380D01*
X77231523Y-78287619D01*
X76850571Y-78525714D02*
X76612476Y-79192380D01*
X76374380Y-78525714D01*
X75564857Y-79192380D02*
X75564857Y-78668571D01*
X75612476Y-78573333D01*
X75707714Y-78525714D01*
X75898190Y-78525714D01*
X75993428Y-78573333D01*
X75564857Y-79144761D02*
X75660095Y-79192380D01*
X75898190Y-79192380D01*
X75993428Y-79144761D01*
X76041047Y-79049523D01*
X76041047Y-78954285D01*
X75993428Y-78859047D01*
X75898190Y-78811428D01*
X75660095Y-78811428D01*
X75564857Y-78763809D01*
X75231523Y-78525714D02*
X74850571Y-78525714D01*
X75088666Y-78192380D02*
X75088666Y-79049523D01*
X75041047Y-79144761D01*
X74945809Y-79192380D01*
X74850571Y-79192380D01*
X74136285Y-79144761D02*
X74231523Y-79192380D01*
X74422000Y-79192380D01*
X74517238Y-79144761D01*
X74564857Y-79049523D01*
X74564857Y-78668571D01*
X74517238Y-78573333D01*
X74422000Y-78525714D01*
X74231523Y-78525714D01*
X74136285Y-78573333D01*
X74088666Y-78668571D01*
X74088666Y-78763809D01*
X74564857Y-78859047D01*
X72469619Y-78525714D02*
X72469619Y-79192380D01*
X72898190Y-78525714D02*
X72898190Y-79049523D01*
X72850571Y-79144761D01*
X72755333Y-79192380D01*
X72612476Y-79192380D01*
X72517238Y-79144761D01*
X72469619Y-79097142D01*
X72041047Y-79144761D02*
X71945809Y-79192380D01*
X71755333Y-79192380D01*
X71660095Y-79144761D01*
X71612476Y-79049523D01*
X71612476Y-79001904D01*
X71660095Y-78906666D01*
X71755333Y-78859047D01*
X71898190Y-78859047D01*
X71993428Y-78811428D01*
X72041047Y-78716190D01*
X72041047Y-78668571D01*
X71993428Y-78573333D01*
X71898190Y-78525714D01*
X71755333Y-78525714D01*
X71660095Y-78573333D01*
X70802952Y-79144761D02*
X70898190Y-79192380D01*
X71088666Y-79192380D01*
X71183904Y-79144761D01*
X71231523Y-79049523D01*
X71231523Y-78668571D01*
X71183904Y-78573333D01*
X71088666Y-78525714D01*
X70898190Y-78525714D01*
X70802952Y-78573333D01*
X70755333Y-78668571D01*
X70755333Y-78763809D01*
X71231523Y-78859047D01*
X69422000Y-79192380D02*
X69517238Y-79144761D01*
X69564857Y-79097142D01*
X69612476Y-79001904D01*
X69612476Y-78716190D01*
X69564857Y-78620952D01*
X69517238Y-78573333D01*
X69422000Y-78525714D01*
X69279142Y-78525714D01*
X69183904Y-78573333D01*
X69136285Y-78620952D01*
X69088666Y-78716190D01*
X69088666Y-79001904D01*
X69136285Y-79097142D01*
X69183904Y-79144761D01*
X69279142Y-79192380D01*
X69422000Y-79192380D01*
X68660095Y-78525714D02*
X68660095Y-79192380D01*
X68660095Y-78620952D02*
X68612476Y-78573333D01*
X68517238Y-78525714D01*
X68374380Y-78525714D01*
X68279142Y-78573333D01*
X68231523Y-78668571D01*
X68231523Y-79192380D01*
X67612476Y-79192380D02*
X67707714Y-79144761D01*
X67755333Y-79049523D01*
X67755333Y-78192380D01*
X67326761Y-78525714D02*
X67088666Y-79192380D01*
X66850571Y-78525714D02*
X67088666Y-79192380D01*
X67183904Y-79430476D01*
X67231523Y-79478095D01*
X67326761Y-79525714D01*
X81898190Y-77414380D02*
X81898190Y-76414380D01*
X81517237Y-76414380D01*
X81421999Y-76462000D01*
X81374380Y-76509619D01*
X81326761Y-76604857D01*
X81326761Y-76747714D01*
X81374380Y-76842952D01*
X81421999Y-76890571D01*
X81517237Y-76938190D01*
X81898190Y-76938190D01*
X80326761Y-77319142D02*
X80374380Y-77366761D01*
X80517237Y-77414380D01*
X80612475Y-77414380D01*
X80755332Y-77366761D01*
X80850571Y-77271523D01*
X80898190Y-77176285D01*
X80945809Y-76985809D01*
X80945809Y-76842952D01*
X80898190Y-76652476D01*
X80850571Y-76557238D01*
X80755332Y-76462000D01*
X80612475Y-76414380D01*
X80517237Y-76414380D01*
X80374380Y-76462000D01*
X80326761Y-76509619D01*
X79564856Y-76890571D02*
X79421999Y-76938190D01*
X79374380Y-76985809D01*
X79326761Y-77081047D01*
X79326761Y-77223904D01*
X79374380Y-77319142D01*
X79421999Y-77366761D01*
X79517237Y-77414380D01*
X79898190Y-77414380D01*
X79898190Y-76414380D01*
X79564856Y-76414380D01*
X79469618Y-76462000D01*
X79421999Y-76509619D01*
X79374380Y-76604857D01*
X79374380Y-76700095D01*
X79421999Y-76795333D01*
X79469618Y-76842952D01*
X79564856Y-76890571D01*
X79898190Y-76890571D01*
X78898190Y-77319142D02*
X78850571Y-77366761D01*
X78898190Y-77414380D01*
X78945809Y-77366761D01*
X78898190Y-77319142D01*
X78898190Y-77414380D01*
X78898190Y-76795333D02*
X78850571Y-76842952D01*
X78898190Y-76890571D01*
X78945809Y-76842952D01*
X78898190Y-76795333D01*
X78898190Y-76890571D01*
X77088666Y-77319142D02*
X77136285Y-77366761D01*
X77279142Y-77414380D01*
X77374380Y-77414380D01*
X77517237Y-77366761D01*
X77612475Y-77271523D01*
X77660094Y-77176285D01*
X77707713Y-76985809D01*
X77707713Y-76842952D01*
X77660094Y-76652476D01*
X77612475Y-76557238D01*
X77517237Y-76462000D01*
X77374380Y-76414380D01*
X77279142Y-76414380D01*
X77136285Y-76462000D01*
X77088666Y-76509619D01*
X76231523Y-77414380D02*
X76231523Y-76890571D01*
X76279142Y-76795333D01*
X76374380Y-76747714D01*
X76564856Y-76747714D01*
X76660094Y-76795333D01*
X76231523Y-77366761D02*
X76326761Y-77414380D01*
X76564856Y-77414380D01*
X76660094Y-77366761D01*
X76707713Y-77271523D01*
X76707713Y-77176285D01*
X76660094Y-77081047D01*
X76564856Y-77033428D01*
X76326761Y-77033428D01*
X76231523Y-76985809D01*
X75755332Y-77414380D02*
X75755332Y-76747714D01*
X75755332Y-76938190D02*
X75707713Y-76842952D01*
X75660094Y-76795333D01*
X75564856Y-76747714D01*
X75469618Y-76747714D01*
X74707713Y-77414380D02*
X74707713Y-76890571D01*
X74755332Y-76795333D01*
X74850571Y-76747714D01*
X75041047Y-76747714D01*
X75136285Y-76795333D01*
X74707713Y-77366761D02*
X74802952Y-77414380D01*
X75041047Y-77414380D01*
X75136285Y-77366761D01*
X75183904Y-77271523D01*
X75183904Y-77176285D01*
X75136285Y-77081047D01*
X75041047Y-77033428D01*
X74802952Y-77033428D01*
X74707713Y-76985809D01*
X74374380Y-76747714D02*
X73993428Y-76747714D01*
X74231523Y-77414380D02*
X74231523Y-76557238D01*
X74183904Y-76462000D01*
X74088666Y-76414380D01*
X73993428Y-76414380D01*
X73802952Y-76747714D02*
X73421999Y-76747714D01*
X73660094Y-77414380D02*
X73660094Y-76557238D01*
X73612475Y-76462000D01*
X73517237Y-76414380D01*
X73421999Y-76414380D01*
X72660094Y-77414380D02*
X72660094Y-76890571D01*
X72707713Y-76795333D01*
X72802952Y-76747714D01*
X72993428Y-76747714D01*
X73088666Y-76795333D01*
X72660094Y-77366761D02*
X72755332Y-77414380D01*
X72993428Y-77414380D01*
X73088666Y-77366761D01*
X73136285Y-77271523D01*
X73136285Y-77176285D01*
X73088666Y-77081047D01*
X72993428Y-77033428D01*
X72755332Y-77033428D01*
X72660094Y-76985809D01*
X71469618Y-76366761D02*
X72326761Y-77652476D01*
X70564856Y-77414380D02*
X70898190Y-76938190D01*
X71136285Y-77414380D02*
X71136285Y-76414380D01*
X70755332Y-76414380D01*
X70660094Y-76462000D01*
X70612475Y-76509619D01*
X70564856Y-76604857D01*
X70564856Y-76747714D01*
X70612475Y-76842952D01*
X70660094Y-76890571D01*
X70755332Y-76938190D01*
X71136285Y-76938190D01*
X69707713Y-77414380D02*
X69707713Y-76890571D01*
X69755332Y-76795333D01*
X69850571Y-76747714D01*
X70041047Y-76747714D01*
X70136285Y-76795333D01*
X69707713Y-77366761D02*
X69802952Y-77414380D01*
X70041047Y-77414380D01*
X70136285Y-77366761D01*
X70183904Y-77271523D01*
X70183904Y-77176285D01*
X70136285Y-77081047D01*
X70041047Y-77033428D01*
X69802952Y-77033428D01*
X69707713Y-76985809D01*
X69374380Y-76747714D02*
X68993428Y-76747714D01*
X69231523Y-77414380D02*
X69231523Y-76557238D01*
X69183904Y-76462000D01*
X69088666Y-76414380D01*
X68993428Y-76414380D01*
X68231523Y-77414380D02*
X68231523Y-76890571D01*
X68279142Y-76795333D01*
X68374380Y-76747714D01*
X68564856Y-76747714D01*
X68660094Y-76795333D01*
X68231523Y-77366761D02*
X68326761Y-77414380D01*
X68564856Y-77414380D01*
X68660094Y-77366761D01*
X68707713Y-77271523D01*
X68707713Y-77176285D01*
X68660094Y-77081047D01*
X68564856Y-77033428D01*
X68326761Y-77033428D01*
X68231523Y-76985809D01*
X67612475Y-77414380D02*
X67707713Y-77366761D01*
X67755332Y-77271523D01*
X67755332Y-76414380D01*
X66469618Y-77414380D02*
X66469618Y-76414380D01*
X65898190Y-77414380D01*
X65898190Y-76414380D01*
X64993428Y-77414380D02*
X64993428Y-76890571D01*
X65041047Y-76795333D01*
X65136285Y-76747714D01*
X65326761Y-76747714D01*
X65421999Y-76795333D01*
X64993428Y-77366761D02*
X65088666Y-77414380D01*
X65326761Y-77414380D01*
X65421999Y-77366761D01*
X65469618Y-77271523D01*
X65469618Y-77176285D01*
X65421999Y-77081047D01*
X65326761Y-77033428D01*
X65088666Y-77033428D01*
X64993428Y-76985809D01*
X64517237Y-76747714D02*
X64517237Y-77604857D01*
X64564856Y-77700095D01*
X64660094Y-77747714D01*
X64707713Y-77747714D01*
X64517237Y-76414380D02*
X64564856Y-76462000D01*
X64517237Y-76509619D01*
X64469618Y-76462000D01*
X64517237Y-76414380D01*
X64517237Y-76509619D01*
X63612475Y-77414380D02*
X63612475Y-76414380D01*
X63612475Y-77366761D02*
X63707713Y-77414380D01*
X63898190Y-77414380D01*
X63993428Y-77366761D01*
X64041047Y-77319142D01*
X64088666Y-77223904D01*
X64088666Y-76938190D01*
X64041047Y-76842952D01*
X63993428Y-76795333D01*
X63898190Y-76747714D01*
X63707713Y-76747714D01*
X63612475Y-76795333D01*
X62707713Y-77414380D02*
X62707713Y-76890571D01*
X62755332Y-76795333D01*
X62850571Y-76747714D01*
X63041047Y-76747714D01*
X63136285Y-76795333D01*
X62707713Y-77366761D02*
X62802952Y-77414380D01*
X63041047Y-77414380D01*
X63136285Y-77366761D01*
X63183904Y-77271523D01*
X63183904Y-77176285D01*
X63136285Y-77081047D01*
X63041047Y-77033428D01*
X62802952Y-77033428D01*
X62707713Y-76985809D01*
X81747523Y-75334761D02*
X81604666Y-75382380D01*
X81366571Y-75382380D01*
X81271333Y-75334761D01*
X81223714Y-75287142D01*
X81176095Y-75191904D01*
X81176095Y-75096666D01*
X81223714Y-75001428D01*
X81271333Y-74953809D01*
X81366571Y-74906190D01*
X81557047Y-74858571D01*
X81652285Y-74810952D01*
X81699904Y-74763333D01*
X81747523Y-74668095D01*
X81747523Y-74572857D01*
X81699904Y-74477619D01*
X81652285Y-74430000D01*
X81557047Y-74382380D01*
X81318952Y-74382380D01*
X81176095Y-74430000D01*
X80604666Y-75382380D02*
X80699904Y-75334761D01*
X80747523Y-75287142D01*
X80795142Y-75191904D01*
X80795142Y-74906190D01*
X80747523Y-74810952D01*
X80699904Y-74763333D01*
X80604666Y-74715714D01*
X80461809Y-74715714D01*
X80366571Y-74763333D01*
X80318952Y-74810952D01*
X80271333Y-74906190D01*
X80271333Y-75191904D01*
X80318952Y-75287142D01*
X80366571Y-75334761D01*
X80461809Y-75382380D01*
X80604666Y-75382380D01*
X79414190Y-74715714D02*
X79414190Y-75382380D01*
X79842761Y-74715714D02*
X79842761Y-75239523D01*
X79795142Y-75334761D01*
X79699904Y-75382380D01*
X79557047Y-75382380D01*
X79461809Y-75334761D01*
X79414190Y-75287142D01*
X78938000Y-75382380D02*
X78938000Y-74715714D01*
X78938000Y-74906190D02*
X78890380Y-74810952D01*
X78842761Y-74763333D01*
X78747523Y-74715714D01*
X78652285Y-74715714D01*
X77890380Y-75334761D02*
X77985619Y-75382380D01*
X78176095Y-75382380D01*
X78271333Y-75334761D01*
X78318952Y-75287142D01*
X78366571Y-75191904D01*
X78366571Y-74906190D01*
X78318952Y-74810952D01*
X78271333Y-74763333D01*
X78176095Y-74715714D01*
X77985619Y-74715714D01*
X77890380Y-74763333D01*
X77080857Y-75334761D02*
X77176095Y-75382380D01*
X77366571Y-75382380D01*
X77461809Y-75334761D01*
X77509428Y-75239523D01*
X77509428Y-74858571D01*
X77461809Y-74763333D01*
X77366571Y-74715714D01*
X77176095Y-74715714D01*
X77080857Y-74763333D01*
X77033238Y-74858571D01*
X77033238Y-74953809D01*
X77509428Y-75049047D01*
X76604666Y-75287142D02*
X76557047Y-75334761D01*
X76604666Y-75382380D01*
X76652285Y-75334761D01*
X76604666Y-75287142D01*
X76604666Y-75382380D01*
X76604666Y-74763333D02*
X76557047Y-74810952D01*
X76604666Y-74858571D01*
X76652285Y-74810952D01*
X76604666Y-74763333D01*
X76604666Y-74858571D01*
X75176095Y-74382380D02*
X74985619Y-74382380D01*
X74890380Y-74430000D01*
X74795142Y-74525238D01*
X74747523Y-74715714D01*
X74747523Y-75049047D01*
X74795142Y-75239523D01*
X74890380Y-75334761D01*
X74985619Y-75382380D01*
X75176095Y-75382380D01*
X75271333Y-75334761D01*
X75366571Y-75239523D01*
X75414190Y-75049047D01*
X75414190Y-74715714D01*
X75366571Y-74525238D01*
X75271333Y-74430000D01*
X75176095Y-74382380D01*
X74318952Y-74715714D02*
X74318952Y-75382380D01*
X74318952Y-74810952D02*
X74271333Y-74763333D01*
X74176095Y-74715714D01*
X74033238Y-74715714D01*
X73938000Y-74763333D01*
X73890380Y-74858571D01*
X73890380Y-75382380D01*
X73033238Y-75334761D02*
X73128476Y-75382380D01*
X73318952Y-75382380D01*
X73414190Y-75334761D01*
X73461809Y-75239523D01*
X73461809Y-74858571D01*
X73414190Y-74763333D01*
X73318952Y-74715714D01*
X73128476Y-74715714D01*
X73033238Y-74763333D01*
X72985619Y-74858571D01*
X72985619Y-74953809D01*
X73461809Y-75049047D01*
X72699904Y-74382380D02*
X72128476Y-74382380D01*
X72414190Y-75382380D02*
X72414190Y-74382380D01*
X71414190Y-75334761D02*
X71509428Y-75382380D01*
X71699904Y-75382380D01*
X71795142Y-75334761D01*
X71842761Y-75239523D01*
X71842761Y-74858571D01*
X71795142Y-74763333D01*
X71699904Y-74715714D01*
X71509428Y-74715714D01*
X71414190Y-74763333D01*
X71366571Y-74858571D01*
X71366571Y-74953809D01*
X71842761Y-75049047D01*
X70985619Y-75334761D02*
X70890380Y-75382380D01*
X70699904Y-75382380D01*
X70604666Y-75334761D01*
X70557047Y-75239523D01*
X70557047Y-75191904D01*
X70604666Y-75096666D01*
X70699904Y-75049047D01*
X70842761Y-75049047D01*
X70938000Y-75001428D01*
X70985619Y-74906190D01*
X70985619Y-74858571D01*
X70938000Y-74763333D01*
X70842761Y-74715714D01*
X70699904Y-74715714D01*
X70604666Y-74763333D01*
X69985619Y-75382380D02*
X70080857Y-75334761D01*
X70128476Y-75239523D01*
X70128476Y-74382380D01*
X69176095Y-75382380D02*
X69176095Y-74858571D01*
X69223714Y-74763333D01*
X69318952Y-74715714D01*
X69509428Y-74715714D01*
X69604666Y-74763333D01*
X69176095Y-75334761D02*
X69271333Y-75382380D01*
X69509428Y-75382380D01*
X69604666Y-75334761D01*
X69652285Y-75239523D01*
X69652285Y-75144285D01*
X69604666Y-75049047D01*
X69509428Y-75001428D01*
X69271333Y-75001428D01*
X69176095Y-74953809D01*
M02*
