M48
; DRILL file {KiCad (6.0.7)} date sob, 13 sie 2022, 21:25:02
; FORMAT={-:-/ absolute / inch / decimal}
; #@! TF.CreationDate,2022-08-13T21:25:02+02:00
; #@! TF.GenerationSoftware,Kicad,Pcbnew,(6.0.7)
; #@! TF.FileFunction,Plated,1,2,PTH
FMAT,2
INCH
; #@! TA.AperFunction,Plated,PTH,ViaDrill
T1C0.0157
; #@! TA.AperFunction,Plated,PTH,ComponentDrill
T2C0.0236
; #@! TA.AperFunction,Plated,PTH,ComponentDrill
T3C0.0276
; #@! TA.AperFunction,Plated,PTH,ComponentDrill
T4C0.0315
; #@! TA.AperFunction,Plated,PTH,ComponentDrill
T5C0.0394
; #@! TA.AperFunction,Plated,PTH,ComponentDrill
T6C0.0433
; #@! TA.AperFunction,Plated,PTH,ComponentDrill
T7C0.0472
; #@! TA.AperFunction,Plated,PTH,ComponentDrill
T8C0.0551
; #@! TA.AperFunction,Plated,PTH,ComponentDrill
T9C0.0630
; #@! TA.AperFunction,Plated,PTH,ComponentDrill
T10C0.0984
%
G90
G05
T1
X1.36Y-1.95
X1.56Y-2.39
X1.56Y-2.88
X1.59Y-2.22
X1.63Y-2.22
X1.66Y-2.25
X1.66Y-2.88
X1.6765Y-2.31
X1.69Y-1.95
X1.86Y-1.77
X1.98Y-2.08
X2.96Y-2.04
X3.22Y-1.8
X3.437Y-1.7099
T2
X1.23Y-1.56
X1.2891Y-1.56
X1.4216Y-1.56
X1.4806Y-1.56
X1.6116Y-1.56
X1.6706Y-1.56
T3
X1.23Y-1.23
X1.23Y-1.35
X1.53Y-1.23
X1.53Y-1.35
X2.18Y-2.54
X2.18Y-2.84
X2.68Y-2.53
X2.68Y-2.83
X2.8965Y-1.98
X2.8965Y-2.28
X3.11Y-1.33
X3.11Y-1.42
X3.17Y-2.53
X3.17Y-2.83
X3.41Y-1.33
X3.41Y-1.42
X3.4635Y-1.98
X3.4635Y-2.28
X3.67Y-1.15
X3.7431Y-1.98
X3.7431Y-2.28
X3.7723Y-1.15
T4
X1.8494Y-1.9804
X1.8494Y-2.2804
X1.8496Y-1.5504
X1.8496Y-1.8504
X1.9494Y-1.9804
X1.9494Y-2.2804
X1.9496Y-1.5504
X1.9496Y-1.8504
X2.0Y-1.38
X2.0494Y-1.9804
X2.0494Y-2.2804
X2.0496Y-1.5504
X2.0496Y-1.8504
X2.1494Y-1.9804
X2.1494Y-2.2804
X2.1496Y-1.5504
X2.1496Y-1.8504
X2.1969Y-1.38
X2.2494Y-1.9804
X2.2494Y-2.2804
X2.2496Y-1.5504
X2.2496Y-1.8504
X2.3494Y-1.9804
X2.3494Y-2.2804
X2.3496Y-1.5504
X2.3496Y-1.8504
X2.4035Y-1.38
X2.4494Y-1.9804
X2.4494Y-2.2804
X2.4496Y-1.5504
X2.4496Y-1.8504
X2.5494Y-1.9804
X2.5494Y-2.2804
X2.5496Y-1.5504
X2.5496Y-1.8504
X2.5957Y-1.38
X2.6496Y-1.5504
X2.6496Y-1.8504
X2.72Y-2.03
X2.72Y-2.2269
X2.7496Y-1.5504
X2.7496Y-1.8504
X2.8Y-1.38
X2.8496Y-1.5504
X2.8496Y-1.8504
X2.9496Y-1.5504
X2.9496Y-1.8504
X2.9969Y-1.38
X3.0296Y-2.0294
X3.0296Y-2.1294
X3.0296Y-2.2294
X3.0496Y-1.5504
X3.0496Y-1.8504
X3.1496Y-1.5504
X3.1496Y-1.8504
X3.3Y-1.6116
X3.3Y-1.8084
X3.3296Y-2.0294
X3.3296Y-2.1294
X3.3296Y-2.2294
X3.6033Y-1.98
X3.6033Y-2.28
T5
X0.975Y-1.6219
X0.975Y-1.74
X0.975Y-1.8581
X1.199Y-2.1992
X1.199Y-2.2992
X3.0319Y-1.13
X3.15Y-1.13
X3.2681Y-1.13
X3.55Y-1.61
X3.55Y-1.71
X3.55Y-1.81
X3.65Y-1.61
X3.65Y-1.71
X3.65Y-1.81
X4.01Y-1.5819
X4.01Y-1.7
X4.01Y-1.8181
T6
X1.8414Y-2.562
X1.8414Y-2.818
X2.0186Y-2.562
X2.0186Y-2.818
X2.3414Y-2.552
X2.3414Y-2.808
X2.5186Y-2.552
X2.5186Y-2.808
X2.8314Y-2.552
X2.8314Y-2.808
X3.0086Y-2.552
X3.0086Y-2.808
T7
X1.24Y-1.1
X1.34Y-1.1
X1.44Y-1.1
X1.54Y-1.1
X1.64Y-1.1
X1.74Y-1.1
X1.84Y-1.1
X1.94Y-1.1
X2.04Y-1.1
X2.14Y-1.1
X2.24Y-1.1
X2.34Y-1.1
X2.44Y-1.1
X2.54Y-1.1
X2.64Y-1.1
X2.74Y-1.1
T8
X3.4247Y-3.0719
X3.5231Y-2.9735
X3.5231Y-3.4656
X3.72Y-3.0719
X3.9169Y-2.9735
X3.9169Y-3.4656
X4.0153Y-3.0719
T9
X0.975Y-1.5018
X0.975Y-1.9782
X2.9118Y-1.13
X3.3882Y-1.13
X4.01Y-1.4618
X4.01Y-1.9382
T10
X1.0235Y-1.1
X1.0235Y-2.3205
X3.9762Y-2.3205
X3.9762Y-1.1
T5
G00X1.18Y-2.6129
M15
G01X1.18Y-2.6917
M16
G05
G00X1.2587Y-2.8373
M15
G01X1.3375Y-2.8373
M16
G05
G00X1.4162Y-2.6129
M15
G01X1.4162Y-2.6917
M16
G05
T0
M30
