%TF.GenerationSoftware,KiCad,Pcbnew,(6.0.7)*%
%TF.CreationDate,2022-08-13T21:24:58+02:00*%
%TF.ProjectId,SD_interrupter,53445f69-6e74-4657-9272-75707465722e,rev?*%
%TF.SameCoordinates,Original*%
%TF.FileFunction,Legend,Top*%
%TF.FilePolarity,Positive*%
%FSLAX46Y46*%
G04 Gerber Fmt 4.6, Leading zero omitted, Abs format (unit mm)*
G04 Created by KiCad (PCBNEW (6.0.7)) date 2022-08-13 21:24:58*
%MOMM*%
%LPD*%
G01*
G04 APERTURE LIST*
%ADD10C,0.300000*%
%ADD11C,0.125000*%
%ADD12C,0.150000*%
%ADD13C,0.120000*%
%ADD14C,0.304800*%
%ADD15C,0.127000*%
G04 APERTURE END LIST*
D10*
X33376142Y-55110000D02*
X33233285Y-55038571D01*
X33019000Y-55038571D01*
X32804714Y-55110000D01*
X32661857Y-55252857D01*
X32590428Y-55395714D01*
X32519000Y-55681428D01*
X32519000Y-55895714D01*
X32590428Y-56181428D01*
X32661857Y-56324285D01*
X32804714Y-56467142D01*
X33019000Y-56538571D01*
X33161857Y-56538571D01*
X33376142Y-56467142D01*
X33447571Y-56395714D01*
X33447571Y-55895714D01*
X33161857Y-55895714D01*
X34090428Y-56538571D02*
X34090428Y-55038571D01*
X34947571Y-56538571D01*
X34947571Y-55038571D01*
X35661857Y-56538571D02*
X35661857Y-55038571D01*
X36019000Y-55038571D01*
X36233285Y-55110000D01*
X36376142Y-55252857D01*
X36447571Y-55395714D01*
X36519000Y-55681428D01*
X36519000Y-55895714D01*
X36447571Y-56181428D01*
X36376142Y-56324285D01*
X36233285Y-56467142D01*
X36019000Y-56538571D01*
X35661857Y-56538571D01*
X32519000Y-57832571D02*
X33019000Y-59332571D01*
X33519000Y-57832571D01*
X34876142Y-59189714D02*
X34804714Y-59261142D01*
X34590428Y-59332571D01*
X34447571Y-59332571D01*
X34233285Y-59261142D01*
X34090428Y-59118285D01*
X34019000Y-58975428D01*
X33947571Y-58689714D01*
X33947571Y-58475428D01*
X34019000Y-58189714D01*
X34090428Y-58046857D01*
X34233285Y-57904000D01*
X34447571Y-57832571D01*
X34590428Y-57832571D01*
X34804714Y-57904000D01*
X34876142Y-57975428D01*
X36376142Y-59189714D02*
X36304714Y-59261142D01*
X36090428Y-59332571D01*
X35947571Y-59332571D01*
X35733285Y-59261142D01*
X35590428Y-59118285D01*
X35519000Y-58975428D01*
X35447571Y-58689714D01*
X35447571Y-58475428D01*
X35519000Y-58189714D01*
X35590428Y-58046857D01*
X35733285Y-57904000D01*
X35947571Y-57832571D01*
X36090428Y-57832571D01*
X36304714Y-57904000D01*
X36376142Y-57975428D01*
D11*
X26114952Y-87082380D02*
X26114952Y-87796666D01*
X26067333Y-87939523D01*
X25972095Y-88034761D01*
X25829238Y-88082380D01*
X25734000Y-88082380D01*
X27067333Y-88082380D02*
X26591142Y-88082380D01*
X26591142Y-87082380D01*
X27972095Y-87987142D02*
X27924476Y-88034761D01*
X27781619Y-88082380D01*
X27686380Y-88082380D01*
X27543523Y-88034761D01*
X27448285Y-87939523D01*
X27400666Y-87844285D01*
X27353047Y-87653809D01*
X27353047Y-87510952D01*
X27400666Y-87320476D01*
X27448285Y-87225238D01*
X27543523Y-87130000D01*
X27686380Y-87082380D01*
X27781619Y-87082380D01*
X27924476Y-87130000D01*
X27972095Y-87177619D01*
X28686380Y-87082380D02*
X28686380Y-87796666D01*
X28638761Y-87939523D01*
X28543523Y-88034761D01*
X28400666Y-88082380D01*
X28305428Y-88082380D01*
X29638761Y-88082380D02*
X29162571Y-88082380D01*
X29162571Y-87082380D01*
X30543523Y-87987142D02*
X30495904Y-88034761D01*
X30353047Y-88082380D01*
X30257809Y-88082380D01*
X30114952Y-88034761D01*
X30019714Y-87939523D01*
X29972095Y-87844285D01*
X29924476Y-87653809D01*
X29924476Y-87510952D01*
X29972095Y-87320476D01*
X30019714Y-87225238D01*
X30114952Y-87130000D01*
X30257809Y-87082380D01*
X30353047Y-87082380D01*
X30495904Y-87130000D01*
X30543523Y-87177619D01*
X31257809Y-87082380D02*
X31257809Y-87796666D01*
X31210190Y-87939523D01*
X31114952Y-88034761D01*
X30972095Y-88082380D01*
X30876857Y-88082380D01*
X32210190Y-88082380D02*
X31734000Y-88082380D01*
X31734000Y-87082380D01*
X33114952Y-87987142D02*
X33067333Y-88034761D01*
X32924476Y-88082380D01*
X32829238Y-88082380D01*
X32686380Y-88034761D01*
X32591142Y-87939523D01*
X32543523Y-87844285D01*
X32495904Y-87653809D01*
X32495904Y-87510952D01*
X32543523Y-87320476D01*
X32591142Y-87225238D01*
X32686380Y-87130000D01*
X32829238Y-87082380D01*
X32924476Y-87082380D01*
X33067333Y-87130000D01*
X33114952Y-87177619D01*
X33829238Y-87082380D02*
X33829238Y-87796666D01*
X33781619Y-87939523D01*
X33686380Y-88034761D01*
X33543523Y-88082380D01*
X33448285Y-88082380D01*
X34781619Y-88082380D02*
X34305428Y-88082380D01*
X34305428Y-87082380D01*
X35686380Y-87987142D02*
X35638761Y-88034761D01*
X35495904Y-88082380D01*
X35400666Y-88082380D01*
X35257809Y-88034761D01*
X35162571Y-87939523D01*
X35114952Y-87844285D01*
X35067333Y-87653809D01*
X35067333Y-87510952D01*
X35114952Y-87320476D01*
X35162571Y-87225238D01*
X35257809Y-87130000D01*
X35400666Y-87082380D01*
X35495904Y-87082380D01*
X35638761Y-87130000D01*
X35686380Y-87177619D01*
D12*
%TO.C,R6*%
X95526780Y-54268666D02*
X95050590Y-54602000D01*
X95526780Y-54840095D02*
X94526780Y-54840095D01*
X94526780Y-54459142D01*
X94574400Y-54363904D01*
X94622019Y-54316285D01*
X94717257Y-54268666D01*
X94860114Y-54268666D01*
X94955352Y-54316285D01*
X95002971Y-54363904D01*
X95050590Y-54459142D01*
X95050590Y-54840095D01*
X94526780Y-53411523D02*
X94526780Y-53602000D01*
X94574400Y-53697238D01*
X94622019Y-53744857D01*
X94764876Y-53840095D01*
X94955352Y-53887714D01*
X95336304Y-53887714D01*
X95431542Y-53840095D01*
X95479161Y-53792476D01*
X95526780Y-53697238D01*
X95526780Y-53506761D01*
X95479161Y-53411523D01*
X95431542Y-53363904D01*
X95336304Y-53316285D01*
X95098209Y-53316285D01*
X95002971Y-53363904D01*
X94955352Y-53411523D01*
X94907733Y-53506761D01*
X94907733Y-53697238D01*
X94955352Y-53792476D01*
X95002971Y-53840095D01*
X95098209Y-53887714D01*
%TO.C,U2*%
X63191380Y-54873904D02*
X64000904Y-54873904D01*
X64096142Y-54826285D01*
X64143761Y-54778666D01*
X64191380Y-54683428D01*
X64191380Y-54492952D01*
X64143761Y-54397714D01*
X64096142Y-54350095D01*
X64000904Y-54302476D01*
X63191380Y-54302476D01*
X63286619Y-53873904D02*
X63239000Y-53826285D01*
X63191380Y-53731047D01*
X63191380Y-53492952D01*
X63239000Y-53397714D01*
X63286619Y-53350095D01*
X63381857Y-53302476D01*
X63477095Y-53302476D01*
X63619952Y-53350095D01*
X64191380Y-53921523D01*
X64191380Y-53302476D01*
D10*
%TO.C,J3*%
X93988000Y-84776571D02*
X93988000Y-85848000D01*
X93916571Y-86062285D01*
X93773714Y-86205142D01*
X93559428Y-86276571D01*
X93416571Y-86276571D01*
X94559428Y-84776571D02*
X95488000Y-84776571D01*
X94988000Y-85348000D01*
X95202285Y-85348000D01*
X95345142Y-85419428D01*
X95416571Y-85490857D01*
X95488000Y-85633714D01*
X95488000Y-85990857D01*
X95416571Y-86133714D01*
X95345142Y-86205142D01*
X95202285Y-86276571D01*
X94773714Y-86276571D01*
X94630857Y-86205142D01*
X94559428Y-86133714D01*
X91309428Y-83736571D02*
X91309428Y-82236571D01*
X91666571Y-82236571D01*
X91880857Y-82308000D01*
X92023714Y-82450857D01*
X92095142Y-82593714D01*
X92166571Y-82879428D01*
X92166571Y-83093714D01*
X92095142Y-83379428D01*
X92023714Y-83522285D01*
X91880857Y-83665142D01*
X91666571Y-83736571D01*
X91309428Y-83736571D01*
X92809428Y-83736571D02*
X92809428Y-82236571D01*
X93523714Y-83736571D02*
X93523714Y-82236571D01*
X94380857Y-83736571D01*
X94380857Y-82236571D01*
X95095142Y-83165142D02*
X96238000Y-83165142D01*
X97666571Y-82236571D02*
X96952285Y-82236571D01*
X96880857Y-82950857D01*
X96952285Y-82879428D01*
X97095142Y-82808000D01*
X97452285Y-82808000D01*
X97595142Y-82879428D01*
X97666571Y-82950857D01*
X97738000Y-83093714D01*
X97738000Y-83450857D01*
X97666571Y-83593714D01*
X97595142Y-83665142D01*
X97452285Y-83736571D01*
X97095142Y-83736571D01*
X96952285Y-83665142D01*
X96880857Y-83593714D01*
D12*
%TO.C,SW3*%
X49226761Y-69659333D02*
X49274380Y-69516476D01*
X49274380Y-69278380D01*
X49226761Y-69183142D01*
X49179142Y-69135523D01*
X49083904Y-69087904D01*
X48988666Y-69087904D01*
X48893428Y-69135523D01*
X48845809Y-69183142D01*
X48798190Y-69278380D01*
X48750571Y-69468857D01*
X48702952Y-69564095D01*
X48655333Y-69611714D01*
X48560095Y-69659333D01*
X48464857Y-69659333D01*
X48369619Y-69611714D01*
X48322000Y-69564095D01*
X48274380Y-69468857D01*
X48274380Y-69230761D01*
X48322000Y-69087904D01*
X48274380Y-68754571D02*
X49274380Y-68516476D01*
X48560095Y-68326000D01*
X49274380Y-68135523D01*
X48274380Y-67897428D01*
X48274380Y-67611714D02*
X48274380Y-66992666D01*
X48655333Y-67326000D01*
X48655333Y-67183142D01*
X48702952Y-67087904D01*
X48750571Y-67040285D01*
X48845809Y-66992666D01*
X49083904Y-66992666D01*
X49179142Y-67040285D01*
X49226761Y-67087904D01*
X49274380Y-67183142D01*
X49274380Y-67468857D01*
X49226761Y-67564095D01*
X49179142Y-67611714D01*
%TO.C,R3*%
X80970380Y-68238666D02*
X80494190Y-68572000D01*
X80970380Y-68810095D02*
X79970380Y-68810095D01*
X79970380Y-68429142D01*
X80018000Y-68333904D01*
X80065619Y-68286285D01*
X80160857Y-68238666D01*
X80303714Y-68238666D01*
X80398952Y-68286285D01*
X80446571Y-68333904D01*
X80494190Y-68429142D01*
X80494190Y-68810095D01*
X79970380Y-67905333D02*
X79970380Y-67286285D01*
X80351333Y-67619619D01*
X80351333Y-67476761D01*
X80398952Y-67381523D01*
X80446571Y-67333904D01*
X80541809Y-67286285D01*
X80779904Y-67286285D01*
X80875142Y-67333904D01*
X80922761Y-67381523D01*
X80970380Y-67476761D01*
X80970380Y-67762476D01*
X80922761Y-67857714D01*
X80875142Y-67905333D01*
%TO.C,U6*%
X93917699Y-31318803D02*
X93917699Y-31956224D01*
X93955195Y-32031215D01*
X93992690Y-32068710D01*
X94067681Y-32106205D01*
X94217662Y-32106205D01*
X94292653Y-32068710D01*
X94330148Y-32031215D01*
X94367643Y-31956224D01*
X94367643Y-31318803D01*
X95080055Y-31318803D02*
X94930073Y-31318803D01*
X94855083Y-31356299D01*
X94817587Y-31393794D01*
X94742597Y-31506280D01*
X94705101Y-31656261D01*
X94705101Y-31956224D01*
X94742597Y-32031215D01*
X94780092Y-32068710D01*
X94855083Y-32106205D01*
X95005064Y-32106205D01*
X95080055Y-32068710D01*
X95117550Y-32031215D01*
X95155045Y-31956224D01*
X95155045Y-31768747D01*
X95117550Y-31693757D01*
X95080055Y-31656261D01*
X95005064Y-31618766D01*
X94855083Y-31618766D01*
X94780092Y-31656261D01*
X94742597Y-31693757D01*
X94705101Y-31768747D01*
%TO.C,REF\u002A\u002A*%
X42862666Y-94178380D02*
X42529333Y-93702190D01*
X42291238Y-94178380D02*
X42291238Y-93178380D01*
X42672190Y-93178380D01*
X42767428Y-93226000D01*
X42815047Y-93273619D01*
X42862666Y-93368857D01*
X42862666Y-93511714D01*
X42815047Y-93606952D01*
X42767428Y-93654571D01*
X42672190Y-93702190D01*
X42291238Y-93702190D01*
X43291238Y-93654571D02*
X43624571Y-93654571D01*
X43767428Y-94178380D02*
X43291238Y-94178380D01*
X43291238Y-93178380D01*
X43767428Y-93178380D01*
X44529333Y-93654571D02*
X44196000Y-93654571D01*
X44196000Y-94178380D02*
X44196000Y-93178380D01*
X44672190Y-93178380D01*
X45196000Y-93178380D02*
X45196000Y-93416476D01*
X44957904Y-93321238D02*
X45196000Y-93416476D01*
X45434095Y-93321238D01*
X45053142Y-93606952D02*
X45196000Y-93416476D01*
X45338857Y-93606952D01*
X45957904Y-93178380D02*
X45957904Y-93416476D01*
X45719809Y-93321238D02*
X45957904Y-93416476D01*
X46196000Y-93321238D01*
X45815047Y-93606952D02*
X45957904Y-93416476D01*
X46100761Y-93606952D01*
%TO.C,U3*%
X39878095Y-48982380D02*
X39878095Y-49791904D01*
X39925714Y-49887142D01*
X39973333Y-49934761D01*
X40068571Y-49982380D01*
X40259047Y-49982380D01*
X40354285Y-49934761D01*
X40401904Y-49887142D01*
X40449523Y-49791904D01*
X40449523Y-48982380D01*
X40830476Y-48982380D02*
X41449523Y-48982380D01*
X41116190Y-49363333D01*
X41259047Y-49363333D01*
X41354285Y-49410952D01*
X41401904Y-49458571D01*
X41449523Y-49553809D01*
X41449523Y-49791904D01*
X41401904Y-49887142D01*
X41354285Y-49934761D01*
X41259047Y-49982380D01*
X40973333Y-49982380D01*
X40878095Y-49934761D01*
X40830476Y-49887142D01*
%TO.C,J5*%
X26844666Y-55332380D02*
X26844666Y-56046666D01*
X26797047Y-56189523D01*
X26701809Y-56284761D01*
X26558952Y-56332380D01*
X26463714Y-56332380D01*
X27797047Y-55332380D02*
X27320857Y-55332380D01*
X27273238Y-55808571D01*
X27320857Y-55760952D01*
X27416095Y-55713333D01*
X27654190Y-55713333D01*
X27749428Y-55760952D01*
X27797047Y-55808571D01*
X27844666Y-55903809D01*
X27844666Y-56141904D01*
X27797047Y-56237142D01*
X27749428Y-56284761D01*
X27654190Y-56332380D01*
X27416095Y-56332380D01*
X27320857Y-56284761D01*
X27273238Y-56237142D01*
%TO.C,D1*%
X91975980Y-54840095D02*
X90975980Y-54840095D01*
X90975980Y-54602000D01*
X91023600Y-54459142D01*
X91118838Y-54363904D01*
X91214076Y-54316285D01*
X91404552Y-54268666D01*
X91547409Y-54268666D01*
X91737885Y-54316285D01*
X91833123Y-54363904D01*
X91928361Y-54459142D01*
X91975980Y-54602000D01*
X91975980Y-54840095D01*
X91975980Y-53316285D02*
X91975980Y-53887714D01*
X91975980Y-53602000D02*
X90975980Y-53602000D01*
X91118838Y-53697238D01*
X91214076Y-53792476D01*
X91261695Y-53887714D01*
%TO.C,R10*%
X82161142Y-34234380D02*
X81827809Y-33758190D01*
X81589714Y-34234380D02*
X81589714Y-33234380D01*
X81970666Y-33234380D01*
X82065904Y-33282000D01*
X82113523Y-33329619D01*
X82161142Y-33424857D01*
X82161142Y-33567714D01*
X82113523Y-33662952D01*
X82065904Y-33710571D01*
X81970666Y-33758190D01*
X81589714Y-33758190D01*
X83113523Y-34234380D02*
X82542095Y-34234380D01*
X82827809Y-34234380D02*
X82827809Y-33234380D01*
X82732571Y-33377238D01*
X82637333Y-33472476D01*
X82542095Y-33520095D01*
X83732571Y-33234380D02*
X83827809Y-33234380D01*
X83923047Y-33282000D01*
X83970666Y-33329619D01*
X84018285Y-33424857D01*
X84065904Y-33615333D01*
X84065904Y-33853428D01*
X84018285Y-34043904D01*
X83970666Y-34139142D01*
X83923047Y-34186761D01*
X83827809Y-34234380D01*
X83732571Y-34234380D01*
X83637333Y-34186761D01*
X83589714Y-34139142D01*
X83542095Y-34043904D01*
X83494476Y-33853428D01*
X83494476Y-33615333D01*
X83542095Y-33424857D01*
X83589714Y-33329619D01*
X83637333Y-33282000D01*
X83732571Y-33234380D01*
%TO.C,C4*%
X73453333Y-35409142D02*
X73405714Y-35456761D01*
X73262857Y-35504380D01*
X73167619Y-35504380D01*
X73024761Y-35456761D01*
X72929523Y-35361523D01*
X72881904Y-35266285D01*
X72834285Y-35075809D01*
X72834285Y-34932952D01*
X72881904Y-34742476D01*
X72929523Y-34647238D01*
X73024761Y-34552000D01*
X73167619Y-34504380D01*
X73262857Y-34504380D01*
X73405714Y-34552000D01*
X73453333Y-34599619D01*
X74310476Y-34837714D02*
X74310476Y-35504380D01*
X74072380Y-34456761D02*
X73834285Y-35171047D01*
X74453333Y-35171047D01*
%TO.C,C10*%
X69445142Y-54704857D02*
X69492761Y-54752476D01*
X69540380Y-54895333D01*
X69540380Y-54990571D01*
X69492761Y-55133428D01*
X69397523Y-55228666D01*
X69302285Y-55276285D01*
X69111809Y-55323904D01*
X68968952Y-55323904D01*
X68778476Y-55276285D01*
X68683238Y-55228666D01*
X68588000Y-55133428D01*
X68540380Y-54990571D01*
X68540380Y-54895333D01*
X68588000Y-54752476D01*
X68635619Y-54704857D01*
X69540380Y-53752476D02*
X69540380Y-54323904D01*
X69540380Y-54038190D02*
X68540380Y-54038190D01*
X68683238Y-54133428D01*
X68778476Y-54228666D01*
X68826095Y-54323904D01*
X68540380Y-53133428D02*
X68540380Y-53038190D01*
X68588000Y-52942952D01*
X68635619Y-52895333D01*
X68730857Y-52847714D01*
X68921333Y-52800095D01*
X69159428Y-52800095D01*
X69349904Y-52847714D01*
X69445142Y-52895333D01*
X69492761Y-52942952D01*
X69540380Y-53038190D01*
X69540380Y-53133428D01*
X69492761Y-53228666D01*
X69445142Y-53276285D01*
X69349904Y-53323904D01*
X69159428Y-53371523D01*
X68921333Y-53371523D01*
X68730857Y-53323904D01*
X68635619Y-53276285D01*
X68588000Y-53228666D01*
X68540380Y-53133428D01*
%TO.C,R8*%
X82637334Y-36520380D02*
X82304001Y-36044190D01*
X82065905Y-36520380D02*
X82065905Y-35520380D01*
X82446858Y-35520380D01*
X82542096Y-35568000D01*
X82589715Y-35615619D01*
X82637334Y-35710857D01*
X82637334Y-35853714D01*
X82589715Y-35948952D01*
X82542096Y-35996571D01*
X82446858Y-36044190D01*
X82065905Y-36044190D01*
X83208762Y-35948952D02*
X83113524Y-35901333D01*
X83065905Y-35853714D01*
X83018286Y-35758476D01*
X83018286Y-35710857D01*
X83065905Y-35615619D01*
X83113524Y-35568000D01*
X83208762Y-35520380D01*
X83399239Y-35520380D01*
X83494477Y-35568000D01*
X83542096Y-35615619D01*
X83589715Y-35710857D01*
X83589715Y-35758476D01*
X83542096Y-35853714D01*
X83494477Y-35901333D01*
X83399239Y-35948952D01*
X83208762Y-35948952D01*
X83113524Y-35996571D01*
X83065905Y-36044190D01*
X83018286Y-36139428D01*
X83018286Y-36329904D01*
X83065905Y-36425142D01*
X83113524Y-36472761D01*
X83208762Y-36520380D01*
X83399239Y-36520380D01*
X83494477Y-36472761D01*
X83542096Y-36425142D01*
X83589715Y-36329904D01*
X83589715Y-36139428D01*
X83542096Y-36044190D01*
X83494477Y-35996571D01*
X83399239Y-35948952D01*
%TO.C,J4*%
X27188666Y-72570880D02*
X27188666Y-73285166D01*
X27141047Y-73428023D01*
X27045809Y-73523261D01*
X26902952Y-73570880D01*
X26807714Y-73570880D01*
X28093428Y-72904214D02*
X28093428Y-73570880D01*
X27855333Y-72523261D02*
X27617238Y-73237547D01*
X28236285Y-73237547D01*
%TO.C,R1*%
X55824380Y-68492666D02*
X55348190Y-68826000D01*
X55824380Y-69064095D02*
X54824380Y-69064095D01*
X54824380Y-68683142D01*
X54872000Y-68587904D01*
X54919619Y-68540285D01*
X55014857Y-68492666D01*
X55157714Y-68492666D01*
X55252952Y-68540285D01*
X55300571Y-68587904D01*
X55348190Y-68683142D01*
X55348190Y-69064095D01*
X55824380Y-67540285D02*
X55824380Y-68111714D01*
X55824380Y-67826000D02*
X54824380Y-67826000D01*
X54967238Y-67921238D01*
X55062476Y-68016476D01*
X55110095Y-68111714D01*
%TO.C,J2*%
X87022666Y-43379380D02*
X87022666Y-44093666D01*
X86975047Y-44236523D01*
X86879809Y-44331761D01*
X86736952Y-44379380D01*
X86641714Y-44379380D01*
X87451238Y-43474619D02*
X87498857Y-43427000D01*
X87594095Y-43379380D01*
X87832190Y-43379380D01*
X87927428Y-43427000D01*
X87975047Y-43474619D01*
X88022666Y-43569857D01*
X88022666Y-43665095D01*
X87975047Y-43807952D01*
X87403619Y-44379380D01*
X88022666Y-44379380D01*
%TO.C,SW1*%
X87820666Y-29106761D02*
X87963523Y-29154380D01*
X88201619Y-29154380D01*
X88296857Y-29106761D01*
X88344476Y-29059142D01*
X88392095Y-28963904D01*
X88392095Y-28868666D01*
X88344476Y-28773428D01*
X88296857Y-28725809D01*
X88201619Y-28678190D01*
X88011142Y-28630571D01*
X87915904Y-28582952D01*
X87868285Y-28535333D01*
X87820666Y-28440095D01*
X87820666Y-28344857D01*
X87868285Y-28249619D01*
X87915904Y-28202000D01*
X88011142Y-28154380D01*
X88249238Y-28154380D01*
X88392095Y-28202000D01*
X88725428Y-28154380D02*
X88963523Y-29154380D01*
X89154000Y-28440095D01*
X89344476Y-29154380D01*
X89582571Y-28154380D01*
X90487333Y-29154380D02*
X89915904Y-29154380D01*
X90201619Y-29154380D02*
X90201619Y-28154380D01*
X90106380Y-28297238D01*
X90011142Y-28392476D01*
X89915904Y-28440095D01*
%TO.C,Y1*%
X63103809Y-35290690D02*
X63103809Y-35766880D01*
X62770476Y-34766880D02*
X63103809Y-35290690D01*
X63437142Y-34766880D01*
X64294285Y-35766880D02*
X63722857Y-35766880D01*
X64008571Y-35766880D02*
X64008571Y-34766880D01*
X63913333Y-34909738D01*
X63818095Y-35004976D01*
X63722857Y-35052595D01*
%TO.C,R2*%
X68524380Y-68238666D02*
X68048190Y-68572000D01*
X68524380Y-68810095D02*
X67524380Y-68810095D01*
X67524380Y-68429142D01*
X67572000Y-68333904D01*
X67619619Y-68286285D01*
X67714857Y-68238666D01*
X67857714Y-68238666D01*
X67952952Y-68286285D01*
X68000571Y-68333904D01*
X68048190Y-68429142D01*
X68048190Y-68810095D01*
X67619619Y-67857714D02*
X67572000Y-67810095D01*
X67524380Y-67714857D01*
X67524380Y-67476761D01*
X67572000Y-67381523D01*
X67619619Y-67333904D01*
X67714857Y-67286285D01*
X67810095Y-67286285D01*
X67952952Y-67333904D01*
X68524380Y-67905333D01*
X68524380Y-67286285D01*
%TO.C,U4*%
X78700380Y-43951904D02*
X79509904Y-43951904D01*
X79605142Y-43904285D01*
X79652761Y-43856666D01*
X79700380Y-43761428D01*
X79700380Y-43570952D01*
X79652761Y-43475714D01*
X79605142Y-43428095D01*
X79509904Y-43380476D01*
X78700380Y-43380476D01*
X79033714Y-42475714D02*
X79700380Y-42475714D01*
X78652761Y-42713809D02*
X79367047Y-42951904D01*
X79367047Y-42332857D01*
%TO.C,C2*%
X38441333Y-37187142D02*
X38393714Y-37234761D01*
X38250857Y-37282380D01*
X38155619Y-37282380D01*
X38012761Y-37234761D01*
X37917523Y-37139523D01*
X37869904Y-37044285D01*
X37822285Y-36853809D01*
X37822285Y-36710952D01*
X37869904Y-36520476D01*
X37917523Y-36425238D01*
X38012761Y-36330000D01*
X38155619Y-36282380D01*
X38250857Y-36282380D01*
X38393714Y-36330000D01*
X38441333Y-36377619D01*
X38822285Y-36377619D02*
X38869904Y-36330000D01*
X38965142Y-36282380D01*
X39203238Y-36282380D01*
X39298476Y-36330000D01*
X39346095Y-36377619D01*
X39393714Y-36472857D01*
X39393714Y-36568095D01*
X39346095Y-36710952D01*
X38774666Y-37282380D01*
X39393714Y-37282380D01*
%TO.C,C7*%
X84177142Y-43600666D02*
X84224761Y-43648285D01*
X84272380Y-43791142D01*
X84272380Y-43886380D01*
X84224761Y-44029238D01*
X84129523Y-44124476D01*
X84034285Y-44172095D01*
X83843809Y-44219714D01*
X83700952Y-44219714D01*
X83510476Y-44172095D01*
X83415238Y-44124476D01*
X83320000Y-44029238D01*
X83272380Y-43886380D01*
X83272380Y-43791142D01*
X83320000Y-43648285D01*
X83367619Y-43600666D01*
X83272380Y-43267333D02*
X83272380Y-42600666D01*
X84272380Y-43029238D01*
%TO.C,R4*%
X34885333Y-34742380D02*
X34552000Y-34266190D01*
X34313904Y-34742380D02*
X34313904Y-33742380D01*
X34694857Y-33742380D01*
X34790095Y-33790000D01*
X34837714Y-33837619D01*
X34885333Y-33932857D01*
X34885333Y-34075714D01*
X34837714Y-34170952D01*
X34790095Y-34218571D01*
X34694857Y-34266190D01*
X34313904Y-34266190D01*
X35742476Y-34075714D02*
X35742476Y-34742380D01*
X35504380Y-33694761D02*
X35266285Y-34409047D01*
X35885333Y-34409047D01*
%TO.C,REF\u002A\u002A*%
X79438666Y-93924380D02*
X79105333Y-93448190D01*
X78867238Y-93924380D02*
X78867238Y-92924380D01*
X79248190Y-92924380D01*
X79343428Y-92972000D01*
X79391047Y-93019619D01*
X79438666Y-93114857D01*
X79438666Y-93257714D01*
X79391047Y-93352952D01*
X79343428Y-93400571D01*
X79248190Y-93448190D01*
X78867238Y-93448190D01*
X79867238Y-93400571D02*
X80200571Y-93400571D01*
X80343428Y-93924380D02*
X79867238Y-93924380D01*
X79867238Y-92924380D01*
X80343428Y-92924380D01*
X81105333Y-93400571D02*
X80772000Y-93400571D01*
X80772000Y-93924380D02*
X80772000Y-92924380D01*
X81248190Y-92924380D01*
X81772000Y-92924380D02*
X81772000Y-93162476D01*
X81533904Y-93067238D02*
X81772000Y-93162476D01*
X82010095Y-93067238D01*
X81629142Y-93352952D02*
X81772000Y-93162476D01*
X81914857Y-93352952D01*
X82533904Y-92924380D02*
X82533904Y-93162476D01*
X82295809Y-93067238D02*
X82533904Y-93162476D01*
X82772000Y-93067238D01*
X82391047Y-93352952D02*
X82533904Y-93162476D01*
X82676761Y-93352952D01*
%TO.C,R7*%
X88425180Y-54268666D02*
X87948990Y-54602000D01*
X88425180Y-54840095D02*
X87425180Y-54840095D01*
X87425180Y-54459142D01*
X87472800Y-54363904D01*
X87520419Y-54316285D01*
X87615657Y-54268666D01*
X87758514Y-54268666D01*
X87853752Y-54316285D01*
X87901371Y-54363904D01*
X87948990Y-54459142D01*
X87948990Y-54840095D01*
X87425180Y-53935333D02*
X87425180Y-53268666D01*
X88425180Y-53697238D01*
%TO.C,SW6*%
X98448761Y-44513333D02*
X98496380Y-44370476D01*
X98496380Y-44132380D01*
X98448761Y-44037142D01*
X98401142Y-43989523D01*
X98305904Y-43941904D01*
X98210666Y-43941904D01*
X98115428Y-43989523D01*
X98067809Y-44037142D01*
X98020190Y-44132380D01*
X97972571Y-44322857D01*
X97924952Y-44418095D01*
X97877333Y-44465714D01*
X97782095Y-44513333D01*
X97686857Y-44513333D01*
X97591619Y-44465714D01*
X97544000Y-44418095D01*
X97496380Y-44322857D01*
X97496380Y-44084761D01*
X97544000Y-43941904D01*
X97496380Y-43608571D02*
X98496380Y-43370476D01*
X97782095Y-43180000D01*
X98496380Y-42989523D01*
X97496380Y-42751428D01*
X97496380Y-41941904D02*
X97496380Y-42132380D01*
X97544000Y-42227619D01*
X97591619Y-42275238D01*
X97734476Y-42370476D01*
X97924952Y-42418095D01*
X98305904Y-42418095D01*
X98401142Y-42370476D01*
X98448761Y-42322857D01*
X98496380Y-42227619D01*
X98496380Y-42037142D01*
X98448761Y-41941904D01*
X98401142Y-41894285D01*
X98305904Y-41846666D01*
X98067809Y-41846666D01*
X97972571Y-41894285D01*
X97924952Y-41941904D01*
X97877333Y-42037142D01*
X97877333Y-42227619D01*
X97924952Y-42322857D01*
X97972571Y-42370476D01*
X98067809Y-42418095D01*
%TO.C,SW4*%
X62126761Y-69405333D02*
X62174380Y-69262476D01*
X62174380Y-69024380D01*
X62126761Y-68929142D01*
X62079142Y-68881523D01*
X61983904Y-68833904D01*
X61888666Y-68833904D01*
X61793428Y-68881523D01*
X61745809Y-68929142D01*
X61698190Y-69024380D01*
X61650571Y-69214857D01*
X61602952Y-69310095D01*
X61555333Y-69357714D01*
X61460095Y-69405333D01*
X61364857Y-69405333D01*
X61269619Y-69357714D01*
X61222000Y-69310095D01*
X61174380Y-69214857D01*
X61174380Y-68976761D01*
X61222000Y-68833904D01*
X61174380Y-68500571D02*
X62174380Y-68262476D01*
X61460095Y-68072000D01*
X62174380Y-67881523D01*
X61174380Y-67643428D01*
X61507714Y-66833904D02*
X62174380Y-66833904D01*
X61126761Y-67072000D02*
X61841047Y-67310095D01*
X61841047Y-66691047D01*
%TO.C,J1*%
X30515380Y-83167333D02*
X31229666Y-83167333D01*
X31372523Y-83214952D01*
X31467761Y-83310190D01*
X31515380Y-83453047D01*
X31515380Y-83548285D01*
X31515380Y-82167333D02*
X31515380Y-82738761D01*
X31515380Y-82453047D02*
X30515380Y-82453047D01*
X30658238Y-82548285D01*
X30753476Y-82643523D01*
X30801095Y-82738761D01*
%TO.C,SW5*%
X74472761Y-69405333D02*
X74520380Y-69262476D01*
X74520380Y-69024380D01*
X74472761Y-68929142D01*
X74425142Y-68881523D01*
X74329904Y-68833904D01*
X74234666Y-68833904D01*
X74139428Y-68881523D01*
X74091809Y-68929142D01*
X74044190Y-69024380D01*
X73996571Y-69214857D01*
X73948952Y-69310095D01*
X73901333Y-69357714D01*
X73806095Y-69405333D01*
X73710857Y-69405333D01*
X73615619Y-69357714D01*
X73568000Y-69310095D01*
X73520380Y-69214857D01*
X73520380Y-68976761D01*
X73568000Y-68833904D01*
X73520380Y-68500571D02*
X74520380Y-68262476D01*
X73806095Y-68072000D01*
X74520380Y-67881523D01*
X73520380Y-67643428D01*
X73520380Y-66786285D02*
X73520380Y-67262476D01*
X73996571Y-67310095D01*
X73948952Y-67262476D01*
X73901333Y-67167238D01*
X73901333Y-66929142D01*
X73948952Y-66833904D01*
X73996571Y-66786285D01*
X74091809Y-66738666D01*
X74329904Y-66738666D01*
X74425142Y-66786285D01*
X74472761Y-66833904D01*
X74520380Y-66929142D01*
X74520380Y-67167238D01*
X74472761Y-67262476D01*
X74425142Y-67310095D01*
%TO.C,R5*%
X34885333Y-31694380D02*
X34552000Y-31218190D01*
X34313904Y-31694380D02*
X34313904Y-30694380D01*
X34694857Y-30694380D01*
X34790095Y-30742000D01*
X34837714Y-30789619D01*
X34885333Y-30884857D01*
X34885333Y-31027714D01*
X34837714Y-31122952D01*
X34790095Y-31170571D01*
X34694857Y-31218190D01*
X34313904Y-31218190D01*
X35790095Y-30694380D02*
X35313904Y-30694380D01*
X35266285Y-31170571D01*
X35313904Y-31122952D01*
X35409142Y-31075333D01*
X35647238Y-31075333D01*
X35742476Y-31122952D01*
X35790095Y-31170571D01*
X35837714Y-31265809D01*
X35837714Y-31503904D01*
X35790095Y-31599142D01*
X35742476Y-31646761D01*
X35647238Y-31694380D01*
X35409142Y-31694380D01*
X35313904Y-31646761D01*
X35266285Y-31599142D01*
%TO.C,DS1*%
X24461714Y-24582380D02*
X24461714Y-23582380D01*
X24699809Y-23582380D01*
X24842666Y-23630000D01*
X24937904Y-23725238D01*
X24985523Y-23820476D01*
X25033142Y-24010952D01*
X25033142Y-24153809D01*
X24985523Y-24344285D01*
X24937904Y-24439523D01*
X24842666Y-24534761D01*
X24699809Y-24582380D01*
X24461714Y-24582380D01*
X25414095Y-24534761D02*
X25556952Y-24582380D01*
X25795047Y-24582380D01*
X25890285Y-24534761D01*
X25937904Y-24487142D01*
X25985523Y-24391904D01*
X25985523Y-24296666D01*
X25937904Y-24201428D01*
X25890285Y-24153809D01*
X25795047Y-24106190D01*
X25604571Y-24058571D01*
X25509333Y-24010952D01*
X25461714Y-23963333D01*
X25414095Y-23868095D01*
X25414095Y-23772857D01*
X25461714Y-23677619D01*
X25509333Y-23630000D01*
X25604571Y-23582380D01*
X25842666Y-23582380D01*
X25985523Y-23630000D01*
X26937904Y-24582380D02*
X26366476Y-24582380D01*
X26652190Y-24582380D02*
X26652190Y-23582380D01*
X26556952Y-23725238D01*
X26461714Y-23820476D01*
X26366476Y-23868095D01*
%TO.C,R9*%
X74023580Y-54268666D02*
X73547390Y-54602000D01*
X74023580Y-54840095D02*
X73023580Y-54840095D01*
X73023580Y-54459142D01*
X73071200Y-54363904D01*
X73118819Y-54316285D01*
X73214057Y-54268666D01*
X73356914Y-54268666D01*
X73452152Y-54316285D01*
X73499771Y-54363904D01*
X73547390Y-54459142D01*
X73547390Y-54840095D01*
X74023580Y-53792476D02*
X74023580Y-53602000D01*
X73975961Y-53506761D01*
X73928342Y-53459142D01*
X73785485Y-53363904D01*
X73595009Y-53316285D01*
X73214057Y-53316285D01*
X73118819Y-53363904D01*
X73071200Y-53411523D01*
X73023580Y-53506761D01*
X73023580Y-53697238D01*
X73071200Y-53792476D01*
X73118819Y-53840095D01*
X73214057Y-53887714D01*
X73452152Y-53887714D01*
X73547390Y-53840095D01*
X73595009Y-53792476D01*
X73642628Y-53697238D01*
X73642628Y-53506761D01*
X73595009Y-53411523D01*
X73547390Y-53363904D01*
X73452152Y-53316285D01*
%TO.C,C5*%
X53133333Y-35409142D02*
X53085714Y-35456761D01*
X52942857Y-35504380D01*
X52847619Y-35504380D01*
X52704761Y-35456761D01*
X52609523Y-35361523D01*
X52561904Y-35266285D01*
X52514285Y-35075809D01*
X52514285Y-34932952D01*
X52561904Y-34742476D01*
X52609523Y-34647238D01*
X52704761Y-34552000D01*
X52847619Y-34504380D01*
X52942857Y-34504380D01*
X53085714Y-34552000D01*
X53133333Y-34599619D01*
X54038095Y-34504380D02*
X53561904Y-34504380D01*
X53514285Y-34980571D01*
X53561904Y-34932952D01*
X53657142Y-34885333D01*
X53895238Y-34885333D01*
X53990476Y-34932952D01*
X54038095Y-34980571D01*
X54085714Y-35075809D01*
X54085714Y-35313904D01*
X54038095Y-35409142D01*
X53990476Y-35456761D01*
X53895238Y-35504380D01*
X53657142Y-35504380D01*
X53561904Y-35456761D01*
X53514285Y-35409142D01*
%TO.C,SW2*%
X28725761Y-45529333D02*
X28773380Y-45386476D01*
X28773380Y-45148380D01*
X28725761Y-45053142D01*
X28678142Y-45005523D01*
X28582904Y-44957904D01*
X28487666Y-44957904D01*
X28392428Y-45005523D01*
X28344809Y-45053142D01*
X28297190Y-45148380D01*
X28249571Y-45338857D01*
X28201952Y-45434095D01*
X28154333Y-45481714D01*
X28059095Y-45529333D01*
X27963857Y-45529333D01*
X27868619Y-45481714D01*
X27821000Y-45434095D01*
X27773380Y-45338857D01*
X27773380Y-45100761D01*
X27821000Y-44957904D01*
X27773380Y-44624571D02*
X28773380Y-44386476D01*
X28059095Y-44196000D01*
X28773380Y-44005523D01*
X27773380Y-43767428D01*
X27868619Y-43434095D02*
X27821000Y-43386476D01*
X27773380Y-43291238D01*
X27773380Y-43053142D01*
X27821000Y-42957904D01*
X27868619Y-42910285D01*
X27963857Y-42862666D01*
X28059095Y-42862666D01*
X28201952Y-42910285D01*
X28773380Y-43481714D01*
X28773380Y-42862666D01*
%TO.C,U1*%
X31750095Y-48728380D02*
X31750095Y-49537904D01*
X31797714Y-49633142D01*
X31845333Y-49680761D01*
X31940571Y-49728380D01*
X32131047Y-49728380D01*
X32226285Y-49680761D01*
X32273904Y-49633142D01*
X32321523Y-49537904D01*
X32321523Y-48728380D01*
X33321523Y-49728380D02*
X32750095Y-49728380D01*
X33035809Y-49728380D02*
X33035809Y-48728380D01*
X32940571Y-48871238D01*
X32845333Y-48966476D01*
X32750095Y-49014095D01*
%TO.C,C3*%
X43521333Y-37187142D02*
X43473714Y-37234761D01*
X43330857Y-37282380D01*
X43235619Y-37282380D01*
X43092761Y-37234761D01*
X42997523Y-37139523D01*
X42949904Y-37044285D01*
X42902285Y-36853809D01*
X42902285Y-36710952D01*
X42949904Y-36520476D01*
X42997523Y-36425238D01*
X43092761Y-36330000D01*
X43235619Y-36282380D01*
X43330857Y-36282380D01*
X43473714Y-36330000D01*
X43521333Y-36377619D01*
X43854666Y-36282380D02*
X44473714Y-36282380D01*
X44140380Y-36663333D01*
X44283238Y-36663333D01*
X44378476Y-36710952D01*
X44426095Y-36758571D01*
X44473714Y-36853809D01*
X44473714Y-37091904D01*
X44426095Y-37187142D01*
X44378476Y-37234761D01*
X44283238Y-37282380D01*
X43997523Y-37282380D01*
X43902285Y-37234761D01*
X43854666Y-37187142D01*
%TO.C,C1*%
X33546333Y-37187142D02*
X33498714Y-37234761D01*
X33355857Y-37282380D01*
X33260619Y-37282380D01*
X33117761Y-37234761D01*
X33022523Y-37139523D01*
X32974904Y-37044285D01*
X32927285Y-36853809D01*
X32927285Y-36710952D01*
X32974904Y-36520476D01*
X33022523Y-36425238D01*
X33117761Y-36330000D01*
X33260619Y-36282380D01*
X33355857Y-36282380D01*
X33498714Y-36330000D01*
X33546333Y-36377619D01*
X34498714Y-37282380D02*
X33927285Y-37282380D01*
X34213000Y-37282380D02*
X34213000Y-36282380D01*
X34117761Y-36425238D01*
X34022523Y-36520476D01*
X33927285Y-36568095D01*
%TO.C,U5*%
X80000095Y-55078380D02*
X80000095Y-55887904D01*
X80047714Y-55983142D01*
X80095333Y-56030761D01*
X80190571Y-56078380D01*
X80381047Y-56078380D01*
X80476285Y-56030761D01*
X80523904Y-55983142D01*
X80571523Y-55887904D01*
X80571523Y-55078380D01*
X81523904Y-55078380D02*
X81047714Y-55078380D01*
X81000095Y-55554571D01*
X81047714Y-55506952D01*
X81142952Y-55459333D01*
X81381047Y-55459333D01*
X81476285Y-55506952D01*
X81523904Y-55554571D01*
X81571523Y-55649809D01*
X81571523Y-55887904D01*
X81523904Y-55983142D01*
X81476285Y-56030761D01*
X81381047Y-56078380D01*
X81142952Y-56078380D01*
X81047714Y-56030761D01*
X81000095Y-55983142D01*
D13*
%TO.C,R6*%
X94154400Y-52182000D02*
X94154400Y-56022000D01*
X94154400Y-56022000D02*
X95994400Y-56022000D01*
X95074400Y-51232000D02*
X95074400Y-52182000D01*
X95994400Y-56022000D02*
X95994400Y-52182000D01*
X95994400Y-52182000D02*
X94154400Y-52182000D01*
X95074400Y-56972000D02*
X95074400Y-56022000D01*
%TO.C,U2*%
X66085000Y-56762000D02*
X66085000Y-55112000D01*
X66085000Y-53112000D02*
X66085000Y-51462000D01*
X66085000Y-51462000D02*
X45645000Y-51462000D01*
X45645000Y-51462000D02*
X45645000Y-56762000D01*
X45645000Y-56762000D02*
X66085000Y-56762000D01*
X66085000Y-53112000D02*
G75*
G03*
X66085000Y-55112000I0J-1000000D01*
G01*
D14*
%TO.C,J3*%
X85488780Y-72026780D02*
X85989160Y-71526400D01*
X92489020Y-72026780D02*
X92489020Y-74025760D01*
X96486980Y-72026780D02*
X96486980Y-74025760D01*
X103487220Y-89027000D02*
X102986840Y-89027000D01*
X88488520Y-71526400D02*
X88988900Y-72026780D01*
X92986860Y-71526400D02*
X92489020Y-72026780D01*
X92986860Y-71526400D02*
X95989140Y-71526400D01*
X88988900Y-72026780D02*
X88988900Y-74025760D01*
X103487220Y-72026780D02*
X103487220Y-89027000D01*
X83987640Y-90025220D02*
X85488780Y-90025220D01*
X83987640Y-90525600D02*
X83987640Y-90025220D01*
X103487220Y-90025220D02*
X85488780Y-90025220D01*
X102986840Y-89524840D02*
X102986840Y-89027000D01*
X83987640Y-90276680D02*
X103487220Y-90276680D01*
X104988360Y-90025220D02*
X103487220Y-90025220D01*
X85488780Y-90025220D02*
X85488780Y-89524840D01*
X100987860Y-71526400D02*
X100487480Y-71526400D01*
X104988360Y-89524840D02*
X104988360Y-90025220D01*
X85488780Y-72026780D02*
X85488780Y-89027000D01*
X88988900Y-74025760D02*
X92489020Y-74025760D01*
X102986840Y-71526400D02*
X100987860Y-71526400D01*
X85488780Y-89524840D02*
X104988360Y-89524840D01*
X95989140Y-71526400D02*
X96486980Y-72026780D01*
X100487480Y-71526400D02*
X99987100Y-72026780D01*
X85989160Y-71526400D02*
X88488520Y-71526400D01*
X85488780Y-89027000D02*
X85989160Y-89027000D01*
X99987100Y-72026780D02*
X99987100Y-74025760D01*
X99987100Y-74025760D02*
X96486980Y-74025760D01*
X85488780Y-89776300D02*
X104988360Y-89776300D01*
X103487220Y-90525600D02*
X83987640Y-90525600D01*
X103487220Y-72026780D02*
X102986840Y-71526400D01*
X103487220Y-90025220D02*
X103487220Y-90525600D01*
X85989160Y-89027000D02*
X85989160Y-89524840D01*
D13*
%TO.C,SW3*%
X48272000Y-71826000D02*
X49772000Y-71826000D01*
X52272000Y-70576000D02*
X52272000Y-66076000D01*
X45772000Y-66076000D02*
X45772000Y-70576000D01*
X49772000Y-64826000D02*
X48272000Y-64826000D01*
%TO.C,R3*%
X80518000Y-70942000D02*
X80518000Y-69992000D01*
X80518000Y-65202000D02*
X80518000Y-66152000D01*
X79598000Y-66152000D02*
X79598000Y-69992000D01*
X81438000Y-66152000D02*
X79598000Y-66152000D01*
X81438000Y-69992000D02*
X81438000Y-66152000D01*
X79598000Y-69992000D02*
X81438000Y-69992000D01*
D15*
%TO.C,U6*%
X92217625Y-36810000D02*
X96917625Y-36810000D01*
X91017625Y-25710000D02*
X91017625Y-31210000D01*
X91017625Y-31210000D02*
X92217625Y-36810000D01*
X98217625Y-25710000D02*
X98217625Y-31010000D01*
X91017625Y-25710000D02*
X98217625Y-25710000D01*
X96917625Y-36810000D02*
X98217625Y-31010000D01*
X95817625Y-29210000D02*
G75*
G03*
X95817625Y-29210000I-1300000J0D01*
G01*
D13*
%TO.C,U3*%
X44050000Y-46604000D02*
X42790000Y-46604000D01*
X37230000Y-46604000D02*
X38490000Y-46604000D01*
X37230000Y-52614000D02*
X37230000Y-46604000D01*
X44050000Y-50364000D02*
X44050000Y-46604000D01*
%TO.C,J5*%
X31785000Y-54530000D02*
X29125000Y-54530000D01*
X30455000Y-59730000D02*
X29125000Y-59730000D01*
X29125000Y-57130000D02*
X29125000Y-54530000D01*
X31785000Y-57130000D02*
X31785000Y-54530000D01*
X31785000Y-57130000D02*
X29125000Y-57130000D01*
X29125000Y-59730000D02*
X29125000Y-58400000D01*
%TO.C,D1*%
X90403600Y-55382000D02*
X92643600Y-55382000D01*
X90403600Y-55622000D02*
X92643600Y-55622000D01*
X90403600Y-56222000D02*
X92643600Y-56222000D01*
X92643600Y-51982000D02*
X90403600Y-51982000D01*
X91523600Y-56872000D02*
X91523600Y-56222000D01*
X90403600Y-51982000D02*
X90403600Y-56222000D01*
X91523600Y-51332000D02*
X91523600Y-51982000D01*
X92643600Y-56222000D02*
X92643600Y-51982000D01*
X90403600Y-55502000D02*
X92643600Y-55502000D01*
%TO.C,R10*%
X79934000Y-33782000D02*
X80884000Y-33782000D01*
X85674000Y-33782000D02*
X84724000Y-33782000D01*
X80884000Y-32862000D02*
X80884000Y-34702000D01*
X84724000Y-32862000D02*
X80884000Y-32862000D01*
X80884000Y-34702000D02*
X84724000Y-34702000D01*
X84724000Y-34702000D02*
X84724000Y-32862000D01*
%TO.C,C4*%
X70950000Y-36107000D02*
X70950000Y-36773000D01*
X76290000Y-33331000D02*
X76290000Y-33997000D01*
X70950000Y-33331000D02*
X70950000Y-33997000D01*
X70950000Y-36773000D02*
X76290000Y-36773000D01*
X76290000Y-36107000D02*
X76290000Y-36773000D01*
X70950000Y-33331000D02*
X76290000Y-33331000D01*
%TO.C,C10*%
X68033000Y-56732000D02*
X67367000Y-56732000D01*
X68033000Y-51392000D02*
X67367000Y-51392000D01*
X70809000Y-51392000D02*
X70809000Y-56732000D01*
X70809000Y-56732000D02*
X70143000Y-56732000D01*
X70809000Y-51392000D02*
X70143000Y-51392000D01*
X67367000Y-51392000D02*
X67367000Y-56732000D01*
%TO.C,R8*%
X80884000Y-36988000D02*
X84724000Y-36988000D01*
X85674000Y-36068000D02*
X84724000Y-36068000D01*
X79934000Y-36068000D02*
X80884000Y-36068000D01*
X84724000Y-36988000D02*
X84724000Y-35148000D01*
X80884000Y-35148000D02*
X80884000Y-36988000D01*
X84724000Y-35148000D02*
X80884000Y-35148000D01*
%TO.C,J4*%
X22172000Y-62768500D02*
X36872000Y-62768500D01*
X22172000Y-71968500D02*
X22172000Y-62768500D01*
X36872000Y-69268500D02*
X36872000Y-71968500D01*
X36022000Y-62568500D02*
X37072000Y-62568500D01*
X30972000Y-71968500D02*
X22172000Y-71968500D01*
X36872000Y-62768500D02*
X36872000Y-65368500D01*
X36872000Y-71968500D02*
X34972000Y-71968500D01*
X37072000Y-63618500D02*
X37072000Y-62568500D01*
%TO.C,R1*%
X54452000Y-70246000D02*
X56292000Y-70246000D01*
X54452000Y-66406000D02*
X54452000Y-70246000D01*
X56292000Y-70246000D02*
X56292000Y-66406000D01*
X55372000Y-65456000D02*
X55372000Y-66406000D01*
X56292000Y-66406000D02*
X54452000Y-66406000D01*
X55372000Y-71196000D02*
X55372000Y-70246000D01*
%TO.C,J2*%
X92710000Y-39564000D02*
X94040000Y-39564000D01*
X88840000Y-39564000D02*
X88840000Y-47304000D01*
X91440000Y-39564000D02*
X91440000Y-42164000D01*
X94040000Y-42164000D02*
X94040000Y-47304000D01*
X88840000Y-47304000D02*
X94040000Y-47304000D01*
X94040000Y-39564000D02*
X94040000Y-40894000D01*
X91440000Y-42164000D02*
X94040000Y-42164000D01*
X88840000Y-39564000D02*
X91440000Y-39564000D01*
D12*
%TO.C,SW1*%
X72710000Y-26102000D02*
X87310000Y-26102000D01*
X72710000Y-31302000D02*
X87310000Y-31302000D01*
D13*
%TO.C,Y1*%
X60290000Y-32527000D02*
X66690000Y-32527000D01*
X60290000Y-37577000D02*
X66690000Y-37577000D01*
X60290000Y-32527000D02*
G75*
G03*
X60290000Y-37577000I0J-2525000D01*
G01*
X66690000Y-37577000D02*
G75*
G03*
X66690000Y-32527000I0J2525000D01*
G01*
%TO.C,R2*%
X68072000Y-65202000D02*
X68072000Y-66152000D01*
X67152000Y-66152000D02*
X67152000Y-69992000D01*
X68072000Y-70942000D02*
X68072000Y-69992000D01*
X68992000Y-69992000D02*
X68992000Y-66152000D01*
X68992000Y-66152000D02*
X67152000Y-66152000D01*
X67152000Y-69992000D02*
X68992000Y-69992000D01*
%TO.C,U4*%
X45650000Y-40540000D02*
X45650000Y-45840000D01*
X81330000Y-42190000D02*
X81330000Y-40540000D01*
X81330000Y-40540000D02*
X45650000Y-40540000D01*
X81330000Y-45840000D02*
X81330000Y-44190000D01*
X45650000Y-45840000D02*
X81330000Y-45840000D01*
X81330000Y-42190000D02*
G75*
G03*
X81330000Y-44190000I0J-1000000D01*
G01*
%TO.C,C2*%
X37938401Y-37839000D02*
X37938401Y-38784000D01*
X37337401Y-37599000D02*
X37337401Y-38784000D01*
X38218401Y-38037000D02*
X38218401Y-38784000D01*
X37497401Y-40464000D02*
X37497401Y-41606000D01*
X37778401Y-37754000D02*
X37778401Y-38784000D01*
X37738401Y-37735000D02*
X37738401Y-38784000D01*
X37978401Y-40464000D02*
X37978401Y-41384000D01*
X37658401Y-37700000D02*
X37658401Y-38784000D01*
X37978401Y-37864000D02*
X37978401Y-38784000D01*
X38178401Y-40464000D02*
X38178401Y-41243000D01*
X37537401Y-40464000D02*
X37537401Y-41592000D01*
X36897401Y-40464000D02*
X36897401Y-41704000D01*
X37818401Y-40464000D02*
X37818401Y-41475000D01*
X38738401Y-38684000D02*
X38738401Y-40564000D01*
X38418401Y-40464000D02*
X38418401Y-41020000D01*
X38658401Y-38544000D02*
X38658401Y-40704000D01*
X36977401Y-37547000D02*
X36977401Y-38784000D01*
X34787600Y-38229000D02*
X34787600Y-38629000D01*
X38578401Y-38424000D02*
X38578401Y-40824000D01*
X38898401Y-39087000D02*
X38898401Y-40161000D01*
X38098401Y-40464000D02*
X38098401Y-41304000D01*
X36937401Y-40464000D02*
X36937401Y-41703000D01*
X37698401Y-40464000D02*
X37698401Y-41531000D01*
X36857401Y-40464000D02*
X36857401Y-41704000D01*
X37537401Y-37656000D02*
X37537401Y-38784000D01*
X38698401Y-38611000D02*
X38698401Y-40637000D01*
X37257401Y-40464000D02*
X37257401Y-41666000D01*
X36857401Y-37544000D02*
X36857401Y-38784000D01*
X38018401Y-40464000D02*
X38018401Y-41359000D01*
X37898401Y-40464000D02*
X37898401Y-41432000D01*
X37177401Y-40464000D02*
X37177401Y-41680000D01*
X37858401Y-40464000D02*
X37858401Y-41454000D01*
X37497401Y-37642000D02*
X37497401Y-38784000D01*
X37938401Y-40464000D02*
X37938401Y-41409000D01*
X37377401Y-37608000D02*
X37377401Y-38784000D01*
X37818401Y-37773000D02*
X37818401Y-38784000D01*
X38138401Y-40464000D02*
X38138401Y-41274000D01*
X38858401Y-38960000D02*
X38858401Y-40288000D01*
X36937401Y-37545000D02*
X36937401Y-38784000D01*
X37578401Y-37670000D02*
X37578401Y-38784000D01*
X37778401Y-40464000D02*
X37778401Y-41494000D01*
X37578401Y-40464000D02*
X37578401Y-41578000D01*
X37177401Y-37568000D02*
X37177401Y-38784000D01*
X38298401Y-40464000D02*
X38298401Y-41140000D01*
X38218401Y-40464000D02*
X38218401Y-41211000D01*
X38338401Y-40464000D02*
X38338401Y-41102000D01*
X38938401Y-39254000D02*
X38938401Y-39994000D01*
X37858401Y-37794000D02*
X37858401Y-38784000D01*
X34587600Y-38429000D02*
X34987600Y-38429000D01*
X37337401Y-40464000D02*
X37337401Y-41649000D01*
X38018401Y-37889000D02*
X38018401Y-38784000D01*
X37297401Y-37590000D02*
X37297401Y-38784000D01*
X38458401Y-38273000D02*
X38458401Y-40975000D01*
X38538401Y-38370000D02*
X38538401Y-40878000D01*
X38498401Y-38320000D02*
X38498401Y-40928000D01*
X37457401Y-37630000D02*
X37457401Y-38784000D01*
X38418401Y-38228000D02*
X38418401Y-38784000D01*
X38378401Y-38186000D02*
X38378401Y-38784000D01*
X37417401Y-40464000D02*
X37417401Y-41629000D01*
X38138401Y-37974000D02*
X38138401Y-38784000D01*
X37137401Y-37562000D02*
X37137401Y-38784000D01*
X37097401Y-40464000D02*
X37097401Y-41691000D01*
X38098401Y-37944000D02*
X38098401Y-38784000D01*
X37217401Y-40464000D02*
X37217401Y-41674000D01*
X37898401Y-37816000D02*
X37898401Y-38784000D01*
X38058401Y-37916000D02*
X38058401Y-38784000D01*
X37618401Y-37684000D02*
X37618401Y-38784000D01*
X38258401Y-40464000D02*
X38258401Y-41176000D01*
X37658401Y-40464000D02*
X37658401Y-41548000D01*
X37137401Y-40464000D02*
X37137401Y-41686000D01*
X37417401Y-37619000D02*
X37417401Y-38784000D01*
X37297401Y-40464000D02*
X37297401Y-41658000D01*
X38338401Y-38146000D02*
X38338401Y-38784000D01*
X38178401Y-38005000D02*
X38178401Y-38784000D01*
X37257401Y-37582000D02*
X37257401Y-38784000D01*
X38618401Y-38482000D02*
X38618401Y-40766000D01*
X36977401Y-40464000D02*
X36977401Y-41701000D01*
X38778401Y-38765000D02*
X38778401Y-40483000D01*
X37017401Y-37550000D02*
X37017401Y-38784000D01*
X38378401Y-40464000D02*
X38378401Y-41062000D01*
X37217401Y-37574000D02*
X37217401Y-38784000D01*
X37017401Y-40464000D02*
X37017401Y-41698000D01*
X37618401Y-40464000D02*
X37618401Y-41564000D01*
X38058401Y-40464000D02*
X38058401Y-41332000D01*
X37698401Y-37717000D02*
X37698401Y-38784000D01*
X38298401Y-38108000D02*
X38298401Y-38784000D01*
X38818401Y-38856000D02*
X38818401Y-40392000D01*
X37457401Y-40464000D02*
X37457401Y-41618000D01*
X37377401Y-40464000D02*
X37377401Y-41640000D01*
X37097401Y-37557000D02*
X37097401Y-38784000D01*
X36897401Y-37544000D02*
X36897401Y-38784000D01*
X37057401Y-37553000D02*
X37057401Y-38784000D01*
X37057401Y-40464000D02*
X37057401Y-41695000D01*
X38258401Y-38072000D02*
X38258401Y-38784000D01*
X37738401Y-40464000D02*
X37738401Y-41513000D01*
X38977401Y-39624000D02*
G75*
G03*
X38977401Y-39624000I-2120000J0D01*
G01*
%TO.C,C7*%
X84875000Y-46104000D02*
X85541000Y-46104000D01*
X82099000Y-46104000D02*
X82765000Y-46104000D01*
X82099000Y-40764000D02*
X82765000Y-40764000D01*
X82099000Y-46104000D02*
X82099000Y-40764000D01*
X84875000Y-40764000D02*
X85541000Y-40764000D01*
X85541000Y-46104000D02*
X85541000Y-40764000D01*
%TO.C,R4*%
X33132000Y-35210000D02*
X36972000Y-35210000D01*
X32182000Y-34290000D02*
X33132000Y-34290000D01*
X36972000Y-33370000D02*
X33132000Y-33370000D01*
X37922000Y-34290000D02*
X36972000Y-34290000D01*
X36972000Y-35210000D02*
X36972000Y-33370000D01*
X33132000Y-33370000D02*
X33132000Y-35210000D01*
%TO.C,R7*%
X88892800Y-52182000D02*
X87052800Y-52182000D01*
X87052800Y-56022000D02*
X88892800Y-56022000D01*
X88892800Y-56022000D02*
X88892800Y-52182000D01*
X87972800Y-56972000D02*
X87972800Y-56022000D01*
X87052800Y-52182000D02*
X87052800Y-56022000D01*
X87972800Y-51232000D02*
X87972800Y-52182000D01*
D12*
%TO.C,SW6*%
X99254000Y-50480000D02*
X99254000Y-35880000D01*
X104454000Y-50480000D02*
X104454000Y-35880000D01*
D13*
%TO.C,SW4*%
X60972000Y-71572000D02*
X62472000Y-71572000D01*
X62472000Y-64572000D02*
X60972000Y-64572000D01*
X58472000Y-65822000D02*
X58472000Y-70322000D01*
X64972000Y-70322000D02*
X64972000Y-65822000D01*
%TO.C,J1*%
X22953000Y-78929000D02*
X22953000Y-85299000D01*
X27563000Y-75829000D02*
X25763000Y-75829000D01*
X22603000Y-76859000D02*
X22603000Y-78719000D01*
X22603000Y-78719000D02*
X22803000Y-78929000D01*
X22603000Y-88119000D02*
X22803000Y-88319000D01*
X22603000Y-88119000D02*
X22603000Y-85809000D01*
X38873000Y-75829000D02*
X35263000Y-75829000D01*
X38873000Y-89799000D02*
X24863000Y-89799000D01*
X33563000Y-75829000D02*
X28863000Y-75829000D01*
X22603000Y-85809000D02*
X22953000Y-85299000D01*
X22803000Y-88319000D02*
X22803000Y-88579000D01*
X38873000Y-87879000D02*
X38873000Y-89799000D01*
X22953000Y-78929000D02*
X22803000Y-78929000D01*
X22603000Y-76859000D02*
X22803000Y-76659000D01*
X38873000Y-76279000D02*
X38873000Y-75829000D01*
%TO.C,SW5*%
X77418000Y-70322000D02*
X77418000Y-65822000D01*
X74918000Y-64572000D02*
X73418000Y-64572000D01*
X70918000Y-65822000D02*
X70918000Y-70322000D01*
X73418000Y-71572000D02*
X74918000Y-71572000D01*
%TO.C,R5*%
X36972000Y-32162000D02*
X36972000Y-30322000D01*
X36972000Y-30322000D02*
X33132000Y-30322000D01*
X33132000Y-32162000D02*
X36972000Y-32162000D01*
X33132000Y-30322000D02*
X33132000Y-32162000D01*
X37922000Y-31242000D02*
X36972000Y-31242000D01*
X32182000Y-31242000D02*
X33132000Y-31242000D01*
%TO.C,DS1*%
X103636000Y-61580000D02*
X103636000Y-25300000D01*
X29996000Y-24940000D02*
X32996000Y-24940000D01*
X23356000Y-61580000D02*
X103636000Y-61580000D01*
X23366000Y-25300000D02*
X24156000Y-25300000D01*
X103636000Y-25300000D02*
X24156000Y-25300000D01*
X23356000Y-25300000D02*
X23356000Y-61580000D01*
%TO.C,R9*%
X72651200Y-56022000D02*
X74491200Y-56022000D01*
X73571200Y-56972000D02*
X73571200Y-56022000D01*
X74491200Y-52182000D02*
X72651200Y-52182000D01*
X74491200Y-56022000D02*
X74491200Y-52182000D01*
X73571200Y-51232000D02*
X73571200Y-52182000D01*
X72651200Y-52182000D02*
X72651200Y-56022000D01*
%TO.C,C5*%
X55970000Y-36773000D02*
X55970000Y-36107000D01*
X55970000Y-36773000D02*
X50630000Y-36773000D01*
X50630000Y-36773000D02*
X50630000Y-36107000D01*
X50630000Y-33997000D02*
X50630000Y-33331000D01*
X55970000Y-33331000D02*
X50630000Y-33331000D01*
X55970000Y-33997000D02*
X55970000Y-33331000D01*
D12*
%TO.C,SW2*%
X22165000Y-51496000D02*
X22165000Y-36896000D01*
X27365000Y-51496000D02*
X27365000Y-36896000D01*
D13*
%TO.C,U1*%
X36176000Y-50364000D02*
X36176000Y-46604000D01*
X36176000Y-46604000D02*
X34916000Y-46604000D01*
X29356000Y-46604000D02*
X30616000Y-46604000D01*
X29356000Y-52614000D02*
X29356000Y-46604000D01*
%TO.C,C3*%
X42964401Y-37974000D02*
X42964401Y-38784000D01*
X42083401Y-40464000D02*
X42083401Y-41666000D01*
X42644401Y-40464000D02*
X42644401Y-41475000D01*
X43084401Y-40464000D02*
X43084401Y-41176000D01*
X42804401Y-37864000D02*
X42804401Y-38784000D01*
X43404401Y-38424000D02*
X43404401Y-40824000D01*
X42243401Y-37619000D02*
X42243401Y-38784000D01*
X41923401Y-40464000D02*
X41923401Y-41691000D01*
X42003401Y-40464000D02*
X42003401Y-41680000D01*
X41723401Y-40464000D02*
X41723401Y-41704000D01*
X43164401Y-40464000D02*
X43164401Y-41102000D01*
X42924401Y-37944000D02*
X42924401Y-38784000D01*
X42524401Y-40464000D02*
X42524401Y-41531000D01*
X42444401Y-37684000D02*
X42444401Y-38784000D01*
X41963401Y-37562000D02*
X41963401Y-38784000D01*
X42123401Y-40464000D02*
X42123401Y-41658000D01*
X42644401Y-37773000D02*
X42644401Y-38784000D01*
X43124401Y-40464000D02*
X43124401Y-41140000D01*
X42804401Y-40464000D02*
X42804401Y-41384000D01*
X43364401Y-38370000D02*
X43364401Y-40878000D01*
X41923401Y-37557000D02*
X41923401Y-38784000D01*
X43284401Y-38273000D02*
X43284401Y-40975000D01*
X42203401Y-40464000D02*
X42203401Y-41640000D01*
X42924401Y-40464000D02*
X42924401Y-41304000D01*
X42043401Y-40464000D02*
X42043401Y-41674000D01*
X43244401Y-40464000D02*
X43244401Y-41020000D01*
X41843401Y-37550000D02*
X41843401Y-38784000D01*
X41803401Y-40464000D02*
X41803401Y-41701000D01*
X42083401Y-37582000D02*
X42083401Y-38784000D01*
X42484401Y-40464000D02*
X42484401Y-41548000D01*
X42724401Y-37816000D02*
X42724401Y-38784000D01*
X42964401Y-40464000D02*
X42964401Y-41274000D01*
X43164401Y-38146000D02*
X43164401Y-38784000D01*
X41883401Y-40464000D02*
X41883401Y-41695000D01*
X41723401Y-37544000D02*
X41723401Y-38784000D01*
X43044401Y-40464000D02*
X43044401Y-41211000D01*
X43724401Y-39087000D02*
X43724401Y-40161000D01*
X43684401Y-38960000D02*
X43684401Y-40288000D01*
X42323401Y-37642000D02*
X42323401Y-38784000D01*
X41763401Y-40464000D02*
X41763401Y-41703000D01*
X43004401Y-38005000D02*
X43004401Y-38784000D01*
X43044401Y-38037000D02*
X43044401Y-38784000D01*
X42604401Y-40464000D02*
X42604401Y-41494000D01*
X43324401Y-38320000D02*
X43324401Y-40928000D01*
X42123401Y-37590000D02*
X42123401Y-38784000D01*
X43204401Y-38186000D02*
X43204401Y-38784000D01*
X42003401Y-37568000D02*
X42003401Y-38784000D01*
X42363401Y-37656000D02*
X42363401Y-38784000D01*
X43564401Y-38684000D02*
X43564401Y-40564000D01*
X43644401Y-38856000D02*
X43644401Y-40392000D01*
X42884401Y-37916000D02*
X42884401Y-38784000D01*
X41883401Y-37553000D02*
X41883401Y-38784000D01*
X43244401Y-38228000D02*
X43244401Y-38784000D01*
X42564401Y-37735000D02*
X42564401Y-38784000D01*
X42363401Y-40464000D02*
X42363401Y-41592000D01*
X43124401Y-38108000D02*
X43124401Y-38784000D01*
X42884401Y-40464000D02*
X42884401Y-41332000D01*
X41763401Y-37545000D02*
X41763401Y-38784000D01*
X42444401Y-40464000D02*
X42444401Y-41564000D01*
X42764401Y-37839000D02*
X42764401Y-38784000D01*
X41963401Y-40464000D02*
X41963401Y-41686000D01*
X41683401Y-40464000D02*
X41683401Y-41704000D01*
X42043401Y-37574000D02*
X42043401Y-38784000D01*
X39613600Y-38229000D02*
X39613600Y-38629000D01*
X41683401Y-37544000D02*
X41683401Y-38784000D01*
X42283401Y-37630000D02*
X42283401Y-38784000D01*
X42203401Y-37608000D02*
X42203401Y-38784000D01*
X42844401Y-40464000D02*
X42844401Y-41359000D01*
X42283401Y-40464000D02*
X42283401Y-41618000D01*
X43444401Y-38482000D02*
X43444401Y-40766000D01*
X39413600Y-38429000D02*
X39813600Y-38429000D01*
X42604401Y-37754000D02*
X42604401Y-38784000D01*
X41843401Y-40464000D02*
X41843401Y-41698000D01*
X43484401Y-38544000D02*
X43484401Y-40704000D01*
X41803401Y-37547000D02*
X41803401Y-38784000D01*
X42684401Y-40464000D02*
X42684401Y-41454000D01*
X42404401Y-37670000D02*
X42404401Y-38784000D01*
X42323401Y-40464000D02*
X42323401Y-41606000D01*
X42404401Y-40464000D02*
X42404401Y-41578000D01*
X43204401Y-40464000D02*
X43204401Y-41062000D01*
X42844401Y-37889000D02*
X42844401Y-38784000D01*
X42484401Y-37700000D02*
X42484401Y-38784000D01*
X42724401Y-40464000D02*
X42724401Y-41432000D01*
X43004401Y-40464000D02*
X43004401Y-41243000D01*
X43604401Y-38765000D02*
X43604401Y-40483000D01*
X42243401Y-40464000D02*
X42243401Y-41629000D01*
X43524401Y-38611000D02*
X43524401Y-40637000D01*
X42163401Y-37599000D02*
X42163401Y-38784000D01*
X42524401Y-37717000D02*
X42524401Y-38784000D01*
X42564401Y-40464000D02*
X42564401Y-41513000D01*
X43764401Y-39254000D02*
X43764401Y-39994000D01*
X43084401Y-38072000D02*
X43084401Y-38784000D01*
X42163401Y-40464000D02*
X42163401Y-41649000D01*
X42684401Y-37794000D02*
X42684401Y-38784000D01*
X42764401Y-40464000D02*
X42764401Y-41409000D01*
X43803401Y-39624000D02*
G75*
G03*
X43803401Y-39624000I-2120000J0D01*
G01*
%TO.C,C1*%
X33513000Y-38186000D02*
X33513000Y-38784000D01*
X31992000Y-37544000D02*
X31992000Y-38784000D01*
X33193000Y-37916000D02*
X33193000Y-38784000D01*
X32192000Y-37553000D02*
X32192000Y-38784000D01*
X32192000Y-40464000D02*
X32192000Y-41695000D01*
X32913000Y-37754000D02*
X32913000Y-38784000D01*
X32312000Y-40464000D02*
X32312000Y-41680000D01*
X32833000Y-40464000D02*
X32833000Y-41531000D01*
X32833000Y-37717000D02*
X32833000Y-38784000D01*
X32472000Y-40464000D02*
X32472000Y-41649000D01*
X33473000Y-40464000D02*
X33473000Y-41102000D01*
X32793000Y-37700000D02*
X32793000Y-38784000D01*
X31992000Y-40464000D02*
X31992000Y-41704000D01*
X33513000Y-40464000D02*
X33513000Y-41062000D01*
X33473000Y-38146000D02*
X33473000Y-38784000D01*
X33033000Y-37816000D02*
X33033000Y-38784000D01*
X33073000Y-40464000D02*
X33073000Y-41409000D01*
X33993000Y-38960000D02*
X33993000Y-40288000D01*
X32913000Y-40464000D02*
X32913000Y-41494000D01*
X33433000Y-38108000D02*
X33433000Y-38784000D01*
X32552000Y-37619000D02*
X32552000Y-38784000D01*
X32352000Y-37574000D02*
X32352000Y-38784000D01*
X32032000Y-37544000D02*
X32032000Y-38784000D01*
X32112000Y-37547000D02*
X32112000Y-38784000D01*
X32072000Y-40464000D02*
X32072000Y-41703000D01*
X32472000Y-37599000D02*
X32472000Y-38784000D01*
X33113000Y-37864000D02*
X33113000Y-38784000D01*
X29922199Y-38229000D02*
X29922199Y-38629000D01*
X32713000Y-40464000D02*
X32713000Y-41578000D01*
X33233000Y-40464000D02*
X33233000Y-41304000D01*
X32993000Y-37794000D02*
X32993000Y-38784000D01*
X33793000Y-38544000D02*
X33793000Y-40704000D01*
X32232000Y-40464000D02*
X32232000Y-41691000D01*
X32032000Y-40464000D02*
X32032000Y-41704000D01*
X32432000Y-40464000D02*
X32432000Y-41658000D01*
X33393000Y-40464000D02*
X33393000Y-41176000D01*
X33553000Y-38228000D02*
X33553000Y-38784000D01*
X32672000Y-40464000D02*
X32672000Y-41592000D01*
X33673000Y-38370000D02*
X33673000Y-40878000D01*
X33313000Y-38005000D02*
X33313000Y-38784000D01*
X32432000Y-37590000D02*
X32432000Y-38784000D01*
X32753000Y-40464000D02*
X32753000Y-41564000D01*
X33753000Y-38482000D02*
X33753000Y-40766000D01*
X32993000Y-40464000D02*
X32993000Y-41454000D01*
X32672000Y-37656000D02*
X32672000Y-38784000D01*
X33273000Y-37974000D02*
X33273000Y-38784000D01*
X33073000Y-37839000D02*
X33073000Y-38784000D01*
X33833000Y-38611000D02*
X33833000Y-40637000D01*
X34033000Y-39087000D02*
X34033000Y-40161000D01*
X32352000Y-40464000D02*
X32352000Y-41674000D01*
X29722199Y-38429000D02*
X30122199Y-38429000D01*
X32272000Y-40464000D02*
X32272000Y-41686000D01*
X32112000Y-40464000D02*
X32112000Y-41701000D01*
X33153000Y-37889000D02*
X33153000Y-38784000D01*
X33113000Y-40464000D02*
X33113000Y-41384000D01*
X32592000Y-37630000D02*
X32592000Y-38784000D01*
X33233000Y-37944000D02*
X33233000Y-38784000D01*
X32953000Y-37773000D02*
X32953000Y-38784000D01*
X32072000Y-37545000D02*
X32072000Y-38784000D01*
X33313000Y-40464000D02*
X33313000Y-41243000D01*
X32953000Y-40464000D02*
X32953000Y-41475000D01*
X32392000Y-37582000D02*
X32392000Y-38784000D01*
X32272000Y-37562000D02*
X32272000Y-38784000D01*
X33193000Y-40464000D02*
X33193000Y-41332000D01*
X32793000Y-40464000D02*
X32793000Y-41548000D01*
X32873000Y-37735000D02*
X32873000Y-38784000D01*
X33953000Y-38856000D02*
X33953000Y-40392000D01*
X33153000Y-40464000D02*
X33153000Y-41359000D01*
X33033000Y-40464000D02*
X33033000Y-41432000D01*
X32592000Y-40464000D02*
X32592000Y-41618000D01*
X32512000Y-37608000D02*
X32512000Y-38784000D01*
X32873000Y-40464000D02*
X32873000Y-41513000D01*
X32632000Y-37642000D02*
X32632000Y-38784000D01*
X33393000Y-38072000D02*
X33393000Y-38784000D01*
X33593000Y-38273000D02*
X33593000Y-40975000D01*
X33713000Y-38424000D02*
X33713000Y-40824000D01*
X33353000Y-40464000D02*
X33353000Y-41211000D01*
X32512000Y-40464000D02*
X32512000Y-41640000D01*
X33633000Y-38320000D02*
X33633000Y-40928000D01*
X32552000Y-40464000D02*
X32552000Y-41629000D01*
X33353000Y-38037000D02*
X33353000Y-38784000D01*
X33553000Y-40464000D02*
X33553000Y-41020000D01*
X33433000Y-40464000D02*
X33433000Y-41140000D01*
X33273000Y-40464000D02*
X33273000Y-41274000D01*
X32312000Y-37568000D02*
X32312000Y-38784000D01*
X32232000Y-37557000D02*
X32232000Y-38784000D01*
X33913000Y-38765000D02*
X33913000Y-40483000D01*
X32152000Y-37550000D02*
X32152000Y-38784000D01*
X34073000Y-39254000D02*
X34073000Y-39994000D01*
X32632000Y-40464000D02*
X32632000Y-41606000D01*
X33873000Y-38684000D02*
X33873000Y-40564000D01*
X32713000Y-37670000D02*
X32713000Y-38784000D01*
X32753000Y-37684000D02*
X32753000Y-38784000D01*
X32152000Y-40464000D02*
X32152000Y-41698000D01*
X32392000Y-40464000D02*
X32392000Y-41666000D01*
X34112000Y-39624000D02*
G75*
G03*
X34112000Y-39624000I-2120000J0D01*
G01*
%TO.C,U5*%
X78112000Y-50217000D02*
X78112000Y-57957000D01*
X83412000Y-57957000D02*
X83412000Y-50217000D01*
X81762000Y-57957000D02*
X83412000Y-57957000D01*
X83412000Y-50217000D02*
X78112000Y-50217000D01*
X78112000Y-57957000D02*
X79762000Y-57957000D01*
X81762000Y-57957000D02*
G75*
G03*
X79762000Y-57957000I-1000000J0D01*
G01*
%TD*%
M02*
