%TF.GenerationSoftware,KiCad,Pcbnew,(6.0.7)*%
%TF.CreationDate,2022-08-13T20:07:05+02:00*%
%TF.ProjectId,SD_interrupter,53445f69-6e74-4657-9272-75707465722e,rev?*%
%TF.SameCoordinates,Original*%
%TF.FileFunction,Drillmap*%
%TF.FilePolarity,Positive*%
%FSLAX45Y45*%
G04 Gerber Fmt 4.5, Leading zero omitted, Abs format (unit mm)*
G04 Created by KiCad (PCBNEW (6.0.7)) date 2022-08-13 20:07:05*
%MOMM*%
%LPD*%
G01*
G04 APERTURE LIST*
%ADD10C,0.100000*%
%ADD11C,0.200000*%
%ADD12C,0.040000*%
%ADD13C,0.060000*%
%ADD14C,0.070000*%
%ADD15C,0.080000*%
%ADD16C,0.110000*%
%ADD17C,0.120000*%
%ADD18C,0.140000*%
%ADD19C,0.147000*%
%ADD20C,0.160000*%
%ADD21C,0.250000*%
G04 APERTURE END LIST*
D10*
X2158600Y-2540000D02*
X10540600Y-2540000D01*
X10540600Y-2540000D02*
X10540600Y-11176000D01*
X10540600Y-11176000D02*
X2158600Y-11176000D01*
X2158600Y-11176000D02*
X2158600Y-2540000D01*
D11*
D12*
X3663000Y-5110800D02*
X3703000Y-5150800D01*
X3703000Y-5110800D02*
X3663000Y-5150800D01*
X4653600Y-4247200D02*
X4693600Y-4287200D01*
X4693600Y-4247200D02*
X4653600Y-4287200D01*
X5466400Y-4247200D02*
X5506400Y-4287200D01*
X5506400Y-4247200D02*
X5466400Y-4287200D01*
X7219000Y-3155000D02*
X7259000Y-3195000D01*
X7259000Y-3155000D02*
X7219000Y-3195000D01*
X7240850Y-5136200D02*
X7280850Y-5176200D01*
X7280850Y-5136200D02*
X7240850Y-5176200D01*
X7574600Y-4907600D02*
X7614600Y-4947600D01*
X7614600Y-4907600D02*
X7574600Y-4947600D01*
X8189760Y-4672297D02*
X8229760Y-4712297D01*
X8229760Y-4672297D02*
X8189760Y-4712297D01*
X8311200Y-4679000D02*
X8351200Y-4719000D01*
X8351200Y-4679000D02*
X8311200Y-4719000D01*
X8412800Y-4679000D02*
X8452800Y-4719000D01*
X8452800Y-4679000D02*
X8412800Y-4719000D01*
X8438200Y-7171950D02*
X8478200Y-7211950D01*
X8478200Y-7171950D02*
X8438200Y-7211950D01*
X8539800Y-7320600D02*
X8579800Y-7360600D01*
X8579800Y-7320600D02*
X8539800Y-7360600D01*
X8616000Y-7523800D02*
X8656000Y-7563800D01*
X8656000Y-7523800D02*
X8616000Y-7563800D01*
D13*
X3154200Y-4724400D02*
G75*
G03*
X3154200Y-4724400I-30000J0D01*
G01*
X3304200Y-4724400D02*
G75*
G03*
X3304200Y-4724400I-30000J0D01*
G01*
X3640740Y-4724400D02*
G75*
G03*
X3640740Y-4724400I-30000J0D01*
G01*
X3790740Y-4724400D02*
G75*
G03*
X3790740Y-4724400I-30000J0D01*
G01*
X4123340Y-4724400D02*
G75*
G03*
X4123340Y-4724400I-30000J0D01*
G01*
X4273340Y-4724400D02*
G75*
G03*
X4273340Y-4724400I-30000J0D01*
G01*
D14*
X3657600Y-3457500D02*
X3657600Y-3527500D01*
X3622600Y-3492500D02*
X3692600Y-3492500D01*
X3657600Y-4219500D02*
X3657600Y-4289500D01*
X3622600Y-4254500D02*
X3692600Y-4254500D01*
X3962400Y-3457500D02*
X3962400Y-3527500D01*
X3927400Y-3492500D02*
X3997400Y-3492500D01*
X3962400Y-4219500D02*
X3962400Y-4289500D01*
X3927400Y-4254500D02*
X3997400Y-4254500D01*
X6294000Y-8283500D02*
X6294000Y-8353500D01*
X6259000Y-8318500D02*
X6329000Y-8318500D01*
X6294000Y-9553500D02*
X6294000Y-9623500D01*
X6259000Y-9588500D02*
X6329000Y-9588500D01*
X6294000Y-10823500D02*
X6294000Y-10893500D01*
X6259000Y-10858500D02*
X6329000Y-10858500D01*
X7056000Y-8283500D02*
X7056000Y-8353500D01*
X7021000Y-8318500D02*
X7091000Y-8318500D01*
X7056000Y-9553500D02*
X7056000Y-9623500D01*
X7021000Y-9588500D02*
X7091000Y-9588500D01*
X7056000Y-10823500D02*
X7056000Y-10893500D01*
X7021000Y-10858500D02*
X7091000Y-10858500D01*
X7416800Y-8101680D02*
X7416800Y-8171680D01*
X7381800Y-8136680D02*
X7451800Y-8136680D01*
X7416800Y-9541840D02*
X7416800Y-9611840D01*
X7381800Y-9576840D02*
X7451800Y-9576840D01*
X7416800Y-10252000D02*
X7416800Y-10322000D01*
X7381800Y-10287000D02*
X7451800Y-10287000D01*
X7975600Y-3419400D02*
X7975600Y-3489400D01*
X7940600Y-3454400D02*
X8010600Y-3454400D01*
X7975600Y-3648000D02*
X7975600Y-3718000D01*
X7940600Y-3683000D02*
X8010600Y-3683000D01*
X8178800Y-8101680D02*
X8178800Y-8171680D01*
X8143800Y-8136680D02*
X8213800Y-8136680D01*
X8178800Y-9541840D02*
X8178800Y-9611840D01*
X8143800Y-9576840D02*
X8213800Y-9576840D01*
X8178800Y-10252000D02*
X8178800Y-10322000D01*
X8143800Y-10287000D02*
X8213800Y-10287000D01*
X8737600Y-3419400D02*
X8737600Y-3489400D01*
X8702600Y-3454400D02*
X8772600Y-3454400D01*
X8737600Y-3648000D02*
X8737600Y-3718000D01*
X8702600Y-3683000D02*
X8772600Y-3683000D01*
X9321763Y-2886000D02*
X9321763Y-2956000D01*
X9286763Y-2921000D02*
X9356763Y-2921000D01*
X9581763Y-2886000D02*
X9581763Y-2956000D01*
X9546763Y-2921000D02*
X9616763Y-2921000D01*
D15*
X4726285Y-3966284D02*
X4726285Y-3909715D01*
X4669716Y-3909715D01*
X4669716Y-3966284D01*
X4726285Y-3966284D01*
X4726285Y-4728285D02*
X4726285Y-4671716D01*
X4669716Y-4671716D01*
X4669716Y-4728285D01*
X4726285Y-4728285D01*
X4980285Y-3966284D02*
X4980285Y-3909715D01*
X4923716Y-3909715D01*
X4923716Y-3966284D01*
X4980285Y-3966284D01*
X4980285Y-4728285D02*
X4980285Y-4671716D01*
X4923716Y-4671716D01*
X4923716Y-4728285D01*
X4980285Y-4728285D01*
X5108285Y-3584284D02*
X5108285Y-3527715D01*
X5051716Y-3527715D01*
X5051716Y-3584284D01*
X5108285Y-3584284D01*
X5234285Y-3966284D02*
X5234285Y-3909715D01*
X5177716Y-3909715D01*
X5177716Y-3966284D01*
X5234285Y-3966284D01*
X5234285Y-4728285D02*
X5234285Y-4671716D01*
X5177716Y-4671716D01*
X5177716Y-4728285D01*
X5234285Y-4728285D01*
X5488285Y-3966284D02*
X5488285Y-3909715D01*
X5431716Y-3909715D01*
X5431716Y-3966284D01*
X5488285Y-3966284D01*
X5488285Y-4728285D02*
X5488285Y-4671716D01*
X5431716Y-4671716D01*
X5431716Y-4728285D01*
X5488285Y-4728285D01*
X5608284Y-3584284D02*
X5608284Y-3527715D01*
X5551716Y-3527715D01*
X5551716Y-3584284D01*
X5608284Y-3584284D01*
X5742284Y-3966284D02*
X5742284Y-3909715D01*
X5685715Y-3909715D01*
X5685715Y-3966284D01*
X5742284Y-3966284D01*
X5742284Y-4728285D02*
X5742284Y-4671716D01*
X5685715Y-4671716D01*
X5685715Y-4728285D01*
X5742284Y-4728285D01*
X5996284Y-3966284D02*
X5996284Y-3909715D01*
X5939715Y-3909715D01*
X5939715Y-3966284D01*
X5996284Y-3966284D01*
X5996284Y-4728285D02*
X5996284Y-4671716D01*
X5939715Y-4671716D01*
X5939715Y-4728285D01*
X5996284Y-4728285D01*
X6001284Y-5057485D02*
X6001284Y-5000916D01*
X5944715Y-5000916D01*
X5944715Y-5057485D01*
X6001284Y-5057485D01*
X6120284Y-3584284D02*
X6120284Y-3527715D01*
X6063715Y-3527715D01*
X6063715Y-3584284D01*
X6120284Y-3584284D01*
X6250284Y-3966284D02*
X6250284Y-3909715D01*
X6193715Y-3909715D01*
X6193715Y-3966284D01*
X6250284Y-3966284D01*
X6250284Y-4728285D02*
X6250284Y-4671716D01*
X6193715Y-4671716D01*
X6193715Y-4728285D01*
X6250284Y-4728285D01*
X6501284Y-5057485D02*
X6501284Y-5000916D01*
X6444715Y-5000916D01*
X6444715Y-5057485D01*
X6501284Y-5057485D01*
X6504284Y-3966284D02*
X6504284Y-3909715D01*
X6447715Y-3909715D01*
X6447715Y-3966284D01*
X6504284Y-3966284D01*
X6504284Y-4728285D02*
X6504284Y-4671716D01*
X6447715Y-4671716D01*
X6447715Y-4728285D01*
X6504284Y-4728285D01*
X6608284Y-3584284D02*
X6608284Y-3527715D01*
X6551715Y-3527715D01*
X6551715Y-3584284D01*
X6608284Y-3584284D01*
X6758284Y-3966284D02*
X6758284Y-3909715D01*
X6701715Y-3909715D01*
X6701715Y-3966284D01*
X6758284Y-3966284D01*
X6758284Y-4728285D02*
X6758284Y-4671716D01*
X6701715Y-4671716D01*
X6701715Y-4728285D01*
X6758284Y-4728285D01*
X7012284Y-3966284D02*
X7012284Y-3909715D01*
X6955715Y-3909715D01*
X6955715Y-3966284D01*
X7012284Y-3966284D01*
X7012284Y-4728285D02*
X7012284Y-4671716D01*
X6955715Y-4671716D01*
X6955715Y-4728285D01*
X7012284Y-4728285D01*
X7140284Y-3584284D02*
X7140284Y-3527715D01*
X7083715Y-3527715D01*
X7083715Y-3584284D01*
X7140284Y-3584284D01*
X7266284Y-3966284D02*
X7266284Y-3909715D01*
X7209715Y-3909715D01*
X7209715Y-3966284D01*
X7266284Y-3966284D01*
X7266284Y-4728285D02*
X7266284Y-4671716D01*
X7209715Y-4671716D01*
X7209715Y-4728285D01*
X7266284Y-4728285D01*
X7445084Y-9960205D02*
X7445084Y-9903636D01*
X7388515Y-9903636D01*
X7388515Y-9960205D01*
X7445084Y-9960205D01*
X7469484Y-5514685D02*
X7469484Y-5458116D01*
X7412915Y-5458116D01*
X7412915Y-5514685D01*
X7469484Y-5514685D01*
X7469484Y-5768684D02*
X7469484Y-5712115D01*
X7412915Y-5712115D01*
X7412915Y-5768684D01*
X7469484Y-5768684D01*
X7469484Y-6022684D02*
X7469484Y-5966115D01*
X7412915Y-5966115D01*
X7412915Y-6022684D01*
X7469484Y-6022684D01*
X7469484Y-6276684D02*
X7469484Y-6220115D01*
X7412915Y-6220115D01*
X7412915Y-6276684D01*
X7469484Y-6276684D01*
X7469484Y-6530684D02*
X7469484Y-6474115D01*
X7412915Y-6474115D01*
X7412915Y-6530684D01*
X7469484Y-6530684D01*
X7469484Y-6784684D02*
X7469484Y-6728115D01*
X7412915Y-6728115D01*
X7412915Y-6784684D01*
X7469484Y-6784684D01*
X7469484Y-7038684D02*
X7469484Y-6982115D01*
X7412915Y-6982115D01*
X7412915Y-7038684D01*
X7469484Y-7038684D01*
X7469484Y-7292684D02*
X7469484Y-7236115D01*
X7412915Y-7236115D01*
X7412915Y-7292684D01*
X7469484Y-7292684D01*
X7520284Y-3966284D02*
X7520284Y-3909715D01*
X7463715Y-3909715D01*
X7463715Y-3966284D01*
X7520284Y-3966284D01*
X7520284Y-4728285D02*
X7520284Y-4671716D01*
X7463715Y-4671716D01*
X7463715Y-4728285D01*
X7520284Y-4728285D01*
X7573584Y-8503045D02*
X7573584Y-8446476D01*
X7517015Y-8446476D01*
X7517015Y-8503045D01*
X7573584Y-8503045D01*
X7573584Y-9265045D02*
X7573584Y-9208476D01*
X7517015Y-9208476D01*
X7517015Y-9265045D01*
X7573584Y-9265045D01*
X7576084Y-7749884D02*
X7576084Y-7693315D01*
X7519515Y-7693315D01*
X7519515Y-7749884D01*
X7576084Y-7749884D01*
X7640284Y-3584284D02*
X7640284Y-3527715D01*
X7583715Y-3527715D01*
X7583715Y-3584284D01*
X7640284Y-3584284D01*
X7774284Y-3966284D02*
X7774284Y-3909715D01*
X7717715Y-3909715D01*
X7717715Y-3966284D01*
X7774284Y-3966284D01*
X7774284Y-4728285D02*
X7774284Y-4671716D01*
X7717715Y-4671716D01*
X7717715Y-4728285D01*
X7774284Y-4728285D01*
X7827584Y-8503045D02*
X7827584Y-8446476D01*
X7771015Y-8446476D01*
X7771015Y-8503045D01*
X7827584Y-8503045D01*
X7827584Y-9265045D02*
X7827584Y-9208476D01*
X7771015Y-9208476D01*
X7771015Y-9265045D01*
X7827584Y-9265045D01*
X8028284Y-3966284D02*
X8028284Y-3909715D01*
X7971715Y-3909715D01*
X7971715Y-3966284D01*
X8028284Y-3966284D01*
X8028284Y-4728285D02*
X8028284Y-4671716D01*
X7971715Y-4671716D01*
X7971715Y-4728285D01*
X8028284Y-4728285D01*
X8076084Y-7749884D02*
X8076084Y-7693315D01*
X8019515Y-7693315D01*
X8019515Y-7749884D01*
X8076084Y-7749884D01*
X8081584Y-8503045D02*
X8081584Y-8446476D01*
X8025015Y-8446476D01*
X8025015Y-8503045D01*
X8081584Y-8503045D01*
X8081584Y-9265045D02*
X8081584Y-9208476D01*
X8025015Y-9208476D01*
X8025015Y-9265045D01*
X8081584Y-9265045D01*
X8207084Y-9960205D02*
X8207084Y-9903636D01*
X8150515Y-9903636D01*
X8150515Y-9960205D01*
X8207084Y-9960205D01*
X8231484Y-5514685D02*
X8231484Y-5458116D01*
X8174915Y-5458116D01*
X8174915Y-5514685D01*
X8231484Y-5514685D01*
X8231484Y-5768684D02*
X8231484Y-5712115D01*
X8174915Y-5712115D01*
X8174915Y-5768684D01*
X8231484Y-5768684D01*
X8231484Y-6022684D02*
X8231484Y-5966115D01*
X8174915Y-5966115D01*
X8174915Y-6022684D01*
X8231484Y-6022684D01*
X8231484Y-6276684D02*
X8231484Y-6220115D01*
X8174915Y-6220115D01*
X8174915Y-6276684D01*
X8231484Y-6276684D01*
X8231484Y-6530684D02*
X8231484Y-6474115D01*
X8174915Y-6474115D01*
X8174915Y-6530684D01*
X8231484Y-6530684D01*
X8231484Y-6784684D02*
X8231484Y-6728115D01*
X8174915Y-6728115D01*
X8174915Y-6784684D01*
X8231484Y-6784684D01*
X8231484Y-7038684D02*
X8231484Y-6982115D01*
X8174915Y-6982115D01*
X8174915Y-7038684D01*
X8231484Y-7038684D01*
X8231484Y-7292684D02*
X8231484Y-7236115D01*
X8174915Y-7236115D01*
X8174915Y-7292684D01*
X8231484Y-7292684D01*
D10*
X2476500Y-4169600D02*
X2526500Y-4119600D01*
X2476500Y-4069600D01*
X2426500Y-4119600D01*
X2476500Y-4169600D01*
X2476500Y-4469600D02*
X2526500Y-4419600D01*
X2476500Y-4369600D01*
X2426500Y-4419600D01*
X2476500Y-4469600D01*
X2476500Y-4769600D02*
X2526500Y-4719600D01*
X2476500Y-4669600D01*
X2426500Y-4719600D01*
X2476500Y-4769600D01*
X2565400Y-6400000D02*
X2615400Y-6350000D01*
X2565400Y-6300000D01*
X2515400Y-6350000D01*
X2565400Y-6400000D01*
X2565400Y-6654000D02*
X2615400Y-6604000D01*
X2565400Y-6554000D01*
X2515400Y-6604000D01*
X2565400Y-6654000D01*
X7701000Y-2844000D02*
X7751000Y-2794000D01*
X7701000Y-2744000D01*
X7651000Y-2794000D01*
X7701000Y-2844000D01*
X8001000Y-2844000D02*
X8051000Y-2794000D01*
X8001000Y-2744000D01*
X7951000Y-2794000D01*
X8001000Y-2844000D01*
X8301000Y-2844000D02*
X8351000Y-2794000D01*
X8301000Y-2744000D01*
X8251000Y-2794000D01*
X8301000Y-2844000D01*
X9067800Y-8736800D02*
X9117800Y-8686800D01*
X9067800Y-8636800D01*
X9017800Y-8686800D01*
X9067800Y-8736800D01*
D11*
X9117800Y-8786800D02*
X9117800Y-8586800D01*
X9017800Y-8786800D02*
X9017800Y-8586800D01*
X9117800Y-8586800D02*
G75*
G03*
X9017800Y-8586800I-50000J0D01*
G01*
X9017800Y-8786800D02*
G75*
G03*
X9117800Y-8786800I50000J0D01*
G01*
D10*
X9367800Y-8266800D02*
X9417800Y-8216800D01*
X9367800Y-8166800D01*
X9317800Y-8216800D01*
X9367800Y-8266800D01*
D11*
X9467800Y-8166800D02*
X9267800Y-8166800D01*
X9467800Y-8266800D02*
X9267800Y-8266800D01*
X9267800Y-8166800D02*
G75*
G03*
X9267800Y-8266800I0J-50000D01*
G01*
X9467800Y-8266800D02*
G75*
G03*
X9467800Y-8166800I0J50000D01*
G01*
D10*
X9667800Y-8736800D02*
X9717800Y-8686800D01*
X9667800Y-8636800D01*
X9617800Y-8686800D01*
X9667800Y-8736800D01*
D11*
X9717800Y-8786800D02*
X9717800Y-8586800D01*
X9617800Y-8786800D02*
X9617800Y-8586800D01*
X9717800Y-8586800D02*
G75*
G03*
X9617800Y-8586800I-50000J0D01*
G01*
X9617800Y-8786800D02*
G75*
G03*
X9717800Y-8786800I50000J0D01*
G01*
D10*
X10058400Y-5053800D02*
X10108400Y-5003800D01*
X10058400Y-4953800D01*
X10008400Y-5003800D01*
X10058400Y-5053800D01*
X10058400Y-5307800D02*
X10108400Y-5257800D01*
X10058400Y-5207800D01*
X10008400Y-5257800D01*
X10058400Y-5307800D01*
X10058400Y-5561800D02*
X10108400Y-5511800D01*
X10058400Y-5461800D01*
X10008400Y-5511800D01*
X10058400Y-5561800D01*
X10210800Y-3712400D02*
X10260800Y-3662400D01*
X10210800Y-3612400D01*
X10160800Y-3662400D01*
X10210800Y-3712400D01*
X10210800Y-4012400D02*
X10260800Y-3962400D01*
X10210800Y-3912400D01*
X10160800Y-3962400D01*
X10210800Y-4012400D01*
X10210800Y-4312400D02*
X10260800Y-4262400D01*
X10210800Y-4212400D01*
X10160800Y-4262400D01*
X10210800Y-4312400D01*
X10312400Y-5053800D02*
X10362400Y-5003800D01*
X10312400Y-4953800D01*
X10262400Y-5003800D01*
X10312400Y-5053800D01*
X10312400Y-5307800D02*
X10362400Y-5257800D01*
X10312400Y-5207800D01*
X10262400Y-5257800D01*
X10312400Y-5307800D01*
X10312400Y-5561800D02*
X10362400Y-5511800D01*
X10312400Y-5461800D01*
X10262400Y-5511800D01*
X10312400Y-5561800D01*
D16*
X6295000Y-7403500D02*
X6405000Y-7513500D01*
X6405000Y-7403500D02*
X6295000Y-7513500D01*
X6405000Y-7458500D02*
G75*
G03*
X6405000Y-7458500I-55000J0D01*
G01*
X6295000Y-7853500D02*
X6405000Y-7963500D01*
X6405000Y-7853500D02*
X6295000Y-7963500D01*
X6405000Y-7908500D02*
G75*
G03*
X6405000Y-7908500I-55000J0D01*
G01*
X6295000Y-8673500D02*
X6405000Y-8783500D01*
X6405000Y-8673500D02*
X6295000Y-8783500D01*
X6405000Y-8728500D02*
G75*
G03*
X6405000Y-8728500I-55000J0D01*
G01*
X6295000Y-9123500D02*
X6405000Y-9233500D01*
X6405000Y-9123500D02*
X6295000Y-9233500D01*
X6405000Y-9178500D02*
G75*
G03*
X6405000Y-9178500I-55000J0D01*
G01*
X6295000Y-9943500D02*
X6405000Y-10053500D01*
X6405000Y-9943500D02*
X6295000Y-10053500D01*
X6405000Y-9998500D02*
G75*
G03*
X6405000Y-9998500I-55000J0D01*
G01*
X6295000Y-10393500D02*
X6405000Y-10503500D01*
X6405000Y-10393500D02*
X6295000Y-10503500D01*
X6405000Y-10448500D02*
G75*
G03*
X6405000Y-10448500I-55000J0D01*
G01*
X6945000Y-7403500D02*
X7055000Y-7513500D01*
X7055000Y-7403500D02*
X6945000Y-7513500D01*
X7055000Y-7458500D02*
G75*
G03*
X7055000Y-7458500I-55000J0D01*
G01*
X6945000Y-7853500D02*
X7055000Y-7963500D01*
X7055000Y-7853500D02*
X6945000Y-7963500D01*
X7055000Y-7908500D02*
G75*
G03*
X7055000Y-7908500I-55000J0D01*
G01*
X6945000Y-8673500D02*
X7055000Y-8783500D01*
X7055000Y-8673500D02*
X6945000Y-8783500D01*
X7055000Y-8728500D02*
G75*
G03*
X7055000Y-8728500I-55000J0D01*
G01*
X6945000Y-9123500D02*
X7055000Y-9233500D01*
X7055000Y-9123500D02*
X6945000Y-9233500D01*
X7055000Y-9178500D02*
G75*
G03*
X7055000Y-9178500I-55000J0D01*
G01*
X6945000Y-9943500D02*
X7055000Y-10053500D01*
X7055000Y-9943500D02*
X6945000Y-10053500D01*
X7055000Y-9998500D02*
G75*
G03*
X7055000Y-9998500I-55000J0D01*
G01*
X6945000Y-10393500D02*
X7055000Y-10503500D01*
X7055000Y-10393500D02*
X6945000Y-10503500D01*
X7055000Y-10448500D02*
G75*
G03*
X7055000Y-10448500I-55000J0D01*
G01*
D17*
X3089600Y-2734000D02*
X3209600Y-2854000D01*
X3209600Y-2734000D02*
X3089600Y-2854000D01*
X3149600Y-2734000D02*
X3149600Y-2854000D01*
X3089600Y-2794000D02*
X3209600Y-2794000D01*
X3343600Y-2734000D02*
X3463600Y-2854000D01*
X3463600Y-2734000D02*
X3343600Y-2854000D01*
X3403600Y-2734000D02*
X3403600Y-2854000D01*
X3343600Y-2794000D02*
X3463600Y-2794000D01*
X3597600Y-2734000D02*
X3717600Y-2854000D01*
X3717600Y-2734000D02*
X3597600Y-2854000D01*
X3657600Y-2734000D02*
X3657600Y-2854000D01*
X3597600Y-2794000D02*
X3717600Y-2794000D01*
X3851600Y-2734000D02*
X3971600Y-2854000D01*
X3971600Y-2734000D02*
X3851600Y-2854000D01*
X3911600Y-2734000D02*
X3911600Y-2854000D01*
X3851600Y-2794000D02*
X3971600Y-2794000D01*
X4105600Y-2734000D02*
X4225600Y-2854000D01*
X4225600Y-2734000D02*
X4105600Y-2854000D01*
X4165600Y-2734000D02*
X4165600Y-2854000D01*
X4105600Y-2794000D02*
X4225600Y-2794000D01*
X4359600Y-2734000D02*
X4479600Y-2854000D01*
X4479600Y-2734000D02*
X4359600Y-2854000D01*
X4419600Y-2734000D02*
X4419600Y-2854000D01*
X4359600Y-2794000D02*
X4479600Y-2794000D01*
X4613600Y-2734000D02*
X4733600Y-2854000D01*
X4733600Y-2734000D02*
X4613600Y-2854000D01*
X4673600Y-2734000D02*
X4673600Y-2854000D01*
X4613600Y-2794000D02*
X4733600Y-2794000D01*
X4867600Y-2734000D02*
X4987600Y-2854000D01*
X4987600Y-2734000D02*
X4867600Y-2854000D01*
X4927600Y-2734000D02*
X4927600Y-2854000D01*
X4867600Y-2794000D02*
X4987600Y-2794000D01*
X5121600Y-2734000D02*
X5241600Y-2854000D01*
X5241600Y-2734000D02*
X5121600Y-2854000D01*
X5181600Y-2734000D02*
X5181600Y-2854000D01*
X5121600Y-2794000D02*
X5241600Y-2794000D01*
X5375600Y-2734000D02*
X5495600Y-2854000D01*
X5495600Y-2734000D02*
X5375600Y-2854000D01*
X5435600Y-2734000D02*
X5435600Y-2854000D01*
X5375600Y-2794000D02*
X5495600Y-2794000D01*
X5629600Y-2734000D02*
X5749600Y-2854000D01*
X5749600Y-2734000D02*
X5629600Y-2854000D01*
X5689600Y-2734000D02*
X5689600Y-2854000D01*
X5629600Y-2794000D02*
X5749600Y-2794000D01*
X5883600Y-2734000D02*
X6003600Y-2854000D01*
X6003600Y-2734000D02*
X5883600Y-2854000D01*
X5943600Y-2734000D02*
X5943600Y-2854000D01*
X5883600Y-2794000D02*
X6003600Y-2794000D01*
X6137600Y-2734000D02*
X6257600Y-2854000D01*
X6257600Y-2734000D02*
X6137600Y-2854000D01*
X6197600Y-2734000D02*
X6197600Y-2854000D01*
X6137600Y-2794000D02*
X6257600Y-2794000D01*
X6391600Y-2734000D02*
X6511600Y-2854000D01*
X6511600Y-2734000D02*
X6391600Y-2854000D01*
X6451600Y-2734000D02*
X6451600Y-2854000D01*
X6391600Y-2794000D02*
X6511600Y-2794000D01*
X6645600Y-2734000D02*
X6765600Y-2854000D01*
X6765600Y-2734000D02*
X6645600Y-2854000D01*
X6705600Y-2734000D02*
X6705600Y-2854000D01*
X6645600Y-2794000D02*
X6765600Y-2794000D01*
X6899600Y-2734000D02*
X7019600Y-2854000D01*
X7019600Y-2734000D02*
X6899600Y-2854000D01*
X6959600Y-2734000D02*
X6959600Y-2854000D01*
X6899600Y-2794000D02*
X7019600Y-2794000D01*
D18*
X8578000Y-9790000D02*
X8718000Y-9930000D01*
X8718000Y-9790000D02*
X8578000Y-9930000D01*
X8697498Y-9909498D02*
X8697498Y-9810502D01*
X8598502Y-9810502D01*
X8598502Y-9909498D01*
X8697498Y-9909498D01*
X8828000Y-9540000D02*
X8968000Y-9680000D01*
X8968000Y-9540000D02*
X8828000Y-9680000D01*
X8947498Y-9659498D02*
X8947498Y-9560502D01*
X8848502Y-9560502D01*
X8848502Y-9659498D01*
X8947498Y-9659498D01*
X8828000Y-10790000D02*
X8968000Y-10930000D01*
X8968000Y-10790000D02*
X8828000Y-10930000D01*
X8947498Y-10909498D02*
X8947498Y-10810502D01*
X8848502Y-10810502D01*
X8848502Y-10909498D01*
X8947498Y-10909498D01*
X9328000Y-9790000D02*
X9468000Y-9930000D01*
X9468000Y-9790000D02*
X9328000Y-9930000D01*
X9447498Y-9909498D02*
X9447498Y-9810502D01*
X9348502Y-9810502D01*
X9348502Y-9909498D01*
X9447498Y-9909498D01*
X9828000Y-9540000D02*
X9968000Y-9680000D01*
X9968000Y-9540000D02*
X9828000Y-9680000D01*
X9947498Y-9659498D02*
X9947498Y-9560502D01*
X9848502Y-9560502D01*
X9848502Y-9659498D01*
X9947498Y-9659498D01*
X9828000Y-10790000D02*
X9968000Y-10930000D01*
X9968000Y-10790000D02*
X9828000Y-10930000D01*
X9947498Y-10909498D02*
X9947498Y-10810502D01*
X9848502Y-10810502D01*
X9848502Y-10909498D01*
X9947498Y-10909498D01*
X10078000Y-9790000D02*
X10218000Y-9930000D01*
X10218000Y-9790000D02*
X10078000Y-9930000D01*
X10197498Y-9909498D02*
X10197498Y-9810502D01*
X10098502Y-9810502D01*
X10098502Y-9909498D01*
X10197498Y-9909498D01*
D19*
X3051200Y-6988000D02*
X3198200Y-7135000D01*
X3198200Y-6988000D02*
X3051200Y-7135000D01*
X3124700Y-7135000D02*
X3198200Y-7061500D01*
X3124700Y-6988000D01*
X3051200Y-7061500D01*
X3124700Y-7135000D01*
X3051200Y-10785000D02*
X3198200Y-10932000D01*
X3198200Y-10785000D02*
X3051200Y-10932000D01*
X3124700Y-10932000D02*
X3198200Y-10858500D01*
X3124700Y-10785000D01*
X3051200Y-10858500D01*
X3124700Y-10932000D01*
X4943000Y-6988000D02*
X5090000Y-7135000D01*
X5090000Y-6988000D02*
X4943000Y-7135000D01*
X5016500Y-7135000D02*
X5090000Y-7061500D01*
X5016500Y-6988000D01*
X4943000Y-7061500D01*
X5016500Y-7135000D01*
X4943000Y-10785000D02*
X5090000Y-10932000D01*
X5090000Y-10785000D02*
X4943000Y-10932000D01*
X5016500Y-10932000D02*
X5090000Y-10858500D01*
X5016500Y-10785000D01*
X4943000Y-10858500D01*
X5016500Y-10932000D01*
D20*
X2476500Y-3734600D02*
X2476500Y-3894600D01*
X2396500Y-3814600D02*
X2556500Y-3814600D01*
X2556500Y-3814600D02*
G75*
G03*
X2556500Y-3814600I-80000J0D01*
G01*
X2476500Y-4944600D02*
X2476500Y-5104600D01*
X2396500Y-5024600D02*
X2556500Y-5024600D01*
X2556500Y-5024600D02*
G75*
G03*
X2556500Y-5024600I-80000J0D01*
G01*
X7396000Y-2714000D02*
X7396000Y-2874000D01*
X7316000Y-2794000D02*
X7476000Y-2794000D01*
X7476000Y-2794000D02*
G75*
G03*
X7476000Y-2794000I-80000J0D01*
G01*
X8606000Y-2714000D02*
X8606000Y-2874000D01*
X8526000Y-2794000D02*
X8686000Y-2794000D01*
X8686000Y-2794000D02*
G75*
G03*
X8686000Y-2794000I-80000J0D01*
G01*
X10210800Y-3277400D02*
X10210800Y-3437400D01*
X10130800Y-3357400D02*
X10290800Y-3357400D01*
X10290800Y-3357400D02*
G75*
G03*
X10290800Y-3357400I-80000J0D01*
G01*
X10210800Y-4487400D02*
X10210800Y-4647400D01*
X10130800Y-4567400D02*
X10290800Y-4567400D01*
X10290800Y-4567400D02*
G75*
G03*
X10290800Y-4567400I-80000J0D01*
G01*
D21*
X2688079Y-2882389D02*
X2688079Y-2705611D01*
X2511301Y-2705611D01*
X2511301Y-2882389D01*
X2688079Y-2882389D01*
X2724690Y-2794000D02*
G75*
G03*
X2724690Y-2794000I-125000J0D01*
G01*
X2688079Y-5982459D02*
X2688079Y-5805681D01*
X2511301Y-5805681D01*
X2511301Y-5982459D01*
X2688079Y-5982459D01*
X2724690Y-5894070D02*
G75*
G03*
X2724690Y-5894070I-125000J0D01*
G01*
X10187937Y-5982459D02*
X10187937Y-5805681D01*
X10011159Y-5805681D01*
X10011159Y-5982459D01*
X10187937Y-5982459D01*
X10224548Y-5894070D02*
G75*
G03*
X10224548Y-5894070I-125000J0D01*
G01*
X10187989Y-2882389D02*
X10187989Y-2705611D01*
X10011211Y-2705611D01*
X10011211Y-2882389D01*
X10187989Y-2882389D01*
X10224600Y-2794000D02*
G75*
G03*
X10224600Y-2794000I-125000J0D01*
G01*
D11*
X2411219Y-11491476D02*
X2411219Y-11291476D01*
X2458838Y-11291476D01*
X2487410Y-11301000D01*
X2506457Y-11320048D01*
X2515981Y-11339095D01*
X2525505Y-11377190D01*
X2525505Y-11405762D01*
X2515981Y-11443857D01*
X2506457Y-11462905D01*
X2487410Y-11481952D01*
X2458838Y-11491476D01*
X2411219Y-11491476D01*
X2611219Y-11491476D02*
X2611219Y-11358143D01*
X2611219Y-11396238D02*
X2620743Y-11377190D01*
X2630267Y-11367667D01*
X2649314Y-11358143D01*
X2668362Y-11358143D01*
X2735029Y-11491476D02*
X2735029Y-11358143D01*
X2735029Y-11291476D02*
X2725505Y-11301000D01*
X2735029Y-11310524D01*
X2744552Y-11301000D01*
X2735029Y-11291476D01*
X2735029Y-11310524D01*
X2858838Y-11491476D02*
X2839790Y-11481952D01*
X2830267Y-11462905D01*
X2830267Y-11291476D01*
X2963600Y-11491476D02*
X2944552Y-11481952D01*
X2935028Y-11462905D01*
X2935028Y-11291476D01*
X3192171Y-11491476D02*
X3192171Y-11291476D01*
X3258838Y-11434333D01*
X3325505Y-11291476D01*
X3325505Y-11491476D01*
X3506457Y-11491476D02*
X3506457Y-11386714D01*
X3496933Y-11367667D01*
X3477886Y-11358143D01*
X3439790Y-11358143D01*
X3420743Y-11367667D01*
X3506457Y-11481952D02*
X3487409Y-11491476D01*
X3439790Y-11491476D01*
X3420743Y-11481952D01*
X3411219Y-11462905D01*
X3411219Y-11443857D01*
X3420743Y-11424809D01*
X3439790Y-11415286D01*
X3487409Y-11415286D01*
X3506457Y-11405762D01*
X3601695Y-11358143D02*
X3601695Y-11558143D01*
X3601695Y-11367667D02*
X3620743Y-11358143D01*
X3658838Y-11358143D01*
X3677886Y-11367667D01*
X3687409Y-11377190D01*
X3696933Y-11396238D01*
X3696933Y-11453381D01*
X3687409Y-11472428D01*
X3677886Y-11481952D01*
X3658838Y-11491476D01*
X3620743Y-11491476D01*
X3601695Y-11481952D01*
X3782648Y-11472428D02*
X3792171Y-11481952D01*
X3782648Y-11491476D01*
X3773124Y-11481952D01*
X3782648Y-11472428D01*
X3782648Y-11491476D01*
X3782648Y-11367667D02*
X3792171Y-11377190D01*
X3782648Y-11386714D01*
X3773124Y-11377190D01*
X3782648Y-11367667D01*
X3782648Y-11386714D01*
D12*
X2113600Y-11801000D02*
X2153600Y-11841000D01*
X2153600Y-11801000D02*
X2113600Y-11841000D01*
D11*
X2449314Y-11711476D02*
X2468362Y-11711476D01*
X2487410Y-11721000D01*
X2496933Y-11730524D01*
X2506457Y-11749571D01*
X2515981Y-11787667D01*
X2515981Y-11835286D01*
X2506457Y-11873381D01*
X2496933Y-11892428D01*
X2487410Y-11901952D01*
X2468362Y-11911476D01*
X2449314Y-11911476D01*
X2430267Y-11901952D01*
X2420743Y-11892428D01*
X2411219Y-11873381D01*
X2401695Y-11835286D01*
X2401695Y-11787667D01*
X2411219Y-11749571D01*
X2420743Y-11730524D01*
X2430267Y-11721000D01*
X2449314Y-11711476D01*
X2601695Y-11892428D02*
X2611219Y-11901952D01*
X2601695Y-11911476D01*
X2592171Y-11901952D01*
X2601695Y-11892428D01*
X2601695Y-11911476D01*
X2782648Y-11778143D02*
X2782648Y-11911476D01*
X2735029Y-11701952D02*
X2687410Y-11844809D01*
X2811219Y-11844809D01*
X2925505Y-11711476D02*
X2944552Y-11711476D01*
X2963600Y-11721000D01*
X2973124Y-11730524D01*
X2982648Y-11749571D01*
X2992171Y-11787667D01*
X2992171Y-11835286D01*
X2982648Y-11873381D01*
X2973124Y-11892428D01*
X2963600Y-11901952D01*
X2944552Y-11911476D01*
X2925505Y-11911476D01*
X2906457Y-11901952D01*
X2896933Y-11892428D01*
X2887409Y-11873381D01*
X2877886Y-11835286D01*
X2877886Y-11787667D01*
X2887409Y-11749571D01*
X2896933Y-11730524D01*
X2906457Y-11721000D01*
X2925505Y-11711476D01*
X3115981Y-11711476D02*
X3135028Y-11711476D01*
X3154076Y-11721000D01*
X3163600Y-11730524D01*
X3173124Y-11749571D01*
X3182648Y-11787667D01*
X3182648Y-11835286D01*
X3173124Y-11873381D01*
X3163600Y-11892428D01*
X3154076Y-11901952D01*
X3135028Y-11911476D01*
X3115981Y-11911476D01*
X3096933Y-11901952D01*
X3087409Y-11892428D01*
X3077886Y-11873381D01*
X3068362Y-11835286D01*
X3068362Y-11787667D01*
X3077886Y-11749571D01*
X3087409Y-11730524D01*
X3096933Y-11721000D01*
X3115981Y-11711476D01*
X3268362Y-11911476D02*
X3268362Y-11778143D01*
X3268362Y-11797190D02*
X3277886Y-11787667D01*
X3296933Y-11778143D01*
X3325505Y-11778143D01*
X3344552Y-11787667D01*
X3354076Y-11806714D01*
X3354076Y-11911476D01*
X3354076Y-11806714D02*
X3363600Y-11787667D01*
X3382648Y-11778143D01*
X3411219Y-11778143D01*
X3430267Y-11787667D01*
X3439790Y-11806714D01*
X3439790Y-11911476D01*
X3535028Y-11911476D02*
X3535028Y-11778143D01*
X3535028Y-11797190D02*
X3544552Y-11787667D01*
X3563600Y-11778143D01*
X3592171Y-11778143D01*
X3611219Y-11787667D01*
X3620743Y-11806714D01*
X3620743Y-11911476D01*
X3620743Y-11806714D02*
X3630267Y-11787667D01*
X3649314Y-11778143D01*
X3677886Y-11778143D01*
X3696933Y-11787667D01*
X3706457Y-11806714D01*
X3706457Y-11911476D01*
X4096933Y-11701952D02*
X3925505Y-11959095D01*
X4354076Y-11711476D02*
X4373124Y-11711476D01*
X4392171Y-11721000D01*
X4401695Y-11730524D01*
X4411219Y-11749571D01*
X4420743Y-11787667D01*
X4420743Y-11835286D01*
X4411219Y-11873381D01*
X4401695Y-11892428D01*
X4392171Y-11901952D01*
X4373124Y-11911476D01*
X4354076Y-11911476D01*
X4335029Y-11901952D01*
X4325505Y-11892428D01*
X4315981Y-11873381D01*
X4306457Y-11835286D01*
X4306457Y-11787667D01*
X4315981Y-11749571D01*
X4325505Y-11730524D01*
X4335029Y-11721000D01*
X4354076Y-11711476D01*
X4506457Y-11892428D02*
X4515981Y-11901952D01*
X4506457Y-11911476D01*
X4496933Y-11901952D01*
X4506457Y-11892428D01*
X4506457Y-11911476D01*
X4639790Y-11711476D02*
X4658838Y-11711476D01*
X4677886Y-11721000D01*
X4687410Y-11730524D01*
X4696933Y-11749571D01*
X4706457Y-11787667D01*
X4706457Y-11835286D01*
X4696933Y-11873381D01*
X4687410Y-11892428D01*
X4677886Y-11901952D01*
X4658838Y-11911476D01*
X4639790Y-11911476D01*
X4620743Y-11901952D01*
X4611219Y-11892428D01*
X4601695Y-11873381D01*
X4592171Y-11835286D01*
X4592171Y-11787667D01*
X4601695Y-11749571D01*
X4611219Y-11730524D01*
X4620743Y-11721000D01*
X4639790Y-11711476D01*
X4896933Y-11911476D02*
X4782648Y-11911476D01*
X4839790Y-11911476D02*
X4839790Y-11711476D01*
X4820743Y-11740048D01*
X4801695Y-11759095D01*
X4782648Y-11768619D01*
X5077886Y-11711476D02*
X4982648Y-11711476D01*
X4973124Y-11806714D01*
X4982648Y-11797190D01*
X5001695Y-11787667D01*
X5049314Y-11787667D01*
X5068362Y-11797190D01*
X5077886Y-11806714D01*
X5087410Y-11825762D01*
X5087410Y-11873381D01*
X5077886Y-11892428D01*
X5068362Y-11901952D01*
X5049314Y-11911476D01*
X5001695Y-11911476D01*
X4982648Y-11901952D01*
X4973124Y-11892428D01*
X5154076Y-11711476D02*
X5287410Y-11711476D01*
X5201695Y-11911476D01*
X5354076Y-11711476D02*
X5354076Y-11749571D01*
X5430267Y-11711476D02*
X5430267Y-11749571D01*
X5725505Y-11987667D02*
X5715981Y-11978143D01*
X5696933Y-11949571D01*
X5687409Y-11930524D01*
X5677886Y-11901952D01*
X5668362Y-11854333D01*
X5668362Y-11816238D01*
X5677886Y-11768619D01*
X5687409Y-11740048D01*
X5696933Y-11721000D01*
X5715981Y-11692428D01*
X5725505Y-11682905D01*
X5906457Y-11911476D02*
X5792171Y-11911476D01*
X5849314Y-11911476D02*
X5849314Y-11711476D01*
X5830267Y-11740048D01*
X5811219Y-11759095D01*
X5792171Y-11768619D01*
X5982648Y-11730524D02*
X5992171Y-11721000D01*
X6011219Y-11711476D01*
X6058838Y-11711476D01*
X6077886Y-11721000D01*
X6087409Y-11730524D01*
X6096933Y-11749571D01*
X6096933Y-11768619D01*
X6087409Y-11797190D01*
X5973124Y-11911476D01*
X6096933Y-11911476D01*
X6335028Y-11911476D02*
X6335028Y-11711476D01*
X6420743Y-11911476D02*
X6420743Y-11806714D01*
X6411219Y-11787667D01*
X6392171Y-11778143D01*
X6363600Y-11778143D01*
X6344552Y-11787667D01*
X6335028Y-11797190D01*
X6544552Y-11911476D02*
X6525505Y-11901952D01*
X6515981Y-11892428D01*
X6506457Y-11873381D01*
X6506457Y-11816238D01*
X6515981Y-11797190D01*
X6525505Y-11787667D01*
X6544552Y-11778143D01*
X6573124Y-11778143D01*
X6592171Y-11787667D01*
X6601695Y-11797190D01*
X6611219Y-11816238D01*
X6611219Y-11873381D01*
X6601695Y-11892428D01*
X6592171Y-11901952D01*
X6573124Y-11911476D01*
X6544552Y-11911476D01*
X6725505Y-11911476D02*
X6706457Y-11901952D01*
X6696933Y-11882905D01*
X6696933Y-11711476D01*
X6877886Y-11901952D02*
X6858838Y-11911476D01*
X6820743Y-11911476D01*
X6801695Y-11901952D01*
X6792171Y-11882905D01*
X6792171Y-11806714D01*
X6801695Y-11787667D01*
X6820743Y-11778143D01*
X6858838Y-11778143D01*
X6877886Y-11787667D01*
X6887409Y-11806714D01*
X6887409Y-11825762D01*
X6792171Y-11844809D01*
X6963600Y-11901952D02*
X6982648Y-11911476D01*
X7020743Y-11911476D01*
X7039790Y-11901952D01*
X7049314Y-11882905D01*
X7049314Y-11873381D01*
X7039790Y-11854333D01*
X7020743Y-11844809D01*
X6992171Y-11844809D01*
X6973124Y-11835286D01*
X6963600Y-11816238D01*
X6963600Y-11806714D01*
X6973124Y-11787667D01*
X6992171Y-11778143D01*
X7020743Y-11778143D01*
X7039790Y-11787667D01*
X7115981Y-11987667D02*
X7125505Y-11978143D01*
X7144552Y-11949571D01*
X7154076Y-11930524D01*
X7163600Y-11901952D01*
X7173124Y-11854333D01*
X7173124Y-11816238D01*
X7163600Y-11768619D01*
X7154076Y-11740048D01*
X7144552Y-11721000D01*
X7125505Y-11692428D01*
X7115981Y-11682905D01*
D13*
X2153600Y-12085000D02*
G75*
G03*
X2153600Y-12085000I-30000J0D01*
G01*
D11*
X2449314Y-11975476D02*
X2468362Y-11975476D01*
X2487410Y-11985000D01*
X2496933Y-11994524D01*
X2506457Y-12013571D01*
X2515981Y-12051667D01*
X2515981Y-12099286D01*
X2506457Y-12137381D01*
X2496933Y-12156428D01*
X2487410Y-12165952D01*
X2468362Y-12175476D01*
X2449314Y-12175476D01*
X2430267Y-12165952D01*
X2420743Y-12156428D01*
X2411219Y-12137381D01*
X2401695Y-12099286D01*
X2401695Y-12051667D01*
X2411219Y-12013571D01*
X2420743Y-11994524D01*
X2430267Y-11985000D01*
X2449314Y-11975476D01*
X2601695Y-12156428D02*
X2611219Y-12165952D01*
X2601695Y-12175476D01*
X2592171Y-12165952D01*
X2601695Y-12156428D01*
X2601695Y-12175476D01*
X2782648Y-11975476D02*
X2744552Y-11975476D01*
X2725505Y-11985000D01*
X2715981Y-11994524D01*
X2696933Y-12023095D01*
X2687410Y-12061190D01*
X2687410Y-12137381D01*
X2696933Y-12156428D01*
X2706457Y-12165952D01*
X2725505Y-12175476D01*
X2763600Y-12175476D01*
X2782648Y-12165952D01*
X2792171Y-12156428D01*
X2801695Y-12137381D01*
X2801695Y-12089762D01*
X2792171Y-12070714D01*
X2782648Y-12061190D01*
X2763600Y-12051667D01*
X2725505Y-12051667D01*
X2706457Y-12061190D01*
X2696933Y-12070714D01*
X2687410Y-12089762D01*
X2925505Y-11975476D02*
X2944552Y-11975476D01*
X2963600Y-11985000D01*
X2973124Y-11994524D01*
X2982648Y-12013571D01*
X2992171Y-12051667D01*
X2992171Y-12099286D01*
X2982648Y-12137381D01*
X2973124Y-12156428D01*
X2963600Y-12165952D01*
X2944552Y-12175476D01*
X2925505Y-12175476D01*
X2906457Y-12165952D01*
X2896933Y-12156428D01*
X2887409Y-12137381D01*
X2877886Y-12099286D01*
X2877886Y-12051667D01*
X2887409Y-12013571D01*
X2896933Y-11994524D01*
X2906457Y-11985000D01*
X2925505Y-11975476D01*
X3115981Y-11975476D02*
X3135028Y-11975476D01*
X3154076Y-11985000D01*
X3163600Y-11994524D01*
X3173124Y-12013571D01*
X3182648Y-12051667D01*
X3182648Y-12099286D01*
X3173124Y-12137381D01*
X3163600Y-12156428D01*
X3154076Y-12165952D01*
X3135028Y-12175476D01*
X3115981Y-12175476D01*
X3096933Y-12165952D01*
X3087409Y-12156428D01*
X3077886Y-12137381D01*
X3068362Y-12099286D01*
X3068362Y-12051667D01*
X3077886Y-12013571D01*
X3087409Y-11994524D01*
X3096933Y-11985000D01*
X3115981Y-11975476D01*
X3268362Y-12175476D02*
X3268362Y-12042143D01*
X3268362Y-12061190D02*
X3277886Y-12051667D01*
X3296933Y-12042143D01*
X3325505Y-12042143D01*
X3344552Y-12051667D01*
X3354076Y-12070714D01*
X3354076Y-12175476D01*
X3354076Y-12070714D02*
X3363600Y-12051667D01*
X3382648Y-12042143D01*
X3411219Y-12042143D01*
X3430267Y-12051667D01*
X3439790Y-12070714D01*
X3439790Y-12175476D01*
X3535028Y-12175476D02*
X3535028Y-12042143D01*
X3535028Y-12061190D02*
X3544552Y-12051667D01*
X3563600Y-12042143D01*
X3592171Y-12042143D01*
X3611219Y-12051667D01*
X3620743Y-12070714D01*
X3620743Y-12175476D01*
X3620743Y-12070714D02*
X3630267Y-12051667D01*
X3649314Y-12042143D01*
X3677886Y-12042143D01*
X3696933Y-12051667D01*
X3706457Y-12070714D01*
X3706457Y-12175476D01*
X4096933Y-11965952D02*
X3925505Y-12223095D01*
X4354076Y-11975476D02*
X4373124Y-11975476D01*
X4392171Y-11985000D01*
X4401695Y-11994524D01*
X4411219Y-12013571D01*
X4420743Y-12051667D01*
X4420743Y-12099286D01*
X4411219Y-12137381D01*
X4401695Y-12156428D01*
X4392171Y-12165952D01*
X4373124Y-12175476D01*
X4354076Y-12175476D01*
X4335029Y-12165952D01*
X4325505Y-12156428D01*
X4315981Y-12137381D01*
X4306457Y-12099286D01*
X4306457Y-12051667D01*
X4315981Y-12013571D01*
X4325505Y-11994524D01*
X4335029Y-11985000D01*
X4354076Y-11975476D01*
X4506457Y-12156428D02*
X4515981Y-12165952D01*
X4506457Y-12175476D01*
X4496933Y-12165952D01*
X4506457Y-12156428D01*
X4506457Y-12175476D01*
X4639790Y-11975476D02*
X4658838Y-11975476D01*
X4677886Y-11985000D01*
X4687410Y-11994524D01*
X4696933Y-12013571D01*
X4706457Y-12051667D01*
X4706457Y-12099286D01*
X4696933Y-12137381D01*
X4687410Y-12156428D01*
X4677886Y-12165952D01*
X4658838Y-12175476D01*
X4639790Y-12175476D01*
X4620743Y-12165952D01*
X4611219Y-12156428D01*
X4601695Y-12137381D01*
X4592171Y-12099286D01*
X4592171Y-12051667D01*
X4601695Y-12013571D01*
X4611219Y-11994524D01*
X4620743Y-11985000D01*
X4639790Y-11975476D01*
X4782648Y-11994524D02*
X4792171Y-11985000D01*
X4811219Y-11975476D01*
X4858838Y-11975476D01*
X4877886Y-11985000D01*
X4887410Y-11994524D01*
X4896933Y-12013571D01*
X4896933Y-12032619D01*
X4887410Y-12061190D01*
X4773124Y-12175476D01*
X4896933Y-12175476D01*
X4963600Y-11975476D02*
X5087410Y-11975476D01*
X5020743Y-12051667D01*
X5049314Y-12051667D01*
X5068362Y-12061190D01*
X5077886Y-12070714D01*
X5087410Y-12089762D01*
X5087410Y-12137381D01*
X5077886Y-12156428D01*
X5068362Y-12165952D01*
X5049314Y-12175476D01*
X4992171Y-12175476D01*
X4973124Y-12165952D01*
X4963600Y-12156428D01*
X5258838Y-11975476D02*
X5220743Y-11975476D01*
X5201695Y-11985000D01*
X5192171Y-11994524D01*
X5173124Y-12023095D01*
X5163600Y-12061190D01*
X5163600Y-12137381D01*
X5173124Y-12156428D01*
X5182648Y-12165952D01*
X5201695Y-12175476D01*
X5239790Y-12175476D01*
X5258838Y-12165952D01*
X5268362Y-12156428D01*
X5277886Y-12137381D01*
X5277886Y-12089762D01*
X5268362Y-12070714D01*
X5258838Y-12061190D01*
X5239790Y-12051667D01*
X5201695Y-12051667D01*
X5182648Y-12061190D01*
X5173124Y-12070714D01*
X5163600Y-12089762D01*
X5354076Y-11975476D02*
X5354076Y-12013571D01*
X5430267Y-11975476D02*
X5430267Y-12013571D01*
X5725505Y-12251667D02*
X5715981Y-12242143D01*
X5696933Y-12213571D01*
X5687409Y-12194524D01*
X5677886Y-12165952D01*
X5668362Y-12118333D01*
X5668362Y-12080238D01*
X5677886Y-12032619D01*
X5687409Y-12004048D01*
X5696933Y-11985000D01*
X5715981Y-11956428D01*
X5725505Y-11946905D01*
X5887409Y-11975476D02*
X5849314Y-11975476D01*
X5830267Y-11985000D01*
X5820743Y-11994524D01*
X5801695Y-12023095D01*
X5792171Y-12061190D01*
X5792171Y-12137381D01*
X5801695Y-12156428D01*
X5811219Y-12165952D01*
X5830267Y-12175476D01*
X5868362Y-12175476D01*
X5887409Y-12165952D01*
X5896933Y-12156428D01*
X5906457Y-12137381D01*
X5906457Y-12089762D01*
X5896933Y-12070714D01*
X5887409Y-12061190D01*
X5868362Y-12051667D01*
X5830267Y-12051667D01*
X5811219Y-12061190D01*
X5801695Y-12070714D01*
X5792171Y-12089762D01*
X6144552Y-12175476D02*
X6144552Y-11975476D01*
X6230267Y-12175476D02*
X6230267Y-12070714D01*
X6220743Y-12051667D01*
X6201695Y-12042143D01*
X6173124Y-12042143D01*
X6154076Y-12051667D01*
X6144552Y-12061190D01*
X6354076Y-12175476D02*
X6335028Y-12165952D01*
X6325505Y-12156428D01*
X6315981Y-12137381D01*
X6315981Y-12080238D01*
X6325505Y-12061190D01*
X6335028Y-12051667D01*
X6354076Y-12042143D01*
X6382648Y-12042143D01*
X6401695Y-12051667D01*
X6411219Y-12061190D01*
X6420743Y-12080238D01*
X6420743Y-12137381D01*
X6411219Y-12156428D01*
X6401695Y-12165952D01*
X6382648Y-12175476D01*
X6354076Y-12175476D01*
X6535028Y-12175476D02*
X6515981Y-12165952D01*
X6506457Y-12146905D01*
X6506457Y-11975476D01*
X6687409Y-12165952D02*
X6668362Y-12175476D01*
X6630267Y-12175476D01*
X6611219Y-12165952D01*
X6601695Y-12146905D01*
X6601695Y-12070714D01*
X6611219Y-12051667D01*
X6630267Y-12042143D01*
X6668362Y-12042143D01*
X6687409Y-12051667D01*
X6696933Y-12070714D01*
X6696933Y-12089762D01*
X6601695Y-12108809D01*
X6773124Y-12165952D02*
X6792171Y-12175476D01*
X6830267Y-12175476D01*
X6849314Y-12165952D01*
X6858838Y-12146905D01*
X6858838Y-12137381D01*
X6849314Y-12118333D01*
X6830267Y-12108809D01*
X6801695Y-12108809D01*
X6782648Y-12099286D01*
X6773124Y-12080238D01*
X6773124Y-12070714D01*
X6782648Y-12051667D01*
X6801695Y-12042143D01*
X6830267Y-12042143D01*
X6849314Y-12051667D01*
X6925505Y-12251667D02*
X6935028Y-12242143D01*
X6954076Y-12213571D01*
X6963600Y-12194524D01*
X6973124Y-12165952D01*
X6982648Y-12118333D01*
X6982648Y-12080238D01*
X6973124Y-12032619D01*
X6963600Y-12004048D01*
X6954076Y-11985000D01*
X6935028Y-11956428D01*
X6925505Y-11946905D01*
D14*
X2118600Y-12314000D02*
X2118600Y-12384000D01*
X2083600Y-12349000D02*
X2153600Y-12349000D01*
D11*
X2449314Y-12239476D02*
X2468362Y-12239476D01*
X2487410Y-12249000D01*
X2496933Y-12258524D01*
X2506457Y-12277571D01*
X2515981Y-12315667D01*
X2515981Y-12363286D01*
X2506457Y-12401381D01*
X2496933Y-12420428D01*
X2487410Y-12429952D01*
X2468362Y-12439476D01*
X2449314Y-12439476D01*
X2430267Y-12429952D01*
X2420743Y-12420428D01*
X2411219Y-12401381D01*
X2401695Y-12363286D01*
X2401695Y-12315667D01*
X2411219Y-12277571D01*
X2420743Y-12258524D01*
X2430267Y-12249000D01*
X2449314Y-12239476D01*
X2601695Y-12420428D02*
X2611219Y-12429952D01*
X2601695Y-12439476D01*
X2592171Y-12429952D01*
X2601695Y-12420428D01*
X2601695Y-12439476D01*
X2677886Y-12239476D02*
X2811219Y-12239476D01*
X2725505Y-12439476D01*
X2925505Y-12239476D02*
X2944552Y-12239476D01*
X2963600Y-12249000D01*
X2973124Y-12258524D01*
X2982648Y-12277571D01*
X2992171Y-12315667D01*
X2992171Y-12363286D01*
X2982648Y-12401381D01*
X2973124Y-12420428D01*
X2963600Y-12429952D01*
X2944552Y-12439476D01*
X2925505Y-12439476D01*
X2906457Y-12429952D01*
X2896933Y-12420428D01*
X2887409Y-12401381D01*
X2877886Y-12363286D01*
X2877886Y-12315667D01*
X2887409Y-12277571D01*
X2896933Y-12258524D01*
X2906457Y-12249000D01*
X2925505Y-12239476D01*
X3115981Y-12239476D02*
X3135028Y-12239476D01*
X3154076Y-12249000D01*
X3163600Y-12258524D01*
X3173124Y-12277571D01*
X3182648Y-12315667D01*
X3182648Y-12363286D01*
X3173124Y-12401381D01*
X3163600Y-12420428D01*
X3154076Y-12429952D01*
X3135028Y-12439476D01*
X3115981Y-12439476D01*
X3096933Y-12429952D01*
X3087409Y-12420428D01*
X3077886Y-12401381D01*
X3068362Y-12363286D01*
X3068362Y-12315667D01*
X3077886Y-12277571D01*
X3087409Y-12258524D01*
X3096933Y-12249000D01*
X3115981Y-12239476D01*
X3268362Y-12439476D02*
X3268362Y-12306143D01*
X3268362Y-12325190D02*
X3277886Y-12315667D01*
X3296933Y-12306143D01*
X3325505Y-12306143D01*
X3344552Y-12315667D01*
X3354076Y-12334714D01*
X3354076Y-12439476D01*
X3354076Y-12334714D02*
X3363600Y-12315667D01*
X3382648Y-12306143D01*
X3411219Y-12306143D01*
X3430267Y-12315667D01*
X3439790Y-12334714D01*
X3439790Y-12439476D01*
X3535028Y-12439476D02*
X3535028Y-12306143D01*
X3535028Y-12325190D02*
X3544552Y-12315667D01*
X3563600Y-12306143D01*
X3592171Y-12306143D01*
X3611219Y-12315667D01*
X3620743Y-12334714D01*
X3620743Y-12439476D01*
X3620743Y-12334714D02*
X3630267Y-12315667D01*
X3649314Y-12306143D01*
X3677886Y-12306143D01*
X3696933Y-12315667D01*
X3706457Y-12334714D01*
X3706457Y-12439476D01*
X4096933Y-12229952D02*
X3925505Y-12487095D01*
X4354076Y-12239476D02*
X4373124Y-12239476D01*
X4392171Y-12249000D01*
X4401695Y-12258524D01*
X4411219Y-12277571D01*
X4420743Y-12315667D01*
X4420743Y-12363286D01*
X4411219Y-12401381D01*
X4401695Y-12420428D01*
X4392171Y-12429952D01*
X4373124Y-12439476D01*
X4354076Y-12439476D01*
X4335029Y-12429952D01*
X4325505Y-12420428D01*
X4315981Y-12401381D01*
X4306457Y-12363286D01*
X4306457Y-12315667D01*
X4315981Y-12277571D01*
X4325505Y-12258524D01*
X4335029Y-12249000D01*
X4354076Y-12239476D01*
X4506457Y-12420428D02*
X4515981Y-12429952D01*
X4506457Y-12439476D01*
X4496933Y-12429952D01*
X4506457Y-12420428D01*
X4506457Y-12439476D01*
X4639790Y-12239476D02*
X4658838Y-12239476D01*
X4677886Y-12249000D01*
X4687410Y-12258524D01*
X4696933Y-12277571D01*
X4706457Y-12315667D01*
X4706457Y-12363286D01*
X4696933Y-12401381D01*
X4687410Y-12420428D01*
X4677886Y-12429952D01*
X4658838Y-12439476D01*
X4639790Y-12439476D01*
X4620743Y-12429952D01*
X4611219Y-12420428D01*
X4601695Y-12401381D01*
X4592171Y-12363286D01*
X4592171Y-12315667D01*
X4601695Y-12277571D01*
X4611219Y-12258524D01*
X4620743Y-12249000D01*
X4639790Y-12239476D01*
X4782648Y-12258524D02*
X4792171Y-12249000D01*
X4811219Y-12239476D01*
X4858838Y-12239476D01*
X4877886Y-12249000D01*
X4887410Y-12258524D01*
X4896933Y-12277571D01*
X4896933Y-12296619D01*
X4887410Y-12325190D01*
X4773124Y-12439476D01*
X4896933Y-12439476D01*
X4963600Y-12239476D02*
X5096933Y-12239476D01*
X5011219Y-12439476D01*
X5258838Y-12239476D02*
X5220743Y-12239476D01*
X5201695Y-12249000D01*
X5192171Y-12258524D01*
X5173124Y-12287095D01*
X5163600Y-12325190D01*
X5163600Y-12401381D01*
X5173124Y-12420428D01*
X5182648Y-12429952D01*
X5201695Y-12439476D01*
X5239790Y-12439476D01*
X5258838Y-12429952D01*
X5268362Y-12420428D01*
X5277886Y-12401381D01*
X5277886Y-12353762D01*
X5268362Y-12334714D01*
X5258838Y-12325190D01*
X5239790Y-12315667D01*
X5201695Y-12315667D01*
X5182648Y-12325190D01*
X5173124Y-12334714D01*
X5163600Y-12353762D01*
X5354076Y-12239476D02*
X5354076Y-12277571D01*
X5430267Y-12239476D02*
X5430267Y-12277571D01*
X5725505Y-12515667D02*
X5715981Y-12506143D01*
X5696933Y-12477571D01*
X5687409Y-12458524D01*
X5677886Y-12429952D01*
X5668362Y-12382333D01*
X5668362Y-12344238D01*
X5677886Y-12296619D01*
X5687409Y-12268048D01*
X5696933Y-12249000D01*
X5715981Y-12220428D01*
X5725505Y-12210905D01*
X5792171Y-12258524D02*
X5801695Y-12249000D01*
X5820743Y-12239476D01*
X5868362Y-12239476D01*
X5887409Y-12249000D01*
X5896933Y-12258524D01*
X5906457Y-12277571D01*
X5906457Y-12296619D01*
X5896933Y-12325190D01*
X5782648Y-12439476D01*
X5906457Y-12439476D01*
X5982648Y-12258524D02*
X5992171Y-12249000D01*
X6011219Y-12239476D01*
X6058838Y-12239476D01*
X6077886Y-12249000D01*
X6087409Y-12258524D01*
X6096933Y-12277571D01*
X6096933Y-12296619D01*
X6087409Y-12325190D01*
X5973124Y-12439476D01*
X6096933Y-12439476D01*
X6335028Y-12439476D02*
X6335028Y-12239476D01*
X6420743Y-12439476D02*
X6420743Y-12334714D01*
X6411219Y-12315667D01*
X6392171Y-12306143D01*
X6363600Y-12306143D01*
X6344552Y-12315667D01*
X6335028Y-12325190D01*
X6544552Y-12439476D02*
X6525505Y-12429952D01*
X6515981Y-12420428D01*
X6506457Y-12401381D01*
X6506457Y-12344238D01*
X6515981Y-12325190D01*
X6525505Y-12315667D01*
X6544552Y-12306143D01*
X6573124Y-12306143D01*
X6592171Y-12315667D01*
X6601695Y-12325190D01*
X6611219Y-12344238D01*
X6611219Y-12401381D01*
X6601695Y-12420428D01*
X6592171Y-12429952D01*
X6573124Y-12439476D01*
X6544552Y-12439476D01*
X6725505Y-12439476D02*
X6706457Y-12429952D01*
X6696933Y-12410905D01*
X6696933Y-12239476D01*
X6877886Y-12429952D02*
X6858838Y-12439476D01*
X6820743Y-12439476D01*
X6801695Y-12429952D01*
X6792171Y-12410905D01*
X6792171Y-12334714D01*
X6801695Y-12315667D01*
X6820743Y-12306143D01*
X6858838Y-12306143D01*
X6877886Y-12315667D01*
X6887409Y-12334714D01*
X6887409Y-12353762D01*
X6792171Y-12372809D01*
X6963600Y-12429952D02*
X6982648Y-12439476D01*
X7020743Y-12439476D01*
X7039790Y-12429952D01*
X7049314Y-12410905D01*
X7049314Y-12401381D01*
X7039790Y-12382333D01*
X7020743Y-12372809D01*
X6992171Y-12372809D01*
X6973124Y-12363286D01*
X6963600Y-12344238D01*
X6963600Y-12334714D01*
X6973124Y-12315667D01*
X6992171Y-12306143D01*
X7020743Y-12306143D01*
X7039790Y-12315667D01*
X7115981Y-12515667D02*
X7125505Y-12506143D01*
X7144552Y-12477571D01*
X7154076Y-12458524D01*
X7163600Y-12429952D01*
X7173124Y-12382333D01*
X7173124Y-12344238D01*
X7163600Y-12296619D01*
X7154076Y-12268048D01*
X7144552Y-12249000D01*
X7125505Y-12220428D01*
X7115981Y-12210905D01*
D15*
X2141885Y-12641284D02*
X2141885Y-12584715D01*
X2085315Y-12584715D01*
X2085315Y-12641284D01*
X2141885Y-12641284D01*
D11*
X2449314Y-12503476D02*
X2468362Y-12503476D01*
X2487410Y-12513000D01*
X2496933Y-12522524D01*
X2506457Y-12541571D01*
X2515981Y-12579667D01*
X2515981Y-12627286D01*
X2506457Y-12665381D01*
X2496933Y-12684428D01*
X2487410Y-12693952D01*
X2468362Y-12703476D01*
X2449314Y-12703476D01*
X2430267Y-12693952D01*
X2420743Y-12684428D01*
X2411219Y-12665381D01*
X2401695Y-12627286D01*
X2401695Y-12579667D01*
X2411219Y-12541571D01*
X2420743Y-12522524D01*
X2430267Y-12513000D01*
X2449314Y-12503476D01*
X2601695Y-12684428D02*
X2611219Y-12693952D01*
X2601695Y-12703476D01*
X2592171Y-12693952D01*
X2601695Y-12684428D01*
X2601695Y-12703476D01*
X2725505Y-12589190D02*
X2706457Y-12579667D01*
X2696933Y-12570143D01*
X2687410Y-12551095D01*
X2687410Y-12541571D01*
X2696933Y-12522524D01*
X2706457Y-12513000D01*
X2725505Y-12503476D01*
X2763600Y-12503476D01*
X2782648Y-12513000D01*
X2792171Y-12522524D01*
X2801695Y-12541571D01*
X2801695Y-12551095D01*
X2792171Y-12570143D01*
X2782648Y-12579667D01*
X2763600Y-12589190D01*
X2725505Y-12589190D01*
X2706457Y-12598714D01*
X2696933Y-12608238D01*
X2687410Y-12627286D01*
X2687410Y-12665381D01*
X2696933Y-12684428D01*
X2706457Y-12693952D01*
X2725505Y-12703476D01*
X2763600Y-12703476D01*
X2782648Y-12693952D01*
X2792171Y-12684428D01*
X2801695Y-12665381D01*
X2801695Y-12627286D01*
X2792171Y-12608238D01*
X2782648Y-12598714D01*
X2763600Y-12589190D01*
X2925505Y-12503476D02*
X2944552Y-12503476D01*
X2963600Y-12513000D01*
X2973124Y-12522524D01*
X2982648Y-12541571D01*
X2992171Y-12579667D01*
X2992171Y-12627286D01*
X2982648Y-12665381D01*
X2973124Y-12684428D01*
X2963600Y-12693952D01*
X2944552Y-12703476D01*
X2925505Y-12703476D01*
X2906457Y-12693952D01*
X2896933Y-12684428D01*
X2887409Y-12665381D01*
X2877886Y-12627286D01*
X2877886Y-12579667D01*
X2887409Y-12541571D01*
X2896933Y-12522524D01*
X2906457Y-12513000D01*
X2925505Y-12503476D01*
X3115981Y-12503476D02*
X3135028Y-12503476D01*
X3154076Y-12513000D01*
X3163600Y-12522524D01*
X3173124Y-12541571D01*
X3182648Y-12579667D01*
X3182648Y-12627286D01*
X3173124Y-12665381D01*
X3163600Y-12684428D01*
X3154076Y-12693952D01*
X3135028Y-12703476D01*
X3115981Y-12703476D01*
X3096933Y-12693952D01*
X3087409Y-12684428D01*
X3077886Y-12665381D01*
X3068362Y-12627286D01*
X3068362Y-12579667D01*
X3077886Y-12541571D01*
X3087409Y-12522524D01*
X3096933Y-12513000D01*
X3115981Y-12503476D01*
X3268362Y-12703476D02*
X3268362Y-12570143D01*
X3268362Y-12589190D02*
X3277886Y-12579667D01*
X3296933Y-12570143D01*
X3325505Y-12570143D01*
X3344552Y-12579667D01*
X3354076Y-12598714D01*
X3354076Y-12703476D01*
X3354076Y-12598714D02*
X3363600Y-12579667D01*
X3382648Y-12570143D01*
X3411219Y-12570143D01*
X3430267Y-12579667D01*
X3439790Y-12598714D01*
X3439790Y-12703476D01*
X3535028Y-12703476D02*
X3535028Y-12570143D01*
X3535028Y-12589190D02*
X3544552Y-12579667D01*
X3563600Y-12570143D01*
X3592171Y-12570143D01*
X3611219Y-12579667D01*
X3620743Y-12598714D01*
X3620743Y-12703476D01*
X3620743Y-12598714D02*
X3630267Y-12579667D01*
X3649314Y-12570143D01*
X3677886Y-12570143D01*
X3696933Y-12579667D01*
X3706457Y-12598714D01*
X3706457Y-12703476D01*
X4096933Y-12493952D02*
X3925505Y-12751095D01*
X4354076Y-12503476D02*
X4373124Y-12503476D01*
X4392171Y-12513000D01*
X4401695Y-12522524D01*
X4411219Y-12541571D01*
X4420743Y-12579667D01*
X4420743Y-12627286D01*
X4411219Y-12665381D01*
X4401695Y-12684428D01*
X4392171Y-12693952D01*
X4373124Y-12703476D01*
X4354076Y-12703476D01*
X4335029Y-12693952D01*
X4325505Y-12684428D01*
X4315981Y-12665381D01*
X4306457Y-12627286D01*
X4306457Y-12579667D01*
X4315981Y-12541571D01*
X4325505Y-12522524D01*
X4335029Y-12513000D01*
X4354076Y-12503476D01*
X4506457Y-12684428D02*
X4515981Y-12693952D01*
X4506457Y-12703476D01*
X4496933Y-12693952D01*
X4506457Y-12684428D01*
X4506457Y-12703476D01*
X4639790Y-12503476D02*
X4658838Y-12503476D01*
X4677886Y-12513000D01*
X4687410Y-12522524D01*
X4696933Y-12541571D01*
X4706457Y-12579667D01*
X4706457Y-12627286D01*
X4696933Y-12665381D01*
X4687410Y-12684428D01*
X4677886Y-12693952D01*
X4658838Y-12703476D01*
X4639790Y-12703476D01*
X4620743Y-12693952D01*
X4611219Y-12684428D01*
X4601695Y-12665381D01*
X4592171Y-12627286D01*
X4592171Y-12579667D01*
X4601695Y-12541571D01*
X4611219Y-12522524D01*
X4620743Y-12513000D01*
X4639790Y-12503476D01*
X4773124Y-12503476D02*
X4896933Y-12503476D01*
X4830267Y-12579667D01*
X4858838Y-12579667D01*
X4877886Y-12589190D01*
X4887410Y-12598714D01*
X4896933Y-12617762D01*
X4896933Y-12665381D01*
X4887410Y-12684428D01*
X4877886Y-12693952D01*
X4858838Y-12703476D01*
X4801695Y-12703476D01*
X4782648Y-12693952D01*
X4773124Y-12684428D01*
X5087410Y-12703476D02*
X4973124Y-12703476D01*
X5030267Y-12703476D02*
X5030267Y-12503476D01*
X5011219Y-12532048D01*
X4992171Y-12551095D01*
X4973124Y-12560619D01*
X5268362Y-12503476D02*
X5173124Y-12503476D01*
X5163600Y-12598714D01*
X5173124Y-12589190D01*
X5192171Y-12579667D01*
X5239790Y-12579667D01*
X5258838Y-12589190D01*
X5268362Y-12598714D01*
X5277886Y-12617762D01*
X5277886Y-12665381D01*
X5268362Y-12684428D01*
X5258838Y-12693952D01*
X5239790Y-12703476D01*
X5192171Y-12703476D01*
X5173124Y-12693952D01*
X5163600Y-12684428D01*
X5354076Y-12503476D02*
X5354076Y-12541571D01*
X5430267Y-12503476D02*
X5430267Y-12541571D01*
X5725505Y-12779667D02*
X5715981Y-12770143D01*
X5696933Y-12741571D01*
X5687409Y-12722524D01*
X5677886Y-12693952D01*
X5668362Y-12646333D01*
X5668362Y-12608238D01*
X5677886Y-12560619D01*
X5687409Y-12532048D01*
X5696933Y-12513000D01*
X5715981Y-12484428D01*
X5725505Y-12474905D01*
X5887409Y-12503476D02*
X5849314Y-12503476D01*
X5830267Y-12513000D01*
X5820743Y-12522524D01*
X5801695Y-12551095D01*
X5792171Y-12589190D01*
X5792171Y-12665381D01*
X5801695Y-12684428D01*
X5811219Y-12693952D01*
X5830267Y-12703476D01*
X5868362Y-12703476D01*
X5887409Y-12693952D01*
X5896933Y-12684428D01*
X5906457Y-12665381D01*
X5906457Y-12617762D01*
X5896933Y-12598714D01*
X5887409Y-12589190D01*
X5868362Y-12579667D01*
X5830267Y-12579667D01*
X5811219Y-12589190D01*
X5801695Y-12598714D01*
X5792171Y-12617762D01*
X5982648Y-12522524D02*
X5992171Y-12513000D01*
X6011219Y-12503476D01*
X6058838Y-12503476D01*
X6077886Y-12513000D01*
X6087409Y-12522524D01*
X6096933Y-12541571D01*
X6096933Y-12560619D01*
X6087409Y-12589190D01*
X5973124Y-12703476D01*
X6096933Y-12703476D01*
X6335028Y-12703476D02*
X6335028Y-12503476D01*
X6420743Y-12703476D02*
X6420743Y-12598714D01*
X6411219Y-12579667D01*
X6392171Y-12570143D01*
X6363600Y-12570143D01*
X6344552Y-12579667D01*
X6335028Y-12589190D01*
X6544552Y-12703476D02*
X6525505Y-12693952D01*
X6515981Y-12684428D01*
X6506457Y-12665381D01*
X6506457Y-12608238D01*
X6515981Y-12589190D01*
X6525505Y-12579667D01*
X6544552Y-12570143D01*
X6573124Y-12570143D01*
X6592171Y-12579667D01*
X6601695Y-12589190D01*
X6611219Y-12608238D01*
X6611219Y-12665381D01*
X6601695Y-12684428D01*
X6592171Y-12693952D01*
X6573124Y-12703476D01*
X6544552Y-12703476D01*
X6725505Y-12703476D02*
X6706457Y-12693952D01*
X6696933Y-12674905D01*
X6696933Y-12503476D01*
X6877886Y-12693952D02*
X6858838Y-12703476D01*
X6820743Y-12703476D01*
X6801695Y-12693952D01*
X6792171Y-12674905D01*
X6792171Y-12598714D01*
X6801695Y-12579667D01*
X6820743Y-12570143D01*
X6858838Y-12570143D01*
X6877886Y-12579667D01*
X6887409Y-12598714D01*
X6887409Y-12617762D01*
X6792171Y-12636809D01*
X6963600Y-12693952D02*
X6982648Y-12703476D01*
X7020743Y-12703476D01*
X7039790Y-12693952D01*
X7049314Y-12674905D01*
X7049314Y-12665381D01*
X7039790Y-12646333D01*
X7020743Y-12636809D01*
X6992171Y-12636809D01*
X6973124Y-12627286D01*
X6963600Y-12608238D01*
X6963600Y-12598714D01*
X6973124Y-12579667D01*
X6992171Y-12570143D01*
X7020743Y-12570143D01*
X7039790Y-12579667D01*
X7115981Y-12779667D02*
X7125505Y-12770143D01*
X7144552Y-12741571D01*
X7154076Y-12722524D01*
X7163600Y-12693952D01*
X7173124Y-12646333D01*
X7173124Y-12608238D01*
X7163600Y-12560619D01*
X7154076Y-12532048D01*
X7144552Y-12513000D01*
X7125505Y-12484428D01*
X7115981Y-12474905D01*
D10*
X2103600Y-12927000D02*
X2153600Y-12877000D01*
X2103600Y-12827000D01*
X2053600Y-12877000D01*
X2103600Y-12927000D01*
D11*
X2515981Y-12967476D02*
X2401695Y-12967476D01*
X2458838Y-12967476D02*
X2458838Y-12767476D01*
X2439790Y-12796048D01*
X2420743Y-12815095D01*
X2401695Y-12824619D01*
X2601695Y-12948428D02*
X2611219Y-12957952D01*
X2601695Y-12967476D01*
X2592171Y-12957952D01*
X2601695Y-12948428D01*
X2601695Y-12967476D01*
X2735029Y-12767476D02*
X2754076Y-12767476D01*
X2773124Y-12777000D01*
X2782648Y-12786524D01*
X2792171Y-12805571D01*
X2801695Y-12843667D01*
X2801695Y-12891286D01*
X2792171Y-12929381D01*
X2782648Y-12948428D01*
X2773124Y-12957952D01*
X2754076Y-12967476D01*
X2735029Y-12967476D01*
X2715981Y-12957952D01*
X2706457Y-12948428D01*
X2696933Y-12929381D01*
X2687410Y-12891286D01*
X2687410Y-12843667D01*
X2696933Y-12805571D01*
X2706457Y-12786524D01*
X2715981Y-12777000D01*
X2735029Y-12767476D01*
X2925505Y-12767476D02*
X2944552Y-12767476D01*
X2963600Y-12777000D01*
X2973124Y-12786524D01*
X2982648Y-12805571D01*
X2992171Y-12843667D01*
X2992171Y-12891286D01*
X2982648Y-12929381D01*
X2973124Y-12948428D01*
X2963600Y-12957952D01*
X2944552Y-12967476D01*
X2925505Y-12967476D01*
X2906457Y-12957952D01*
X2896933Y-12948428D01*
X2887409Y-12929381D01*
X2877886Y-12891286D01*
X2877886Y-12843667D01*
X2887409Y-12805571D01*
X2896933Y-12786524D01*
X2906457Y-12777000D01*
X2925505Y-12767476D01*
X3115981Y-12767476D02*
X3135028Y-12767476D01*
X3154076Y-12777000D01*
X3163600Y-12786524D01*
X3173124Y-12805571D01*
X3182648Y-12843667D01*
X3182648Y-12891286D01*
X3173124Y-12929381D01*
X3163600Y-12948428D01*
X3154076Y-12957952D01*
X3135028Y-12967476D01*
X3115981Y-12967476D01*
X3096933Y-12957952D01*
X3087409Y-12948428D01*
X3077886Y-12929381D01*
X3068362Y-12891286D01*
X3068362Y-12843667D01*
X3077886Y-12805571D01*
X3087409Y-12786524D01*
X3096933Y-12777000D01*
X3115981Y-12767476D01*
X3268362Y-12967476D02*
X3268362Y-12834143D01*
X3268362Y-12853190D02*
X3277886Y-12843667D01*
X3296933Y-12834143D01*
X3325505Y-12834143D01*
X3344552Y-12843667D01*
X3354076Y-12862714D01*
X3354076Y-12967476D01*
X3354076Y-12862714D02*
X3363600Y-12843667D01*
X3382648Y-12834143D01*
X3411219Y-12834143D01*
X3430267Y-12843667D01*
X3439790Y-12862714D01*
X3439790Y-12967476D01*
X3535028Y-12967476D02*
X3535028Y-12834143D01*
X3535028Y-12853190D02*
X3544552Y-12843667D01*
X3563600Y-12834143D01*
X3592171Y-12834143D01*
X3611219Y-12843667D01*
X3620743Y-12862714D01*
X3620743Y-12967476D01*
X3620743Y-12862714D02*
X3630267Y-12843667D01*
X3649314Y-12834143D01*
X3677886Y-12834143D01*
X3696933Y-12843667D01*
X3706457Y-12862714D01*
X3706457Y-12967476D01*
X4096933Y-12757952D02*
X3925505Y-13015095D01*
X4354076Y-12767476D02*
X4373124Y-12767476D01*
X4392171Y-12777000D01*
X4401695Y-12786524D01*
X4411219Y-12805571D01*
X4420743Y-12843667D01*
X4420743Y-12891286D01*
X4411219Y-12929381D01*
X4401695Y-12948428D01*
X4392171Y-12957952D01*
X4373124Y-12967476D01*
X4354076Y-12967476D01*
X4335029Y-12957952D01*
X4325505Y-12948428D01*
X4315981Y-12929381D01*
X4306457Y-12891286D01*
X4306457Y-12843667D01*
X4315981Y-12805571D01*
X4325505Y-12786524D01*
X4335029Y-12777000D01*
X4354076Y-12767476D01*
X4506457Y-12948428D02*
X4515981Y-12957952D01*
X4506457Y-12967476D01*
X4496933Y-12957952D01*
X4506457Y-12948428D01*
X4506457Y-12967476D01*
X4639790Y-12767476D02*
X4658838Y-12767476D01*
X4677886Y-12777000D01*
X4687410Y-12786524D01*
X4696933Y-12805571D01*
X4706457Y-12843667D01*
X4706457Y-12891286D01*
X4696933Y-12929381D01*
X4687410Y-12948428D01*
X4677886Y-12957952D01*
X4658838Y-12967476D01*
X4639790Y-12967476D01*
X4620743Y-12957952D01*
X4611219Y-12948428D01*
X4601695Y-12929381D01*
X4592171Y-12891286D01*
X4592171Y-12843667D01*
X4601695Y-12805571D01*
X4611219Y-12786524D01*
X4620743Y-12777000D01*
X4639790Y-12767476D01*
X4773124Y-12767476D02*
X4896933Y-12767476D01*
X4830267Y-12843667D01*
X4858838Y-12843667D01*
X4877886Y-12853190D01*
X4887410Y-12862714D01*
X4896933Y-12881762D01*
X4896933Y-12929381D01*
X4887410Y-12948428D01*
X4877886Y-12957952D01*
X4858838Y-12967476D01*
X4801695Y-12967476D01*
X4782648Y-12957952D01*
X4773124Y-12948428D01*
X4992171Y-12967476D02*
X5030267Y-12967476D01*
X5049314Y-12957952D01*
X5058838Y-12948428D01*
X5077886Y-12919857D01*
X5087410Y-12881762D01*
X5087410Y-12805571D01*
X5077886Y-12786524D01*
X5068362Y-12777000D01*
X5049314Y-12767476D01*
X5011219Y-12767476D01*
X4992171Y-12777000D01*
X4982648Y-12786524D01*
X4973124Y-12805571D01*
X4973124Y-12853190D01*
X4982648Y-12872238D01*
X4992171Y-12881762D01*
X5011219Y-12891286D01*
X5049314Y-12891286D01*
X5068362Y-12881762D01*
X5077886Y-12872238D01*
X5087410Y-12853190D01*
X5258838Y-12834143D02*
X5258838Y-12967476D01*
X5211219Y-12757952D02*
X5163600Y-12900809D01*
X5287410Y-12900809D01*
X5354076Y-12767476D02*
X5354076Y-12805571D01*
X5430267Y-12767476D02*
X5430267Y-12805571D01*
X5725505Y-13043667D02*
X5715981Y-13034143D01*
X5696933Y-13005571D01*
X5687409Y-12986524D01*
X5677886Y-12957952D01*
X5668362Y-12910333D01*
X5668362Y-12872238D01*
X5677886Y-12824619D01*
X5687409Y-12796048D01*
X5696933Y-12777000D01*
X5715981Y-12748428D01*
X5725505Y-12738905D01*
X5906457Y-12967476D02*
X5792171Y-12967476D01*
X5849314Y-12967476D02*
X5849314Y-12767476D01*
X5830267Y-12796048D01*
X5811219Y-12815095D01*
X5792171Y-12824619D01*
X5973124Y-12767476D02*
X6106457Y-12767476D01*
X6020743Y-12967476D01*
X6335028Y-12967476D02*
X6335028Y-12767476D01*
X6420743Y-12967476D02*
X6420743Y-12862714D01*
X6411219Y-12843667D01*
X6392171Y-12834143D01*
X6363600Y-12834143D01*
X6344552Y-12843667D01*
X6335028Y-12853190D01*
X6544552Y-12967476D02*
X6525505Y-12957952D01*
X6515981Y-12948428D01*
X6506457Y-12929381D01*
X6506457Y-12872238D01*
X6515981Y-12853190D01*
X6525505Y-12843667D01*
X6544552Y-12834143D01*
X6573124Y-12834143D01*
X6592171Y-12843667D01*
X6601695Y-12853190D01*
X6611219Y-12872238D01*
X6611219Y-12929381D01*
X6601695Y-12948428D01*
X6592171Y-12957952D01*
X6573124Y-12967476D01*
X6544552Y-12967476D01*
X6725505Y-12967476D02*
X6706457Y-12957952D01*
X6696933Y-12938905D01*
X6696933Y-12767476D01*
X6877886Y-12957952D02*
X6858838Y-12967476D01*
X6820743Y-12967476D01*
X6801695Y-12957952D01*
X6792171Y-12938905D01*
X6792171Y-12862714D01*
X6801695Y-12843667D01*
X6820743Y-12834143D01*
X6858838Y-12834143D01*
X6877886Y-12843667D01*
X6887409Y-12862714D01*
X6887409Y-12881762D01*
X6792171Y-12900809D01*
X6963600Y-12957952D02*
X6982648Y-12967476D01*
X7020743Y-12967476D01*
X7039790Y-12957952D01*
X7049314Y-12938905D01*
X7049314Y-12929381D01*
X7039790Y-12910333D01*
X7020743Y-12900809D01*
X6992171Y-12900809D01*
X6973124Y-12891286D01*
X6963600Y-12872238D01*
X6963600Y-12862714D01*
X6973124Y-12843667D01*
X6992171Y-12834143D01*
X7020743Y-12834143D01*
X7039790Y-12843667D01*
X7287409Y-12891286D02*
X7439790Y-12891286D01*
X7363600Y-12967476D02*
X7363600Y-12815095D01*
X7668362Y-12767476D02*
X7792171Y-12767476D01*
X7725505Y-12843667D01*
X7754076Y-12843667D01*
X7773124Y-12853190D01*
X7782648Y-12862714D01*
X7792171Y-12881762D01*
X7792171Y-12929381D01*
X7782648Y-12948428D01*
X7773124Y-12957952D01*
X7754076Y-12967476D01*
X7696933Y-12967476D01*
X7677886Y-12957952D01*
X7668362Y-12948428D01*
X8020743Y-12957952D02*
X8039790Y-12967476D01*
X8077886Y-12967476D01*
X8096933Y-12957952D01*
X8106457Y-12938905D01*
X8106457Y-12929381D01*
X8096933Y-12910333D01*
X8077886Y-12900809D01*
X8049314Y-12900809D01*
X8030267Y-12891286D01*
X8020743Y-12872238D01*
X8020743Y-12862714D01*
X8030267Y-12843667D01*
X8049314Y-12834143D01*
X8077886Y-12834143D01*
X8096933Y-12843667D01*
X8220743Y-12967476D02*
X8201695Y-12957952D01*
X8192171Y-12938905D01*
X8192171Y-12767476D01*
X8325505Y-12967476D02*
X8306457Y-12957952D01*
X8296933Y-12948428D01*
X8287409Y-12929381D01*
X8287409Y-12872238D01*
X8296933Y-12853190D01*
X8306457Y-12843667D01*
X8325505Y-12834143D01*
X8354076Y-12834143D01*
X8373124Y-12843667D01*
X8382648Y-12853190D01*
X8392171Y-12872238D01*
X8392171Y-12929381D01*
X8382648Y-12948428D01*
X8373124Y-12957952D01*
X8354076Y-12967476D01*
X8325505Y-12967476D01*
X8449314Y-12834143D02*
X8525505Y-12834143D01*
X8477886Y-12767476D02*
X8477886Y-12938905D01*
X8487410Y-12957952D01*
X8506457Y-12967476D01*
X8525505Y-12967476D01*
X8582648Y-12957952D02*
X8601695Y-12967476D01*
X8639790Y-12967476D01*
X8658838Y-12957952D01*
X8668362Y-12938905D01*
X8668362Y-12929381D01*
X8658838Y-12910333D01*
X8639790Y-12900809D01*
X8611219Y-12900809D01*
X8592171Y-12891286D01*
X8582648Y-12872238D01*
X8582648Y-12862714D01*
X8592171Y-12843667D01*
X8611219Y-12834143D01*
X8639790Y-12834143D01*
X8658838Y-12843667D01*
X8735029Y-13043667D02*
X8744552Y-13034143D01*
X8763600Y-13005571D01*
X8773124Y-12986524D01*
X8782648Y-12957952D01*
X8792171Y-12910333D01*
X8792171Y-12872238D01*
X8782648Y-12824619D01*
X8773124Y-12796048D01*
X8763600Y-12777000D01*
X8744552Y-12748428D01*
X8735029Y-12738905D01*
D16*
X2043600Y-13086000D02*
X2153600Y-13196000D01*
X2153600Y-13086000D02*
X2043600Y-13196000D01*
X2153600Y-13141000D02*
G75*
G03*
X2153600Y-13141000I-55000J0D01*
G01*
D11*
X2515981Y-13231476D02*
X2401695Y-13231476D01*
X2458838Y-13231476D02*
X2458838Y-13031476D01*
X2439790Y-13060048D01*
X2420743Y-13079095D01*
X2401695Y-13088619D01*
X2601695Y-13212428D02*
X2611219Y-13221952D01*
X2601695Y-13231476D01*
X2592171Y-13221952D01*
X2601695Y-13212428D01*
X2601695Y-13231476D01*
X2801695Y-13231476D02*
X2687410Y-13231476D01*
X2744552Y-13231476D02*
X2744552Y-13031476D01*
X2725505Y-13060048D01*
X2706457Y-13079095D01*
X2687410Y-13088619D01*
X2925505Y-13031476D02*
X2944552Y-13031476D01*
X2963600Y-13041000D01*
X2973124Y-13050524D01*
X2982648Y-13069571D01*
X2992171Y-13107667D01*
X2992171Y-13155286D01*
X2982648Y-13193381D01*
X2973124Y-13212428D01*
X2963600Y-13221952D01*
X2944552Y-13231476D01*
X2925505Y-13231476D01*
X2906457Y-13221952D01*
X2896933Y-13212428D01*
X2887409Y-13193381D01*
X2877886Y-13155286D01*
X2877886Y-13107667D01*
X2887409Y-13069571D01*
X2896933Y-13050524D01*
X2906457Y-13041000D01*
X2925505Y-13031476D01*
X3115981Y-13031476D02*
X3135028Y-13031476D01*
X3154076Y-13041000D01*
X3163600Y-13050524D01*
X3173124Y-13069571D01*
X3182648Y-13107667D01*
X3182648Y-13155286D01*
X3173124Y-13193381D01*
X3163600Y-13212428D01*
X3154076Y-13221952D01*
X3135028Y-13231476D01*
X3115981Y-13231476D01*
X3096933Y-13221952D01*
X3087409Y-13212428D01*
X3077886Y-13193381D01*
X3068362Y-13155286D01*
X3068362Y-13107667D01*
X3077886Y-13069571D01*
X3087409Y-13050524D01*
X3096933Y-13041000D01*
X3115981Y-13031476D01*
X3268362Y-13231476D02*
X3268362Y-13098143D01*
X3268362Y-13117190D02*
X3277886Y-13107667D01*
X3296933Y-13098143D01*
X3325505Y-13098143D01*
X3344552Y-13107667D01*
X3354076Y-13126714D01*
X3354076Y-13231476D01*
X3354076Y-13126714D02*
X3363600Y-13107667D01*
X3382648Y-13098143D01*
X3411219Y-13098143D01*
X3430267Y-13107667D01*
X3439790Y-13126714D01*
X3439790Y-13231476D01*
X3535028Y-13231476D02*
X3535028Y-13098143D01*
X3535028Y-13117190D02*
X3544552Y-13107667D01*
X3563600Y-13098143D01*
X3592171Y-13098143D01*
X3611219Y-13107667D01*
X3620743Y-13126714D01*
X3620743Y-13231476D01*
X3620743Y-13126714D02*
X3630267Y-13107667D01*
X3649314Y-13098143D01*
X3677886Y-13098143D01*
X3696933Y-13107667D01*
X3706457Y-13126714D01*
X3706457Y-13231476D01*
X4096933Y-13021952D02*
X3925505Y-13279095D01*
X4354076Y-13031476D02*
X4373124Y-13031476D01*
X4392171Y-13041000D01*
X4401695Y-13050524D01*
X4411219Y-13069571D01*
X4420743Y-13107667D01*
X4420743Y-13155286D01*
X4411219Y-13193381D01*
X4401695Y-13212428D01*
X4392171Y-13221952D01*
X4373124Y-13231476D01*
X4354076Y-13231476D01*
X4335029Y-13221952D01*
X4325505Y-13212428D01*
X4315981Y-13193381D01*
X4306457Y-13155286D01*
X4306457Y-13107667D01*
X4315981Y-13069571D01*
X4325505Y-13050524D01*
X4335029Y-13041000D01*
X4354076Y-13031476D01*
X4506457Y-13212428D02*
X4515981Y-13221952D01*
X4506457Y-13231476D01*
X4496933Y-13221952D01*
X4506457Y-13212428D01*
X4506457Y-13231476D01*
X4639790Y-13031476D02*
X4658838Y-13031476D01*
X4677886Y-13041000D01*
X4687410Y-13050524D01*
X4696933Y-13069571D01*
X4706457Y-13107667D01*
X4706457Y-13155286D01*
X4696933Y-13193381D01*
X4687410Y-13212428D01*
X4677886Y-13221952D01*
X4658838Y-13231476D01*
X4639790Y-13231476D01*
X4620743Y-13221952D01*
X4611219Y-13212428D01*
X4601695Y-13193381D01*
X4592171Y-13155286D01*
X4592171Y-13107667D01*
X4601695Y-13069571D01*
X4611219Y-13050524D01*
X4620743Y-13041000D01*
X4639790Y-13031476D01*
X4877886Y-13098143D02*
X4877886Y-13231476D01*
X4830267Y-13021952D02*
X4782648Y-13164809D01*
X4906457Y-13164809D01*
X4963600Y-13031476D02*
X5087410Y-13031476D01*
X5020743Y-13107667D01*
X5049314Y-13107667D01*
X5068362Y-13117190D01*
X5077886Y-13126714D01*
X5087410Y-13145762D01*
X5087410Y-13193381D01*
X5077886Y-13212428D01*
X5068362Y-13221952D01*
X5049314Y-13231476D01*
X4992171Y-13231476D01*
X4973124Y-13221952D01*
X4963600Y-13212428D01*
X5154076Y-13031476D02*
X5277886Y-13031476D01*
X5211219Y-13107667D01*
X5239790Y-13107667D01*
X5258838Y-13117190D01*
X5268362Y-13126714D01*
X5277886Y-13145762D01*
X5277886Y-13193381D01*
X5268362Y-13212428D01*
X5258838Y-13221952D01*
X5239790Y-13231476D01*
X5182648Y-13231476D01*
X5163600Y-13221952D01*
X5154076Y-13212428D01*
X5354076Y-13031476D02*
X5354076Y-13069571D01*
X5430267Y-13031476D02*
X5430267Y-13069571D01*
X5725505Y-13307667D02*
X5715981Y-13298143D01*
X5696933Y-13269571D01*
X5687409Y-13250524D01*
X5677886Y-13221952D01*
X5668362Y-13174333D01*
X5668362Y-13136238D01*
X5677886Y-13088619D01*
X5687409Y-13060048D01*
X5696933Y-13041000D01*
X5715981Y-13012428D01*
X5725505Y-13002905D01*
X5906457Y-13231476D02*
X5792171Y-13231476D01*
X5849314Y-13231476D02*
X5849314Y-13031476D01*
X5830267Y-13060048D01*
X5811219Y-13079095D01*
X5792171Y-13088619D01*
X5982648Y-13050524D02*
X5992171Y-13041000D01*
X6011219Y-13031476D01*
X6058838Y-13031476D01*
X6077886Y-13041000D01*
X6087409Y-13050524D01*
X6096933Y-13069571D01*
X6096933Y-13088619D01*
X6087409Y-13117190D01*
X5973124Y-13231476D01*
X6096933Y-13231476D01*
X6335028Y-13231476D02*
X6335028Y-13031476D01*
X6420743Y-13231476D02*
X6420743Y-13126714D01*
X6411219Y-13107667D01*
X6392171Y-13098143D01*
X6363600Y-13098143D01*
X6344552Y-13107667D01*
X6335028Y-13117190D01*
X6544552Y-13231476D02*
X6525505Y-13221952D01*
X6515981Y-13212428D01*
X6506457Y-13193381D01*
X6506457Y-13136238D01*
X6515981Y-13117190D01*
X6525505Y-13107667D01*
X6544552Y-13098143D01*
X6573124Y-13098143D01*
X6592171Y-13107667D01*
X6601695Y-13117190D01*
X6611219Y-13136238D01*
X6611219Y-13193381D01*
X6601695Y-13212428D01*
X6592171Y-13221952D01*
X6573124Y-13231476D01*
X6544552Y-13231476D01*
X6725505Y-13231476D02*
X6706457Y-13221952D01*
X6696933Y-13202905D01*
X6696933Y-13031476D01*
X6877886Y-13221952D02*
X6858838Y-13231476D01*
X6820743Y-13231476D01*
X6801695Y-13221952D01*
X6792171Y-13202905D01*
X6792171Y-13126714D01*
X6801695Y-13107667D01*
X6820743Y-13098143D01*
X6858838Y-13098143D01*
X6877886Y-13107667D01*
X6887409Y-13126714D01*
X6887409Y-13145762D01*
X6792171Y-13164809D01*
X6963600Y-13221952D02*
X6982648Y-13231476D01*
X7020743Y-13231476D01*
X7039790Y-13221952D01*
X7049314Y-13202905D01*
X7049314Y-13193381D01*
X7039790Y-13174333D01*
X7020743Y-13164809D01*
X6992171Y-13164809D01*
X6973124Y-13155286D01*
X6963600Y-13136238D01*
X6963600Y-13126714D01*
X6973124Y-13107667D01*
X6992171Y-13098143D01*
X7020743Y-13098143D01*
X7039790Y-13107667D01*
X7115981Y-13307667D02*
X7125505Y-13298143D01*
X7144552Y-13269571D01*
X7154076Y-13250524D01*
X7163600Y-13221952D01*
X7173124Y-13174333D01*
X7173124Y-13136238D01*
X7163600Y-13088619D01*
X7154076Y-13060048D01*
X7144552Y-13041000D01*
X7125505Y-13012428D01*
X7115981Y-13002905D01*
D17*
X2033600Y-13345000D02*
X2153600Y-13465000D01*
X2153600Y-13345000D02*
X2033600Y-13465000D01*
X2093600Y-13345000D02*
X2093600Y-13465000D01*
X2033600Y-13405000D02*
X2153600Y-13405000D01*
D11*
X2515981Y-13495476D02*
X2401695Y-13495476D01*
X2458838Y-13495476D02*
X2458838Y-13295476D01*
X2439790Y-13324048D01*
X2420743Y-13343095D01*
X2401695Y-13352619D01*
X2601695Y-13476428D02*
X2611219Y-13485952D01*
X2601695Y-13495476D01*
X2592171Y-13485952D01*
X2601695Y-13476428D01*
X2601695Y-13495476D01*
X2687410Y-13314524D02*
X2696933Y-13305000D01*
X2715981Y-13295476D01*
X2763600Y-13295476D01*
X2782648Y-13305000D01*
X2792171Y-13314524D01*
X2801695Y-13333571D01*
X2801695Y-13352619D01*
X2792171Y-13381190D01*
X2677886Y-13495476D01*
X2801695Y-13495476D01*
X2925505Y-13295476D02*
X2944552Y-13295476D01*
X2963600Y-13305000D01*
X2973124Y-13314524D01*
X2982648Y-13333571D01*
X2992171Y-13371667D01*
X2992171Y-13419286D01*
X2982648Y-13457381D01*
X2973124Y-13476428D01*
X2963600Y-13485952D01*
X2944552Y-13495476D01*
X2925505Y-13495476D01*
X2906457Y-13485952D01*
X2896933Y-13476428D01*
X2887409Y-13457381D01*
X2877886Y-13419286D01*
X2877886Y-13371667D01*
X2887409Y-13333571D01*
X2896933Y-13314524D01*
X2906457Y-13305000D01*
X2925505Y-13295476D01*
X3115981Y-13295476D02*
X3135028Y-13295476D01*
X3154076Y-13305000D01*
X3163600Y-13314524D01*
X3173124Y-13333571D01*
X3182648Y-13371667D01*
X3182648Y-13419286D01*
X3173124Y-13457381D01*
X3163600Y-13476428D01*
X3154076Y-13485952D01*
X3135028Y-13495476D01*
X3115981Y-13495476D01*
X3096933Y-13485952D01*
X3087409Y-13476428D01*
X3077886Y-13457381D01*
X3068362Y-13419286D01*
X3068362Y-13371667D01*
X3077886Y-13333571D01*
X3087409Y-13314524D01*
X3096933Y-13305000D01*
X3115981Y-13295476D01*
X3268362Y-13495476D02*
X3268362Y-13362143D01*
X3268362Y-13381190D02*
X3277886Y-13371667D01*
X3296933Y-13362143D01*
X3325505Y-13362143D01*
X3344552Y-13371667D01*
X3354076Y-13390714D01*
X3354076Y-13495476D01*
X3354076Y-13390714D02*
X3363600Y-13371667D01*
X3382648Y-13362143D01*
X3411219Y-13362143D01*
X3430267Y-13371667D01*
X3439790Y-13390714D01*
X3439790Y-13495476D01*
X3535028Y-13495476D02*
X3535028Y-13362143D01*
X3535028Y-13381190D02*
X3544552Y-13371667D01*
X3563600Y-13362143D01*
X3592171Y-13362143D01*
X3611219Y-13371667D01*
X3620743Y-13390714D01*
X3620743Y-13495476D01*
X3620743Y-13390714D02*
X3630267Y-13371667D01*
X3649314Y-13362143D01*
X3677886Y-13362143D01*
X3696933Y-13371667D01*
X3706457Y-13390714D01*
X3706457Y-13495476D01*
X4096933Y-13285952D02*
X3925505Y-13543095D01*
X4354076Y-13295476D02*
X4373124Y-13295476D01*
X4392171Y-13305000D01*
X4401695Y-13314524D01*
X4411219Y-13333571D01*
X4420743Y-13371667D01*
X4420743Y-13419286D01*
X4411219Y-13457381D01*
X4401695Y-13476428D01*
X4392171Y-13485952D01*
X4373124Y-13495476D01*
X4354076Y-13495476D01*
X4335029Y-13485952D01*
X4325505Y-13476428D01*
X4315981Y-13457381D01*
X4306457Y-13419286D01*
X4306457Y-13371667D01*
X4315981Y-13333571D01*
X4325505Y-13314524D01*
X4335029Y-13305000D01*
X4354076Y-13295476D01*
X4506457Y-13476428D02*
X4515981Y-13485952D01*
X4506457Y-13495476D01*
X4496933Y-13485952D01*
X4506457Y-13476428D01*
X4506457Y-13495476D01*
X4639790Y-13295476D02*
X4658838Y-13295476D01*
X4677886Y-13305000D01*
X4687410Y-13314524D01*
X4696933Y-13333571D01*
X4706457Y-13371667D01*
X4706457Y-13419286D01*
X4696933Y-13457381D01*
X4687410Y-13476428D01*
X4677886Y-13485952D01*
X4658838Y-13495476D01*
X4639790Y-13495476D01*
X4620743Y-13485952D01*
X4611219Y-13476428D01*
X4601695Y-13457381D01*
X4592171Y-13419286D01*
X4592171Y-13371667D01*
X4601695Y-13333571D01*
X4611219Y-13314524D01*
X4620743Y-13305000D01*
X4639790Y-13295476D01*
X4877886Y-13362143D02*
X4877886Y-13495476D01*
X4830267Y-13285952D02*
X4782648Y-13428809D01*
X4906457Y-13428809D01*
X4963600Y-13295476D02*
X5096933Y-13295476D01*
X5011219Y-13495476D01*
X5163600Y-13314524D02*
X5173124Y-13305000D01*
X5192171Y-13295476D01*
X5239790Y-13295476D01*
X5258838Y-13305000D01*
X5268362Y-13314524D01*
X5277886Y-13333571D01*
X5277886Y-13352619D01*
X5268362Y-13381190D01*
X5154076Y-13495476D01*
X5277886Y-13495476D01*
X5354076Y-13295476D02*
X5354076Y-13333571D01*
X5430267Y-13295476D02*
X5430267Y-13333571D01*
X5725505Y-13571667D02*
X5715981Y-13562143D01*
X5696933Y-13533571D01*
X5687409Y-13514524D01*
X5677886Y-13485952D01*
X5668362Y-13438333D01*
X5668362Y-13400238D01*
X5677886Y-13352619D01*
X5687409Y-13324048D01*
X5696933Y-13305000D01*
X5715981Y-13276428D01*
X5725505Y-13266905D01*
X5906457Y-13495476D02*
X5792171Y-13495476D01*
X5849314Y-13495476D02*
X5849314Y-13295476D01*
X5830267Y-13324048D01*
X5811219Y-13343095D01*
X5792171Y-13352619D01*
X6077886Y-13295476D02*
X6039790Y-13295476D01*
X6020743Y-13305000D01*
X6011219Y-13314524D01*
X5992171Y-13343095D01*
X5982648Y-13381190D01*
X5982648Y-13457381D01*
X5992171Y-13476428D01*
X6001695Y-13485952D01*
X6020743Y-13495476D01*
X6058838Y-13495476D01*
X6077886Y-13485952D01*
X6087409Y-13476428D01*
X6096933Y-13457381D01*
X6096933Y-13409762D01*
X6087409Y-13390714D01*
X6077886Y-13381190D01*
X6058838Y-13371667D01*
X6020743Y-13371667D01*
X6001695Y-13381190D01*
X5992171Y-13390714D01*
X5982648Y-13409762D01*
X6335028Y-13495476D02*
X6335028Y-13295476D01*
X6420743Y-13495476D02*
X6420743Y-13390714D01*
X6411219Y-13371667D01*
X6392171Y-13362143D01*
X6363600Y-13362143D01*
X6344552Y-13371667D01*
X6335028Y-13381190D01*
X6544552Y-13495476D02*
X6525505Y-13485952D01*
X6515981Y-13476428D01*
X6506457Y-13457381D01*
X6506457Y-13400238D01*
X6515981Y-13381190D01*
X6525505Y-13371667D01*
X6544552Y-13362143D01*
X6573124Y-13362143D01*
X6592171Y-13371667D01*
X6601695Y-13381190D01*
X6611219Y-13400238D01*
X6611219Y-13457381D01*
X6601695Y-13476428D01*
X6592171Y-13485952D01*
X6573124Y-13495476D01*
X6544552Y-13495476D01*
X6725505Y-13495476D02*
X6706457Y-13485952D01*
X6696933Y-13466905D01*
X6696933Y-13295476D01*
X6877886Y-13485952D02*
X6858838Y-13495476D01*
X6820743Y-13495476D01*
X6801695Y-13485952D01*
X6792171Y-13466905D01*
X6792171Y-13390714D01*
X6801695Y-13371667D01*
X6820743Y-13362143D01*
X6858838Y-13362143D01*
X6877886Y-13371667D01*
X6887409Y-13390714D01*
X6887409Y-13409762D01*
X6792171Y-13428809D01*
X6963600Y-13485952D02*
X6982648Y-13495476D01*
X7020743Y-13495476D01*
X7039790Y-13485952D01*
X7049314Y-13466905D01*
X7049314Y-13457381D01*
X7039790Y-13438333D01*
X7020743Y-13428809D01*
X6992171Y-13428809D01*
X6973124Y-13419286D01*
X6963600Y-13400238D01*
X6963600Y-13390714D01*
X6973124Y-13371667D01*
X6992171Y-13362143D01*
X7020743Y-13362143D01*
X7039790Y-13371667D01*
X7115981Y-13571667D02*
X7125505Y-13562143D01*
X7144552Y-13533571D01*
X7154076Y-13514524D01*
X7163600Y-13485952D01*
X7173124Y-13438333D01*
X7173124Y-13400238D01*
X7163600Y-13352619D01*
X7154076Y-13324048D01*
X7144552Y-13305000D01*
X7125505Y-13276428D01*
X7115981Y-13266905D01*
D18*
X2013600Y-13599000D02*
X2153600Y-13739000D01*
X2153600Y-13599000D02*
X2013600Y-13739000D01*
X2133098Y-13718498D02*
X2133098Y-13619502D01*
X2034102Y-13619502D01*
X2034102Y-13718498D01*
X2133098Y-13718498D01*
D11*
X2515981Y-13759476D02*
X2401695Y-13759476D01*
X2458838Y-13759476D02*
X2458838Y-13559476D01*
X2439790Y-13588048D01*
X2420743Y-13607095D01*
X2401695Y-13616619D01*
X2601695Y-13740428D02*
X2611219Y-13749952D01*
X2601695Y-13759476D01*
X2592171Y-13749952D01*
X2601695Y-13740428D01*
X2601695Y-13759476D01*
X2782648Y-13626143D02*
X2782648Y-13759476D01*
X2735029Y-13549952D02*
X2687410Y-13692809D01*
X2811219Y-13692809D01*
X2925505Y-13559476D02*
X2944552Y-13559476D01*
X2963600Y-13569000D01*
X2973124Y-13578524D01*
X2982648Y-13597571D01*
X2992171Y-13635667D01*
X2992171Y-13683286D01*
X2982648Y-13721381D01*
X2973124Y-13740428D01*
X2963600Y-13749952D01*
X2944552Y-13759476D01*
X2925505Y-13759476D01*
X2906457Y-13749952D01*
X2896933Y-13740428D01*
X2887409Y-13721381D01*
X2877886Y-13683286D01*
X2877886Y-13635667D01*
X2887409Y-13597571D01*
X2896933Y-13578524D01*
X2906457Y-13569000D01*
X2925505Y-13559476D01*
X3115981Y-13559476D02*
X3135028Y-13559476D01*
X3154076Y-13569000D01*
X3163600Y-13578524D01*
X3173124Y-13597571D01*
X3182648Y-13635667D01*
X3182648Y-13683286D01*
X3173124Y-13721381D01*
X3163600Y-13740428D01*
X3154076Y-13749952D01*
X3135028Y-13759476D01*
X3115981Y-13759476D01*
X3096933Y-13749952D01*
X3087409Y-13740428D01*
X3077886Y-13721381D01*
X3068362Y-13683286D01*
X3068362Y-13635667D01*
X3077886Y-13597571D01*
X3087409Y-13578524D01*
X3096933Y-13569000D01*
X3115981Y-13559476D01*
X3268362Y-13759476D02*
X3268362Y-13626143D01*
X3268362Y-13645190D02*
X3277886Y-13635667D01*
X3296933Y-13626143D01*
X3325505Y-13626143D01*
X3344552Y-13635667D01*
X3354076Y-13654714D01*
X3354076Y-13759476D01*
X3354076Y-13654714D02*
X3363600Y-13635667D01*
X3382648Y-13626143D01*
X3411219Y-13626143D01*
X3430267Y-13635667D01*
X3439790Y-13654714D01*
X3439790Y-13759476D01*
X3535028Y-13759476D02*
X3535028Y-13626143D01*
X3535028Y-13645190D02*
X3544552Y-13635667D01*
X3563600Y-13626143D01*
X3592171Y-13626143D01*
X3611219Y-13635667D01*
X3620743Y-13654714D01*
X3620743Y-13759476D01*
X3620743Y-13654714D02*
X3630267Y-13635667D01*
X3649314Y-13626143D01*
X3677886Y-13626143D01*
X3696933Y-13635667D01*
X3706457Y-13654714D01*
X3706457Y-13759476D01*
X4096933Y-13549952D02*
X3925505Y-13807095D01*
X4354076Y-13559476D02*
X4373124Y-13559476D01*
X4392171Y-13569000D01*
X4401695Y-13578524D01*
X4411219Y-13597571D01*
X4420743Y-13635667D01*
X4420743Y-13683286D01*
X4411219Y-13721381D01*
X4401695Y-13740428D01*
X4392171Y-13749952D01*
X4373124Y-13759476D01*
X4354076Y-13759476D01*
X4335029Y-13749952D01*
X4325505Y-13740428D01*
X4315981Y-13721381D01*
X4306457Y-13683286D01*
X4306457Y-13635667D01*
X4315981Y-13597571D01*
X4325505Y-13578524D01*
X4335029Y-13569000D01*
X4354076Y-13559476D01*
X4506457Y-13740428D02*
X4515981Y-13749952D01*
X4506457Y-13759476D01*
X4496933Y-13749952D01*
X4506457Y-13740428D01*
X4506457Y-13759476D01*
X4639790Y-13559476D02*
X4658838Y-13559476D01*
X4677886Y-13569000D01*
X4687410Y-13578524D01*
X4696933Y-13597571D01*
X4706457Y-13635667D01*
X4706457Y-13683286D01*
X4696933Y-13721381D01*
X4687410Y-13740428D01*
X4677886Y-13749952D01*
X4658838Y-13759476D01*
X4639790Y-13759476D01*
X4620743Y-13749952D01*
X4611219Y-13740428D01*
X4601695Y-13721381D01*
X4592171Y-13683286D01*
X4592171Y-13635667D01*
X4601695Y-13597571D01*
X4611219Y-13578524D01*
X4620743Y-13569000D01*
X4639790Y-13559476D01*
X4887410Y-13559476D02*
X4792171Y-13559476D01*
X4782648Y-13654714D01*
X4792171Y-13645190D01*
X4811219Y-13635667D01*
X4858838Y-13635667D01*
X4877886Y-13645190D01*
X4887410Y-13654714D01*
X4896933Y-13673762D01*
X4896933Y-13721381D01*
X4887410Y-13740428D01*
X4877886Y-13749952D01*
X4858838Y-13759476D01*
X4811219Y-13759476D01*
X4792171Y-13749952D01*
X4782648Y-13740428D01*
X5077886Y-13559476D02*
X4982648Y-13559476D01*
X4973124Y-13654714D01*
X4982648Y-13645190D01*
X5001695Y-13635667D01*
X5049314Y-13635667D01*
X5068362Y-13645190D01*
X5077886Y-13654714D01*
X5087410Y-13673762D01*
X5087410Y-13721381D01*
X5077886Y-13740428D01*
X5068362Y-13749952D01*
X5049314Y-13759476D01*
X5001695Y-13759476D01*
X4982648Y-13749952D01*
X4973124Y-13740428D01*
X5277886Y-13759476D02*
X5163600Y-13759476D01*
X5220743Y-13759476D02*
X5220743Y-13559476D01*
X5201695Y-13588048D01*
X5182648Y-13607095D01*
X5163600Y-13616619D01*
X5354076Y-13559476D02*
X5354076Y-13597571D01*
X5430267Y-13559476D02*
X5430267Y-13597571D01*
X5725505Y-13835667D02*
X5715981Y-13826143D01*
X5696933Y-13797571D01*
X5687409Y-13778524D01*
X5677886Y-13749952D01*
X5668362Y-13702333D01*
X5668362Y-13664238D01*
X5677886Y-13616619D01*
X5687409Y-13588048D01*
X5696933Y-13569000D01*
X5715981Y-13540428D01*
X5725505Y-13530905D01*
X5782648Y-13559476D02*
X5915981Y-13559476D01*
X5830267Y-13759476D01*
X6144552Y-13759476D02*
X6144552Y-13559476D01*
X6230267Y-13759476D02*
X6230267Y-13654714D01*
X6220743Y-13635667D01*
X6201695Y-13626143D01*
X6173124Y-13626143D01*
X6154076Y-13635667D01*
X6144552Y-13645190D01*
X6354076Y-13759476D02*
X6335028Y-13749952D01*
X6325505Y-13740428D01*
X6315981Y-13721381D01*
X6315981Y-13664238D01*
X6325505Y-13645190D01*
X6335028Y-13635667D01*
X6354076Y-13626143D01*
X6382648Y-13626143D01*
X6401695Y-13635667D01*
X6411219Y-13645190D01*
X6420743Y-13664238D01*
X6420743Y-13721381D01*
X6411219Y-13740428D01*
X6401695Y-13749952D01*
X6382648Y-13759476D01*
X6354076Y-13759476D01*
X6535028Y-13759476D02*
X6515981Y-13749952D01*
X6506457Y-13730905D01*
X6506457Y-13559476D01*
X6687409Y-13749952D02*
X6668362Y-13759476D01*
X6630267Y-13759476D01*
X6611219Y-13749952D01*
X6601695Y-13730905D01*
X6601695Y-13654714D01*
X6611219Y-13635667D01*
X6630267Y-13626143D01*
X6668362Y-13626143D01*
X6687409Y-13635667D01*
X6696933Y-13654714D01*
X6696933Y-13673762D01*
X6601695Y-13692809D01*
X6773124Y-13749952D02*
X6792171Y-13759476D01*
X6830267Y-13759476D01*
X6849314Y-13749952D01*
X6858838Y-13730905D01*
X6858838Y-13721381D01*
X6849314Y-13702333D01*
X6830267Y-13692809D01*
X6801695Y-13692809D01*
X6782648Y-13683286D01*
X6773124Y-13664238D01*
X6773124Y-13654714D01*
X6782648Y-13635667D01*
X6801695Y-13626143D01*
X6830267Y-13626143D01*
X6849314Y-13635667D01*
X6925505Y-13835667D02*
X6935028Y-13826143D01*
X6954076Y-13797571D01*
X6963600Y-13778524D01*
X6973124Y-13749952D01*
X6982648Y-13702333D01*
X6982648Y-13664238D01*
X6973124Y-13616619D01*
X6963600Y-13588048D01*
X6954076Y-13569000D01*
X6935028Y-13540428D01*
X6925505Y-13530905D01*
D19*
X2006600Y-13859500D02*
X2153600Y-14006500D01*
X2153600Y-13859500D02*
X2006600Y-14006500D01*
X2080100Y-14006500D02*
X2153600Y-13933000D01*
X2080100Y-13859500D01*
X2006600Y-13933000D01*
X2080100Y-14006500D01*
D11*
X2515981Y-14023476D02*
X2401695Y-14023476D01*
X2458838Y-14023476D02*
X2458838Y-13823476D01*
X2439790Y-13852048D01*
X2420743Y-13871095D01*
X2401695Y-13880619D01*
X2601695Y-14004428D02*
X2611219Y-14013952D01*
X2601695Y-14023476D01*
X2592171Y-14013952D01*
X2601695Y-14004428D01*
X2601695Y-14023476D01*
X2782648Y-13890143D02*
X2782648Y-14023476D01*
X2735029Y-13813952D02*
X2687410Y-13956809D01*
X2811219Y-13956809D01*
X2868362Y-13823476D02*
X3001695Y-13823476D01*
X2915981Y-14023476D01*
X3115981Y-13823476D02*
X3135028Y-13823476D01*
X3154076Y-13833000D01*
X3163600Y-13842524D01*
X3173124Y-13861571D01*
X3182648Y-13899667D01*
X3182648Y-13947286D01*
X3173124Y-13985381D01*
X3163600Y-14004428D01*
X3154076Y-14013952D01*
X3135028Y-14023476D01*
X3115981Y-14023476D01*
X3096933Y-14013952D01*
X3087409Y-14004428D01*
X3077886Y-13985381D01*
X3068362Y-13947286D01*
X3068362Y-13899667D01*
X3077886Y-13861571D01*
X3087409Y-13842524D01*
X3096933Y-13833000D01*
X3115981Y-13823476D01*
X3268362Y-14023476D02*
X3268362Y-13890143D01*
X3268362Y-13909190D02*
X3277886Y-13899667D01*
X3296933Y-13890143D01*
X3325505Y-13890143D01*
X3344552Y-13899667D01*
X3354076Y-13918714D01*
X3354076Y-14023476D01*
X3354076Y-13918714D02*
X3363600Y-13899667D01*
X3382648Y-13890143D01*
X3411219Y-13890143D01*
X3430267Y-13899667D01*
X3439790Y-13918714D01*
X3439790Y-14023476D01*
X3535028Y-14023476D02*
X3535028Y-13890143D01*
X3535028Y-13909190D02*
X3544552Y-13899667D01*
X3563600Y-13890143D01*
X3592171Y-13890143D01*
X3611219Y-13899667D01*
X3620743Y-13918714D01*
X3620743Y-14023476D01*
X3620743Y-13918714D02*
X3630267Y-13899667D01*
X3649314Y-13890143D01*
X3677886Y-13890143D01*
X3696933Y-13899667D01*
X3706457Y-13918714D01*
X3706457Y-14023476D01*
X4096933Y-13813952D02*
X3925505Y-14071095D01*
X4354076Y-13823476D02*
X4373124Y-13823476D01*
X4392171Y-13833000D01*
X4401695Y-13842524D01*
X4411219Y-13861571D01*
X4420743Y-13899667D01*
X4420743Y-13947286D01*
X4411219Y-13985381D01*
X4401695Y-14004428D01*
X4392171Y-14013952D01*
X4373124Y-14023476D01*
X4354076Y-14023476D01*
X4335029Y-14013952D01*
X4325505Y-14004428D01*
X4315981Y-13985381D01*
X4306457Y-13947286D01*
X4306457Y-13899667D01*
X4315981Y-13861571D01*
X4325505Y-13842524D01*
X4335029Y-13833000D01*
X4354076Y-13823476D01*
X4506457Y-14004428D02*
X4515981Y-14013952D01*
X4506457Y-14023476D01*
X4496933Y-14013952D01*
X4506457Y-14004428D01*
X4506457Y-14023476D01*
X4639790Y-13823476D02*
X4658838Y-13823476D01*
X4677886Y-13833000D01*
X4687410Y-13842524D01*
X4696933Y-13861571D01*
X4706457Y-13899667D01*
X4706457Y-13947286D01*
X4696933Y-13985381D01*
X4687410Y-14004428D01*
X4677886Y-14013952D01*
X4658838Y-14023476D01*
X4639790Y-14023476D01*
X4620743Y-14013952D01*
X4611219Y-14004428D01*
X4601695Y-13985381D01*
X4592171Y-13947286D01*
X4592171Y-13899667D01*
X4601695Y-13861571D01*
X4611219Y-13842524D01*
X4620743Y-13833000D01*
X4639790Y-13823476D01*
X4887410Y-13823476D02*
X4792171Y-13823476D01*
X4782648Y-13918714D01*
X4792171Y-13909190D01*
X4811219Y-13899667D01*
X4858838Y-13899667D01*
X4877886Y-13909190D01*
X4887410Y-13918714D01*
X4896933Y-13937762D01*
X4896933Y-13985381D01*
X4887410Y-14004428D01*
X4877886Y-14013952D01*
X4858838Y-14023476D01*
X4811219Y-14023476D01*
X4792171Y-14013952D01*
X4782648Y-14004428D01*
X4963600Y-13823476D02*
X5096933Y-13823476D01*
X5011219Y-14023476D01*
X5182648Y-14023476D02*
X5220743Y-14023476D01*
X5239790Y-14013952D01*
X5249314Y-14004428D01*
X5268362Y-13975857D01*
X5277886Y-13937762D01*
X5277886Y-13861571D01*
X5268362Y-13842524D01*
X5258838Y-13833000D01*
X5239790Y-13823476D01*
X5201695Y-13823476D01*
X5182648Y-13833000D01*
X5173124Y-13842524D01*
X5163600Y-13861571D01*
X5163600Y-13909190D01*
X5173124Y-13928238D01*
X5182648Y-13937762D01*
X5201695Y-13947286D01*
X5239790Y-13947286D01*
X5258838Y-13937762D01*
X5268362Y-13928238D01*
X5277886Y-13909190D01*
X5354076Y-13823476D02*
X5354076Y-13861571D01*
X5430267Y-13823476D02*
X5430267Y-13861571D01*
X5725505Y-14099667D02*
X5715981Y-14090143D01*
X5696933Y-14061571D01*
X5687409Y-14042524D01*
X5677886Y-14013952D01*
X5668362Y-13966333D01*
X5668362Y-13928238D01*
X5677886Y-13880619D01*
X5687409Y-13852048D01*
X5696933Y-13833000D01*
X5715981Y-13804428D01*
X5725505Y-13794905D01*
X5887409Y-13890143D02*
X5887409Y-14023476D01*
X5839790Y-13813952D02*
X5792171Y-13956809D01*
X5915981Y-13956809D01*
X6144552Y-14023476D02*
X6144552Y-13823476D01*
X6230267Y-14023476D02*
X6230267Y-13918714D01*
X6220743Y-13899667D01*
X6201695Y-13890143D01*
X6173124Y-13890143D01*
X6154076Y-13899667D01*
X6144552Y-13909190D01*
X6354076Y-14023476D02*
X6335028Y-14013952D01*
X6325505Y-14004428D01*
X6315981Y-13985381D01*
X6315981Y-13928238D01*
X6325505Y-13909190D01*
X6335028Y-13899667D01*
X6354076Y-13890143D01*
X6382648Y-13890143D01*
X6401695Y-13899667D01*
X6411219Y-13909190D01*
X6420743Y-13928238D01*
X6420743Y-13985381D01*
X6411219Y-14004428D01*
X6401695Y-14013952D01*
X6382648Y-14023476D01*
X6354076Y-14023476D01*
X6535028Y-14023476D02*
X6515981Y-14013952D01*
X6506457Y-13994905D01*
X6506457Y-13823476D01*
X6687409Y-14013952D02*
X6668362Y-14023476D01*
X6630267Y-14023476D01*
X6611219Y-14013952D01*
X6601695Y-13994905D01*
X6601695Y-13918714D01*
X6611219Y-13899667D01*
X6630267Y-13890143D01*
X6668362Y-13890143D01*
X6687409Y-13899667D01*
X6696933Y-13918714D01*
X6696933Y-13937762D01*
X6601695Y-13956809D01*
X6773124Y-14013952D02*
X6792171Y-14023476D01*
X6830267Y-14023476D01*
X6849314Y-14013952D01*
X6858838Y-13994905D01*
X6858838Y-13985381D01*
X6849314Y-13966333D01*
X6830267Y-13956809D01*
X6801695Y-13956809D01*
X6782648Y-13947286D01*
X6773124Y-13928238D01*
X6773124Y-13918714D01*
X6782648Y-13899667D01*
X6801695Y-13890143D01*
X6830267Y-13890143D01*
X6849314Y-13899667D01*
X6925505Y-14099667D02*
X6935028Y-14090143D01*
X6954076Y-14061571D01*
X6963600Y-14042524D01*
X6973124Y-14013952D01*
X6982648Y-13966333D01*
X6982648Y-13928238D01*
X6973124Y-13880619D01*
X6963600Y-13852048D01*
X6954076Y-13833000D01*
X6935028Y-13804428D01*
X6925505Y-13794905D01*
D20*
X2073600Y-14120000D02*
X2073600Y-14280000D01*
X1993600Y-14200000D02*
X2153600Y-14200000D01*
X2153600Y-14200000D02*
G75*
G03*
X2153600Y-14200000I-80000J0D01*
G01*
D11*
X2515981Y-14290476D02*
X2401695Y-14290476D01*
X2458838Y-14290476D02*
X2458838Y-14090476D01*
X2439790Y-14119048D01*
X2420743Y-14138095D01*
X2401695Y-14147619D01*
X2601695Y-14271428D02*
X2611219Y-14280952D01*
X2601695Y-14290476D01*
X2592171Y-14280952D01*
X2601695Y-14271428D01*
X2601695Y-14290476D01*
X2782648Y-14090476D02*
X2744552Y-14090476D01*
X2725505Y-14100000D01*
X2715981Y-14109524D01*
X2696933Y-14138095D01*
X2687410Y-14176190D01*
X2687410Y-14252381D01*
X2696933Y-14271428D01*
X2706457Y-14280952D01*
X2725505Y-14290476D01*
X2763600Y-14290476D01*
X2782648Y-14280952D01*
X2792171Y-14271428D01*
X2801695Y-14252381D01*
X2801695Y-14204762D01*
X2792171Y-14185714D01*
X2782648Y-14176190D01*
X2763600Y-14166667D01*
X2725505Y-14166667D01*
X2706457Y-14176190D01*
X2696933Y-14185714D01*
X2687410Y-14204762D01*
X2925505Y-14090476D02*
X2944552Y-14090476D01*
X2963600Y-14100000D01*
X2973124Y-14109524D01*
X2982648Y-14128571D01*
X2992171Y-14166667D01*
X2992171Y-14214286D01*
X2982648Y-14252381D01*
X2973124Y-14271428D01*
X2963600Y-14280952D01*
X2944552Y-14290476D01*
X2925505Y-14290476D01*
X2906457Y-14280952D01*
X2896933Y-14271428D01*
X2887409Y-14252381D01*
X2877886Y-14214286D01*
X2877886Y-14166667D01*
X2887409Y-14128571D01*
X2896933Y-14109524D01*
X2906457Y-14100000D01*
X2925505Y-14090476D01*
X3115981Y-14090476D02*
X3135028Y-14090476D01*
X3154076Y-14100000D01*
X3163600Y-14109524D01*
X3173124Y-14128571D01*
X3182648Y-14166667D01*
X3182648Y-14214286D01*
X3173124Y-14252381D01*
X3163600Y-14271428D01*
X3154076Y-14280952D01*
X3135028Y-14290476D01*
X3115981Y-14290476D01*
X3096933Y-14280952D01*
X3087409Y-14271428D01*
X3077886Y-14252381D01*
X3068362Y-14214286D01*
X3068362Y-14166667D01*
X3077886Y-14128571D01*
X3087409Y-14109524D01*
X3096933Y-14100000D01*
X3115981Y-14090476D01*
X3268362Y-14290476D02*
X3268362Y-14157143D01*
X3268362Y-14176190D02*
X3277886Y-14166667D01*
X3296933Y-14157143D01*
X3325505Y-14157143D01*
X3344552Y-14166667D01*
X3354076Y-14185714D01*
X3354076Y-14290476D01*
X3354076Y-14185714D02*
X3363600Y-14166667D01*
X3382648Y-14157143D01*
X3411219Y-14157143D01*
X3430267Y-14166667D01*
X3439790Y-14185714D01*
X3439790Y-14290476D01*
X3535028Y-14290476D02*
X3535028Y-14157143D01*
X3535028Y-14176190D02*
X3544552Y-14166667D01*
X3563600Y-14157143D01*
X3592171Y-14157143D01*
X3611219Y-14166667D01*
X3620743Y-14185714D01*
X3620743Y-14290476D01*
X3620743Y-14185714D02*
X3630267Y-14166667D01*
X3649314Y-14157143D01*
X3677886Y-14157143D01*
X3696933Y-14166667D01*
X3706457Y-14185714D01*
X3706457Y-14290476D01*
X4096933Y-14080952D02*
X3925505Y-14338095D01*
X4354076Y-14090476D02*
X4373124Y-14090476D01*
X4392171Y-14100000D01*
X4401695Y-14109524D01*
X4411219Y-14128571D01*
X4420743Y-14166667D01*
X4420743Y-14214286D01*
X4411219Y-14252381D01*
X4401695Y-14271428D01*
X4392171Y-14280952D01*
X4373124Y-14290476D01*
X4354076Y-14290476D01*
X4335029Y-14280952D01*
X4325505Y-14271428D01*
X4315981Y-14252381D01*
X4306457Y-14214286D01*
X4306457Y-14166667D01*
X4315981Y-14128571D01*
X4325505Y-14109524D01*
X4335029Y-14100000D01*
X4354076Y-14090476D01*
X4506457Y-14271428D02*
X4515981Y-14280952D01*
X4506457Y-14290476D01*
X4496933Y-14280952D01*
X4506457Y-14271428D01*
X4506457Y-14290476D01*
X4639790Y-14090476D02*
X4658838Y-14090476D01*
X4677886Y-14100000D01*
X4687410Y-14109524D01*
X4696933Y-14128571D01*
X4706457Y-14166667D01*
X4706457Y-14214286D01*
X4696933Y-14252381D01*
X4687410Y-14271428D01*
X4677886Y-14280952D01*
X4658838Y-14290476D01*
X4639790Y-14290476D01*
X4620743Y-14280952D01*
X4611219Y-14271428D01*
X4601695Y-14252381D01*
X4592171Y-14214286D01*
X4592171Y-14166667D01*
X4601695Y-14128571D01*
X4611219Y-14109524D01*
X4620743Y-14100000D01*
X4639790Y-14090476D01*
X4877886Y-14090476D02*
X4839790Y-14090476D01*
X4820743Y-14100000D01*
X4811219Y-14109524D01*
X4792171Y-14138095D01*
X4782648Y-14176190D01*
X4782648Y-14252381D01*
X4792171Y-14271428D01*
X4801695Y-14280952D01*
X4820743Y-14290476D01*
X4858838Y-14290476D01*
X4877886Y-14280952D01*
X4887410Y-14271428D01*
X4896933Y-14252381D01*
X4896933Y-14204762D01*
X4887410Y-14185714D01*
X4877886Y-14176190D01*
X4858838Y-14166667D01*
X4820743Y-14166667D01*
X4801695Y-14176190D01*
X4792171Y-14185714D01*
X4782648Y-14204762D01*
X4963600Y-14090476D02*
X5087410Y-14090476D01*
X5020743Y-14166667D01*
X5049314Y-14166667D01*
X5068362Y-14176190D01*
X5077886Y-14185714D01*
X5087410Y-14204762D01*
X5087410Y-14252381D01*
X5077886Y-14271428D01*
X5068362Y-14280952D01*
X5049314Y-14290476D01*
X4992171Y-14290476D01*
X4973124Y-14280952D01*
X4963600Y-14271428D01*
X5211219Y-14090476D02*
X5230267Y-14090476D01*
X5249314Y-14100000D01*
X5258838Y-14109524D01*
X5268362Y-14128571D01*
X5277886Y-14166667D01*
X5277886Y-14214286D01*
X5268362Y-14252381D01*
X5258838Y-14271428D01*
X5249314Y-14280952D01*
X5230267Y-14290476D01*
X5211219Y-14290476D01*
X5192171Y-14280952D01*
X5182648Y-14271428D01*
X5173124Y-14252381D01*
X5163600Y-14214286D01*
X5163600Y-14166667D01*
X5173124Y-14128571D01*
X5182648Y-14109524D01*
X5192171Y-14100000D01*
X5211219Y-14090476D01*
X5354076Y-14090476D02*
X5354076Y-14128571D01*
X5430267Y-14090476D02*
X5430267Y-14128571D01*
X5725505Y-14366667D02*
X5715981Y-14357143D01*
X5696933Y-14328571D01*
X5687409Y-14309524D01*
X5677886Y-14280952D01*
X5668362Y-14233333D01*
X5668362Y-14195238D01*
X5677886Y-14147619D01*
X5687409Y-14119048D01*
X5696933Y-14100000D01*
X5715981Y-14071428D01*
X5725505Y-14061905D01*
X5887409Y-14090476D02*
X5849314Y-14090476D01*
X5830267Y-14100000D01*
X5820743Y-14109524D01*
X5801695Y-14138095D01*
X5792171Y-14176190D01*
X5792171Y-14252381D01*
X5801695Y-14271428D01*
X5811219Y-14280952D01*
X5830267Y-14290476D01*
X5868362Y-14290476D01*
X5887409Y-14280952D01*
X5896933Y-14271428D01*
X5906457Y-14252381D01*
X5906457Y-14204762D01*
X5896933Y-14185714D01*
X5887409Y-14176190D01*
X5868362Y-14166667D01*
X5830267Y-14166667D01*
X5811219Y-14176190D01*
X5801695Y-14185714D01*
X5792171Y-14204762D01*
X6144552Y-14290476D02*
X6144552Y-14090476D01*
X6230267Y-14290476D02*
X6230267Y-14185714D01*
X6220743Y-14166667D01*
X6201695Y-14157143D01*
X6173124Y-14157143D01*
X6154076Y-14166667D01*
X6144552Y-14176190D01*
X6354076Y-14290476D02*
X6335028Y-14280952D01*
X6325505Y-14271428D01*
X6315981Y-14252381D01*
X6315981Y-14195238D01*
X6325505Y-14176190D01*
X6335028Y-14166667D01*
X6354076Y-14157143D01*
X6382648Y-14157143D01*
X6401695Y-14166667D01*
X6411219Y-14176190D01*
X6420743Y-14195238D01*
X6420743Y-14252381D01*
X6411219Y-14271428D01*
X6401695Y-14280952D01*
X6382648Y-14290476D01*
X6354076Y-14290476D01*
X6535028Y-14290476D02*
X6515981Y-14280952D01*
X6506457Y-14261905D01*
X6506457Y-14090476D01*
X6687409Y-14280952D02*
X6668362Y-14290476D01*
X6630267Y-14290476D01*
X6611219Y-14280952D01*
X6601695Y-14261905D01*
X6601695Y-14185714D01*
X6611219Y-14166667D01*
X6630267Y-14157143D01*
X6668362Y-14157143D01*
X6687409Y-14166667D01*
X6696933Y-14185714D01*
X6696933Y-14204762D01*
X6601695Y-14223809D01*
X6773124Y-14280952D02*
X6792171Y-14290476D01*
X6830267Y-14290476D01*
X6849314Y-14280952D01*
X6858838Y-14261905D01*
X6858838Y-14252381D01*
X6849314Y-14233333D01*
X6830267Y-14223809D01*
X6801695Y-14223809D01*
X6782648Y-14214286D01*
X6773124Y-14195238D01*
X6773124Y-14185714D01*
X6782648Y-14166667D01*
X6801695Y-14157143D01*
X6830267Y-14157143D01*
X6849314Y-14166667D01*
X6925505Y-14366667D02*
X6935028Y-14357143D01*
X6954076Y-14328571D01*
X6963600Y-14309524D01*
X6973124Y-14280952D01*
X6982648Y-14233333D01*
X6982648Y-14195238D01*
X6973124Y-14147619D01*
X6963600Y-14119048D01*
X6954076Y-14100000D01*
X6935028Y-14071428D01*
X6925505Y-14061905D01*
X2124311Y-14550711D02*
X2124311Y-14409289D01*
X1982889Y-14409289D01*
X1982889Y-14550711D01*
X2124311Y-14550711D01*
X2153600Y-14480000D02*
G75*
G03*
X2153600Y-14480000I-100000J0D01*
G01*
X2401695Y-14389524D02*
X2411219Y-14380000D01*
X2430267Y-14370476D01*
X2477886Y-14370476D01*
X2496933Y-14380000D01*
X2506457Y-14389524D01*
X2515981Y-14408571D01*
X2515981Y-14427619D01*
X2506457Y-14456190D01*
X2392171Y-14570476D01*
X2515981Y-14570476D01*
X2601695Y-14551428D02*
X2611219Y-14560952D01*
X2601695Y-14570476D01*
X2592171Y-14560952D01*
X2601695Y-14551428D01*
X2601695Y-14570476D01*
X2792171Y-14370476D02*
X2696933Y-14370476D01*
X2687410Y-14465714D01*
X2696933Y-14456190D01*
X2715981Y-14446667D01*
X2763600Y-14446667D01*
X2782648Y-14456190D01*
X2792171Y-14465714D01*
X2801695Y-14484762D01*
X2801695Y-14532381D01*
X2792171Y-14551428D01*
X2782648Y-14560952D01*
X2763600Y-14570476D01*
X2715981Y-14570476D01*
X2696933Y-14560952D01*
X2687410Y-14551428D01*
X2925505Y-14370476D02*
X2944552Y-14370476D01*
X2963600Y-14380000D01*
X2973124Y-14389524D01*
X2982648Y-14408571D01*
X2992171Y-14446667D01*
X2992171Y-14494286D01*
X2982648Y-14532381D01*
X2973124Y-14551428D01*
X2963600Y-14560952D01*
X2944552Y-14570476D01*
X2925505Y-14570476D01*
X2906457Y-14560952D01*
X2896933Y-14551428D01*
X2887409Y-14532381D01*
X2877886Y-14494286D01*
X2877886Y-14446667D01*
X2887409Y-14408571D01*
X2896933Y-14389524D01*
X2906457Y-14380000D01*
X2925505Y-14370476D01*
X3115981Y-14370476D02*
X3135028Y-14370476D01*
X3154076Y-14380000D01*
X3163600Y-14389524D01*
X3173124Y-14408571D01*
X3182648Y-14446667D01*
X3182648Y-14494286D01*
X3173124Y-14532381D01*
X3163600Y-14551428D01*
X3154076Y-14560952D01*
X3135028Y-14570476D01*
X3115981Y-14570476D01*
X3096933Y-14560952D01*
X3087409Y-14551428D01*
X3077886Y-14532381D01*
X3068362Y-14494286D01*
X3068362Y-14446667D01*
X3077886Y-14408571D01*
X3087409Y-14389524D01*
X3096933Y-14380000D01*
X3115981Y-14370476D01*
X3268362Y-14570476D02*
X3268362Y-14437143D01*
X3268362Y-14456190D02*
X3277886Y-14446667D01*
X3296933Y-14437143D01*
X3325505Y-14437143D01*
X3344552Y-14446667D01*
X3354076Y-14465714D01*
X3354076Y-14570476D01*
X3354076Y-14465714D02*
X3363600Y-14446667D01*
X3382648Y-14437143D01*
X3411219Y-14437143D01*
X3430267Y-14446667D01*
X3439790Y-14465714D01*
X3439790Y-14570476D01*
X3535028Y-14570476D02*
X3535028Y-14437143D01*
X3535028Y-14456190D02*
X3544552Y-14446667D01*
X3563600Y-14437143D01*
X3592171Y-14437143D01*
X3611219Y-14446667D01*
X3620743Y-14465714D01*
X3620743Y-14570476D01*
X3620743Y-14465714D02*
X3630267Y-14446667D01*
X3649314Y-14437143D01*
X3677886Y-14437143D01*
X3696933Y-14446667D01*
X3706457Y-14465714D01*
X3706457Y-14570476D01*
X4096933Y-14360952D02*
X3925505Y-14618095D01*
X4354076Y-14370476D02*
X4373124Y-14370476D01*
X4392171Y-14380000D01*
X4401695Y-14389524D01*
X4411219Y-14408571D01*
X4420743Y-14446667D01*
X4420743Y-14494286D01*
X4411219Y-14532381D01*
X4401695Y-14551428D01*
X4392171Y-14560952D01*
X4373124Y-14570476D01*
X4354076Y-14570476D01*
X4335029Y-14560952D01*
X4325505Y-14551428D01*
X4315981Y-14532381D01*
X4306457Y-14494286D01*
X4306457Y-14446667D01*
X4315981Y-14408571D01*
X4325505Y-14389524D01*
X4335029Y-14380000D01*
X4354076Y-14370476D01*
X4506457Y-14551428D02*
X4515981Y-14560952D01*
X4506457Y-14570476D01*
X4496933Y-14560952D01*
X4506457Y-14551428D01*
X4506457Y-14570476D01*
X4639790Y-14370476D02*
X4658838Y-14370476D01*
X4677886Y-14380000D01*
X4687410Y-14389524D01*
X4696933Y-14408571D01*
X4706457Y-14446667D01*
X4706457Y-14494286D01*
X4696933Y-14532381D01*
X4687410Y-14551428D01*
X4677886Y-14560952D01*
X4658838Y-14570476D01*
X4639790Y-14570476D01*
X4620743Y-14560952D01*
X4611219Y-14551428D01*
X4601695Y-14532381D01*
X4592171Y-14494286D01*
X4592171Y-14446667D01*
X4601695Y-14408571D01*
X4611219Y-14389524D01*
X4620743Y-14380000D01*
X4639790Y-14370476D01*
X4801695Y-14570476D02*
X4839790Y-14570476D01*
X4858838Y-14560952D01*
X4868362Y-14551428D01*
X4887410Y-14522857D01*
X4896933Y-14484762D01*
X4896933Y-14408571D01*
X4887410Y-14389524D01*
X4877886Y-14380000D01*
X4858838Y-14370476D01*
X4820743Y-14370476D01*
X4801695Y-14380000D01*
X4792171Y-14389524D01*
X4782648Y-14408571D01*
X4782648Y-14456190D01*
X4792171Y-14475238D01*
X4801695Y-14484762D01*
X4820743Y-14494286D01*
X4858838Y-14494286D01*
X4877886Y-14484762D01*
X4887410Y-14475238D01*
X4896933Y-14456190D01*
X5011219Y-14456190D02*
X4992171Y-14446667D01*
X4982648Y-14437143D01*
X4973124Y-14418095D01*
X4973124Y-14408571D01*
X4982648Y-14389524D01*
X4992171Y-14380000D01*
X5011219Y-14370476D01*
X5049314Y-14370476D01*
X5068362Y-14380000D01*
X5077886Y-14389524D01*
X5087410Y-14408571D01*
X5087410Y-14418095D01*
X5077886Y-14437143D01*
X5068362Y-14446667D01*
X5049314Y-14456190D01*
X5011219Y-14456190D01*
X4992171Y-14465714D01*
X4982648Y-14475238D01*
X4973124Y-14494286D01*
X4973124Y-14532381D01*
X4982648Y-14551428D01*
X4992171Y-14560952D01*
X5011219Y-14570476D01*
X5049314Y-14570476D01*
X5068362Y-14560952D01*
X5077886Y-14551428D01*
X5087410Y-14532381D01*
X5087410Y-14494286D01*
X5077886Y-14475238D01*
X5068362Y-14465714D01*
X5049314Y-14456190D01*
X5258838Y-14437143D02*
X5258838Y-14570476D01*
X5211219Y-14360952D02*
X5163600Y-14503809D01*
X5287410Y-14503809D01*
X5354076Y-14370476D02*
X5354076Y-14408571D01*
X5430267Y-14370476D02*
X5430267Y-14408571D01*
X5725505Y-14646667D02*
X5715981Y-14637143D01*
X5696933Y-14608571D01*
X5687409Y-14589524D01*
X5677886Y-14560952D01*
X5668362Y-14513333D01*
X5668362Y-14475238D01*
X5677886Y-14427619D01*
X5687409Y-14399048D01*
X5696933Y-14380000D01*
X5715981Y-14351428D01*
X5725505Y-14341905D01*
X5887409Y-14437143D02*
X5887409Y-14570476D01*
X5839790Y-14360952D02*
X5792171Y-14503809D01*
X5915981Y-14503809D01*
X6144552Y-14570476D02*
X6144552Y-14370476D01*
X6230267Y-14570476D02*
X6230267Y-14465714D01*
X6220743Y-14446667D01*
X6201695Y-14437143D01*
X6173124Y-14437143D01*
X6154076Y-14446667D01*
X6144552Y-14456190D01*
X6354076Y-14570476D02*
X6335028Y-14560952D01*
X6325505Y-14551428D01*
X6315981Y-14532381D01*
X6315981Y-14475238D01*
X6325505Y-14456190D01*
X6335028Y-14446667D01*
X6354076Y-14437143D01*
X6382648Y-14437143D01*
X6401695Y-14446667D01*
X6411219Y-14456190D01*
X6420743Y-14475238D01*
X6420743Y-14532381D01*
X6411219Y-14551428D01*
X6401695Y-14560952D01*
X6382648Y-14570476D01*
X6354076Y-14570476D01*
X6535028Y-14570476D02*
X6515981Y-14560952D01*
X6506457Y-14541905D01*
X6506457Y-14370476D01*
X6687409Y-14560952D02*
X6668362Y-14570476D01*
X6630267Y-14570476D01*
X6611219Y-14560952D01*
X6601695Y-14541905D01*
X6601695Y-14465714D01*
X6611219Y-14446667D01*
X6630267Y-14437143D01*
X6668362Y-14437143D01*
X6687409Y-14446667D01*
X6696933Y-14465714D01*
X6696933Y-14484762D01*
X6601695Y-14503809D01*
X6773124Y-14560952D02*
X6792171Y-14570476D01*
X6830267Y-14570476D01*
X6849314Y-14560952D01*
X6858838Y-14541905D01*
X6858838Y-14532381D01*
X6849314Y-14513333D01*
X6830267Y-14503809D01*
X6801695Y-14503809D01*
X6782648Y-14494286D01*
X6773124Y-14475238D01*
X6773124Y-14465714D01*
X6782648Y-14446667D01*
X6801695Y-14437143D01*
X6830267Y-14437143D01*
X6849314Y-14446667D01*
X6925505Y-14646667D02*
X6935028Y-14637143D01*
X6954076Y-14608571D01*
X6963600Y-14589524D01*
X6973124Y-14560952D01*
X6982648Y-14513333D01*
X6982648Y-14475238D01*
X6973124Y-14427619D01*
X6963600Y-14399048D01*
X6954076Y-14380000D01*
X6935028Y-14351428D01*
X6925505Y-14341905D01*
M02*
