M48
; DRILL file {KiCad (6.0.7)} date sob, 13 sie 2022, 20:07:06
; FORMAT={-:-/ absolute / inch / decimal}
; #@! TF.CreationDate,2022-08-13T20:07:06+02:00
; #@! TF.GenerationSoftware,Kicad,Pcbnew,(6.0.7)
; #@! TF.FileFunction,Plated,1,2,PTH
FMAT,2
INCH
; #@! TA.AperFunction,Plated,PTH,ViaDrill
T1C0.0157
; #@! TA.AperFunction,Plated,PTH,ComponentDrill
T2C0.0236
; #@! TA.AperFunction,Plated,PTH,ComponentDrill
T3C0.0276
; #@! TA.AperFunction,Plated,PTH,ComponentDrill
T4C0.0315
; #@! TA.AperFunction,Plated,PTH,ComponentDrill
T5C0.0394
; #@! TA.AperFunction,Plated,PTH,ComponentDrill
T6C0.0433
; #@! TA.AperFunction,Plated,PTH,ComponentDrill
T7C0.0472
; #@! TA.AperFunction,Plated,PTH,ComponentDrill
T8C0.0551
; #@! TA.AperFunction,Plated,PTH,ComponentDrill
T9C0.0579
; #@! TA.AperFunction,Plated,PTH,ComponentDrill
T10C0.0630
; #@! TA.AperFunction,Plated,PTH,ComponentDrill
T11C0.0984
%
G90
G05
T1
X1.45Y-2.02
X1.84Y-1.68
X2.16Y-1.68
X2.85Y-1.25
X2.8586Y-2.03
X2.99Y-1.94
X3.2322Y-1.8474
X3.28Y-1.85
X3.32Y-1.85
X3.33Y-2.8315
X3.37Y-2.89
X3.4Y-2.97
T2
X1.23Y-1.86
X1.2891Y-1.86
X1.4216Y-1.86
X1.4806Y-1.86
X1.6116Y-1.86
X1.6706Y-1.86
T3
X1.44Y-1.375
X1.44Y-1.675
X1.56Y-1.375
X1.56Y-1.675
X2.478Y-3.275
X2.478Y-3.775
X2.478Y-4.275
X2.778Y-3.275
X2.778Y-3.775
X2.778Y-4.275
X2.92Y-3.2034
X2.92Y-3.7704
X2.92Y-4.05
X3.14Y-1.36
X3.14Y-1.45
X3.22Y-3.2034
X3.22Y-3.7704
X3.22Y-4.05
X3.44Y-1.36
X3.44Y-1.45
X3.67Y-1.15
X3.7723Y-1.15
T4
X1.8496Y-1.5504
X1.8496Y-1.8504
X1.9496Y-1.5504
X1.9496Y-1.8504
X2.0Y-1.4
X2.0496Y-1.5504
X2.0496Y-1.8504
X2.1496Y-1.5504
X2.1496Y-1.8504
X2.1969Y-1.4
X2.2496Y-1.5504
X2.2496Y-1.8504
X2.3496Y-1.5504
X2.3496Y-1.8504
X2.3516Y-1.98
X2.3984Y-1.4
X2.4496Y-1.5504
X2.4496Y-1.8504
X2.5484Y-1.98
X2.5496Y-1.5504
X2.5496Y-1.8504
X2.5906Y-1.4
X2.6496Y-1.5504
X2.6496Y-1.8504
X2.7496Y-1.5504
X2.7496Y-1.8504
X2.8Y-1.4
X2.8496Y-1.5504
X2.8496Y-1.8504
X2.92Y-3.9102
X2.9296Y-2.16
X2.9296Y-2.26
X2.9296Y-2.36
X2.9296Y-2.46
X2.9296Y-2.56
X2.9296Y-2.66
X2.9296Y-2.76
X2.9296Y-2.86
X2.9496Y-1.5504
X2.9496Y-1.8504
X2.9706Y-3.3365
X2.9706Y-3.6365
X2.9716Y-3.04
X2.9969Y-1.4
X3.0496Y-1.5504
X3.0496Y-1.8504
X3.0706Y-3.3365
X3.0706Y-3.6365
X3.1496Y-1.5504
X3.1496Y-1.8504
X3.1684Y-3.04
X3.1706Y-3.3365
X3.1706Y-3.6365
X3.22Y-3.9102
X3.2296Y-2.16
X3.2296Y-2.26
X3.2296Y-2.36
X3.2296Y-2.46
X3.2296Y-2.56
X3.2296Y-2.66
X3.2296Y-2.76
X3.2296Y-2.86
T5
X0.975Y-1.6219
X0.975Y-1.74
X0.975Y-1.8581
X1.01Y-2.5
X1.01Y-2.6
X3.0319Y-1.1
X3.15Y-1.1
X3.2681Y-1.1
X3.96Y-1.97
X3.96Y-2.07
X3.96Y-2.17
X4.02Y-1.4419
X4.02Y-1.56
X4.02Y-1.6781
X4.06Y-1.97
X4.06Y-2.07
X4.06Y-2.17
T6
X2.5Y-2.9364
X2.5Y-3.1136
X2.5Y-3.4364
X2.5Y-3.6136
X2.5Y-3.9364
X2.5Y-4.1136
X2.7559Y-2.9364
X2.7559Y-3.1136
X2.7559Y-3.4364
X2.7559Y-3.6136
X2.7559Y-3.9364
X2.7559Y-4.1136
T7
X1.24Y-1.1
X1.34Y-1.1
X1.44Y-1.1
X1.54Y-1.1
X1.64Y-1.1
X1.74Y-1.1
X1.84Y-1.1
X1.94Y-1.1
X2.04Y-1.1
X2.14Y-1.1
X2.24Y-1.1
X2.34Y-1.1
X2.44Y-1.1
X2.54Y-1.1
X2.64Y-1.1
X2.74Y-1.1
T8
X3.4047Y-3.8819
X3.5031Y-3.7835
X3.5031Y-4.2756
X3.7Y-3.8819
X3.8969Y-3.7835
X3.8969Y-4.2756
X3.9953Y-3.8819
T9
X1.2302Y-2.7801
X1.2302Y-4.275
X1.975Y-2.7801
X1.975Y-4.275
T10
X0.975Y-1.5018
X0.975Y-1.9782
X2.9118Y-1.1
X3.3882Y-1.1
X4.02Y-1.3218
X4.02Y-1.7982
T11
X1.0235Y-1.1
X1.0235Y-2.3205
X3.9762Y-2.3205
X3.9762Y-1.1
T5
G00X3.57Y-3.4594
M15
G01X3.57Y-3.3806
M16
G05
G00X3.7275Y-3.235
M15
G01X3.6487Y-3.235
M16
G05
G00X3.8062Y-3.4594
M15
G01X3.8062Y-3.3806
M16
G05
T0
M30
