%TF.GenerationSoftware,KiCad,Pcbnew,(6.0.7)*%
%TF.CreationDate,2022-08-13T20:07:05+02:00*%
%TF.ProjectId,SD_interrupter,53445f69-6e74-4657-9272-75707465722e,rev?*%
%TF.SameCoordinates,Original*%
%TF.FileFunction,Drillmap*%
%TF.FilePolarity,Positive*%
%FSLAX45Y45*%
G04 Gerber Fmt 4.5, Leading zero omitted, Abs format (unit mm)*
G04 Created by KiCad (PCBNEW (6.0.7)) date 2022-08-13 20:07:05*
%MOMM*%
%LPD*%
G01*
G04 APERTURE LIST*
%ADD10C,0.100000*%
%ADD11C,0.200000*%
%ADD12C,0.127000*%
%ADD13C,0.160000*%
%ADD14C,0.320000*%
G04 APERTURE END LIST*
D10*
X2158600Y-2540000D02*
X10540600Y-2540000D01*
X10540600Y-2540000D02*
X10540600Y-11176000D01*
X10540600Y-11176000D02*
X2158600Y-11176000D01*
X2158600Y-11176000D02*
X2158600Y-2540000D01*
D11*
D12*
X3698200Y-6938500D02*
X3825200Y-7065500D01*
X3825200Y-6938500D02*
X3698200Y-7065500D01*
X4316000Y-10854500D02*
X4443000Y-10981500D01*
X4443000Y-10854500D02*
X4316000Y-10981500D01*
D13*
X9291763Y-2671000D02*
G75*
G03*
X9291763Y-2671000I-80000J0D01*
G01*
X9791763Y-2671000D02*
G75*
G03*
X9791763Y-2671000I-80000J0D01*
G01*
D14*
X9461763Y-3271000D02*
X9461763Y-3591000D01*
X9301763Y-3431000D02*
X9621763Y-3431000D01*
D11*
X2411219Y-11491476D02*
X2411219Y-11291476D01*
X2458838Y-11291476D01*
X2487410Y-11301000D01*
X2506457Y-11320048D01*
X2515981Y-11339095D01*
X2525505Y-11377190D01*
X2525505Y-11405762D01*
X2515981Y-11443857D01*
X2506457Y-11462905D01*
X2487410Y-11481952D01*
X2458838Y-11491476D01*
X2411219Y-11491476D01*
X2611219Y-11491476D02*
X2611219Y-11358143D01*
X2611219Y-11396238D02*
X2620743Y-11377190D01*
X2630267Y-11367667D01*
X2649314Y-11358143D01*
X2668362Y-11358143D01*
X2735029Y-11491476D02*
X2735029Y-11358143D01*
X2735029Y-11291476D02*
X2725505Y-11301000D01*
X2735029Y-11310524D01*
X2744552Y-11301000D01*
X2735029Y-11291476D01*
X2735029Y-11310524D01*
X2858838Y-11491476D02*
X2839790Y-11481952D01*
X2830267Y-11462905D01*
X2830267Y-11291476D01*
X2963600Y-11491476D02*
X2944552Y-11481952D01*
X2935028Y-11462905D01*
X2935028Y-11291476D01*
X3192171Y-11491476D02*
X3192171Y-11291476D01*
X3258838Y-11434333D01*
X3325505Y-11291476D01*
X3325505Y-11491476D01*
X3506457Y-11491476D02*
X3506457Y-11386714D01*
X3496933Y-11367667D01*
X3477886Y-11358143D01*
X3439790Y-11358143D01*
X3420743Y-11367667D01*
X3506457Y-11481952D02*
X3487409Y-11491476D01*
X3439790Y-11491476D01*
X3420743Y-11481952D01*
X3411219Y-11462905D01*
X3411219Y-11443857D01*
X3420743Y-11424809D01*
X3439790Y-11415286D01*
X3487409Y-11415286D01*
X3506457Y-11405762D01*
X3601695Y-11358143D02*
X3601695Y-11558143D01*
X3601695Y-11367667D02*
X3620743Y-11358143D01*
X3658838Y-11358143D01*
X3677886Y-11367667D01*
X3687409Y-11377190D01*
X3696933Y-11396238D01*
X3696933Y-11453381D01*
X3687409Y-11472428D01*
X3677886Y-11481952D01*
X3658838Y-11491476D01*
X3620743Y-11491476D01*
X3601695Y-11481952D01*
X3782648Y-11472428D02*
X3792171Y-11481952D01*
X3782648Y-11491476D01*
X3773124Y-11481952D01*
X3782648Y-11472428D01*
X3782648Y-11491476D01*
X3782648Y-11367667D02*
X3792171Y-11377190D01*
X3782648Y-11386714D01*
X3773124Y-11377190D01*
X3782648Y-11367667D01*
X3782648Y-11386714D01*
D12*
X2026600Y-11757500D02*
X2153600Y-11884500D01*
X2153600Y-11757500D02*
X2026600Y-11884500D01*
D11*
X2515981Y-11911476D02*
X2401695Y-11911476D01*
X2458838Y-11911476D02*
X2458838Y-11711476D01*
X2439790Y-11740048D01*
X2420743Y-11759095D01*
X2401695Y-11768619D01*
X2601695Y-11892428D02*
X2611219Y-11901952D01*
X2601695Y-11911476D01*
X2592171Y-11901952D01*
X2601695Y-11892428D01*
X2601695Y-11911476D01*
X2687410Y-11730524D02*
X2696933Y-11721000D01*
X2715981Y-11711476D01*
X2763600Y-11711476D01*
X2782648Y-11721000D01*
X2792171Y-11730524D01*
X2801695Y-11749571D01*
X2801695Y-11768619D01*
X2792171Y-11797190D01*
X2677886Y-11911476D01*
X2801695Y-11911476D01*
X2868362Y-11711476D02*
X3001695Y-11711476D01*
X2915981Y-11911476D01*
X3115981Y-11711476D02*
X3135028Y-11711476D01*
X3154076Y-11721000D01*
X3163600Y-11730524D01*
X3173124Y-11749571D01*
X3182648Y-11787667D01*
X3182648Y-11835286D01*
X3173124Y-11873381D01*
X3163600Y-11892428D01*
X3154076Y-11901952D01*
X3135028Y-11911476D01*
X3115981Y-11911476D01*
X3096933Y-11901952D01*
X3087409Y-11892428D01*
X3077886Y-11873381D01*
X3068362Y-11835286D01*
X3068362Y-11787667D01*
X3077886Y-11749571D01*
X3087409Y-11730524D01*
X3096933Y-11721000D01*
X3115981Y-11711476D01*
X3268362Y-11911476D02*
X3268362Y-11778143D01*
X3268362Y-11797190D02*
X3277886Y-11787667D01*
X3296933Y-11778143D01*
X3325505Y-11778143D01*
X3344552Y-11787667D01*
X3354076Y-11806714D01*
X3354076Y-11911476D01*
X3354076Y-11806714D02*
X3363600Y-11787667D01*
X3382648Y-11778143D01*
X3411219Y-11778143D01*
X3430267Y-11787667D01*
X3439790Y-11806714D01*
X3439790Y-11911476D01*
X3535028Y-11911476D02*
X3535028Y-11778143D01*
X3535028Y-11797190D02*
X3544552Y-11787667D01*
X3563600Y-11778143D01*
X3592171Y-11778143D01*
X3611219Y-11787667D01*
X3620743Y-11806714D01*
X3620743Y-11911476D01*
X3620743Y-11806714D02*
X3630267Y-11787667D01*
X3649314Y-11778143D01*
X3677886Y-11778143D01*
X3696933Y-11787667D01*
X3706457Y-11806714D01*
X3706457Y-11911476D01*
X4096933Y-11701952D02*
X3925505Y-11959095D01*
X4354076Y-11711476D02*
X4373124Y-11711476D01*
X4392171Y-11721000D01*
X4401695Y-11730524D01*
X4411219Y-11749571D01*
X4420743Y-11787667D01*
X4420743Y-11835286D01*
X4411219Y-11873381D01*
X4401695Y-11892428D01*
X4392171Y-11901952D01*
X4373124Y-11911476D01*
X4354076Y-11911476D01*
X4335029Y-11901952D01*
X4325505Y-11892428D01*
X4315981Y-11873381D01*
X4306457Y-11835286D01*
X4306457Y-11787667D01*
X4315981Y-11749571D01*
X4325505Y-11730524D01*
X4335029Y-11721000D01*
X4354076Y-11711476D01*
X4506457Y-11892428D02*
X4515981Y-11901952D01*
X4506457Y-11911476D01*
X4496933Y-11901952D01*
X4506457Y-11892428D01*
X4506457Y-11911476D01*
X4639790Y-11711476D02*
X4658838Y-11711476D01*
X4677886Y-11721000D01*
X4687410Y-11730524D01*
X4696933Y-11749571D01*
X4706457Y-11787667D01*
X4706457Y-11835286D01*
X4696933Y-11873381D01*
X4687410Y-11892428D01*
X4677886Y-11901952D01*
X4658838Y-11911476D01*
X4639790Y-11911476D01*
X4620743Y-11901952D01*
X4611219Y-11892428D01*
X4601695Y-11873381D01*
X4592171Y-11835286D01*
X4592171Y-11787667D01*
X4601695Y-11749571D01*
X4611219Y-11730524D01*
X4620743Y-11721000D01*
X4639790Y-11711476D01*
X4887410Y-11711476D02*
X4792171Y-11711476D01*
X4782648Y-11806714D01*
X4792171Y-11797190D01*
X4811219Y-11787667D01*
X4858838Y-11787667D01*
X4877886Y-11797190D01*
X4887410Y-11806714D01*
X4896933Y-11825762D01*
X4896933Y-11873381D01*
X4887410Y-11892428D01*
X4877886Y-11901952D01*
X4858838Y-11911476D01*
X4811219Y-11911476D01*
X4792171Y-11901952D01*
X4782648Y-11892428D01*
X5020743Y-11711476D02*
X5039790Y-11711476D01*
X5058838Y-11721000D01*
X5068362Y-11730524D01*
X5077886Y-11749571D01*
X5087410Y-11787667D01*
X5087410Y-11835286D01*
X5077886Y-11873381D01*
X5068362Y-11892428D01*
X5058838Y-11901952D01*
X5039790Y-11911476D01*
X5020743Y-11911476D01*
X5001695Y-11901952D01*
X4992171Y-11892428D01*
X4982648Y-11873381D01*
X4973124Y-11835286D01*
X4973124Y-11787667D01*
X4982648Y-11749571D01*
X4992171Y-11730524D01*
X5001695Y-11721000D01*
X5020743Y-11711476D01*
X5211219Y-11711476D02*
X5230267Y-11711476D01*
X5249314Y-11721000D01*
X5258838Y-11730524D01*
X5268362Y-11749571D01*
X5277886Y-11787667D01*
X5277886Y-11835286D01*
X5268362Y-11873381D01*
X5258838Y-11892428D01*
X5249314Y-11901952D01*
X5230267Y-11911476D01*
X5211219Y-11911476D01*
X5192171Y-11901952D01*
X5182648Y-11892428D01*
X5173124Y-11873381D01*
X5163600Y-11835286D01*
X5163600Y-11787667D01*
X5173124Y-11749571D01*
X5182648Y-11730524D01*
X5192171Y-11721000D01*
X5211219Y-11711476D01*
X5354076Y-11711476D02*
X5354076Y-11749571D01*
X5430267Y-11711476D02*
X5430267Y-11749571D01*
X5725505Y-11987667D02*
X5715981Y-11978143D01*
X5696933Y-11949571D01*
X5687409Y-11930524D01*
X5677886Y-11901952D01*
X5668362Y-11854333D01*
X5668362Y-11816238D01*
X5677886Y-11768619D01*
X5687409Y-11740048D01*
X5696933Y-11721000D01*
X5715981Y-11692428D01*
X5725505Y-11682905D01*
X5792171Y-11730524D02*
X5801695Y-11721000D01*
X5820743Y-11711476D01*
X5868362Y-11711476D01*
X5887409Y-11721000D01*
X5896933Y-11730524D01*
X5906457Y-11749571D01*
X5906457Y-11768619D01*
X5896933Y-11797190D01*
X5782648Y-11911476D01*
X5906457Y-11911476D01*
X6144552Y-11911476D02*
X6144552Y-11711476D01*
X6230267Y-11911476D02*
X6230267Y-11806714D01*
X6220743Y-11787667D01*
X6201695Y-11778143D01*
X6173124Y-11778143D01*
X6154076Y-11787667D01*
X6144552Y-11797190D01*
X6354076Y-11911476D02*
X6335028Y-11901952D01*
X6325505Y-11892428D01*
X6315981Y-11873381D01*
X6315981Y-11816238D01*
X6325505Y-11797190D01*
X6335028Y-11787667D01*
X6354076Y-11778143D01*
X6382648Y-11778143D01*
X6401695Y-11787667D01*
X6411219Y-11797190D01*
X6420743Y-11816238D01*
X6420743Y-11873381D01*
X6411219Y-11892428D01*
X6401695Y-11901952D01*
X6382648Y-11911476D01*
X6354076Y-11911476D01*
X6535028Y-11911476D02*
X6515981Y-11901952D01*
X6506457Y-11882905D01*
X6506457Y-11711476D01*
X6687409Y-11901952D02*
X6668362Y-11911476D01*
X6630267Y-11911476D01*
X6611219Y-11901952D01*
X6601695Y-11882905D01*
X6601695Y-11806714D01*
X6611219Y-11787667D01*
X6630267Y-11778143D01*
X6668362Y-11778143D01*
X6687409Y-11787667D01*
X6696933Y-11806714D01*
X6696933Y-11825762D01*
X6601695Y-11844809D01*
X6773124Y-11901952D02*
X6792171Y-11911476D01*
X6830267Y-11911476D01*
X6849314Y-11901952D01*
X6858838Y-11882905D01*
X6858838Y-11873381D01*
X6849314Y-11854333D01*
X6830267Y-11844809D01*
X6801695Y-11844809D01*
X6782648Y-11835286D01*
X6773124Y-11816238D01*
X6773124Y-11806714D01*
X6782648Y-11787667D01*
X6801695Y-11778143D01*
X6830267Y-11778143D01*
X6849314Y-11787667D01*
X6925505Y-11987667D02*
X6935028Y-11978143D01*
X6954076Y-11949571D01*
X6963600Y-11930524D01*
X6973124Y-11901952D01*
X6982648Y-11854333D01*
X6982648Y-11816238D01*
X6973124Y-11768619D01*
X6963600Y-11740048D01*
X6954076Y-11721000D01*
X6935028Y-11692428D01*
X6925505Y-11682905D01*
X7287409Y-11987667D02*
X7277886Y-11978143D01*
X7258838Y-11949571D01*
X7249314Y-11930524D01*
X7239790Y-11901952D01*
X7230267Y-11854333D01*
X7230267Y-11816238D01*
X7239790Y-11768619D01*
X7249314Y-11740048D01*
X7258838Y-11721000D01*
X7277886Y-11692428D01*
X7287409Y-11682905D01*
X7363600Y-11778143D02*
X7363600Y-11911476D01*
X7363600Y-11797190D02*
X7373124Y-11787667D01*
X7392171Y-11778143D01*
X7420743Y-11778143D01*
X7439790Y-11787667D01*
X7449314Y-11806714D01*
X7449314Y-11911476D01*
X7573124Y-11911476D02*
X7554076Y-11901952D01*
X7544552Y-11892428D01*
X7535028Y-11873381D01*
X7535028Y-11816238D01*
X7544552Y-11797190D01*
X7554076Y-11787667D01*
X7573124Y-11778143D01*
X7601695Y-11778143D01*
X7620743Y-11787667D01*
X7630267Y-11797190D01*
X7639790Y-11816238D01*
X7639790Y-11873381D01*
X7630267Y-11892428D01*
X7620743Y-11901952D01*
X7601695Y-11911476D01*
X7573124Y-11911476D01*
X7696933Y-11778143D02*
X7773124Y-11778143D01*
X7725505Y-11711476D02*
X7725505Y-11882905D01*
X7735028Y-11901952D01*
X7754076Y-11911476D01*
X7773124Y-11911476D01*
X7992171Y-11778143D02*
X7992171Y-11978143D01*
X7992171Y-11787667D02*
X8011219Y-11778143D01*
X8049314Y-11778143D01*
X8068362Y-11787667D01*
X8077886Y-11797190D01*
X8087409Y-11816238D01*
X8087409Y-11873381D01*
X8077886Y-11892428D01*
X8068362Y-11901952D01*
X8049314Y-11911476D01*
X8011219Y-11911476D01*
X7992171Y-11901952D01*
X8201695Y-11911476D02*
X8182648Y-11901952D01*
X8173124Y-11882905D01*
X8173124Y-11711476D01*
X8363600Y-11911476D02*
X8363600Y-11806714D01*
X8354076Y-11787667D01*
X8335028Y-11778143D01*
X8296933Y-11778143D01*
X8277886Y-11787667D01*
X8363600Y-11901952D02*
X8344552Y-11911476D01*
X8296933Y-11911476D01*
X8277886Y-11901952D01*
X8268362Y-11882905D01*
X8268362Y-11863857D01*
X8277886Y-11844809D01*
X8296933Y-11835286D01*
X8344552Y-11835286D01*
X8363600Y-11825762D01*
X8430267Y-11778143D02*
X8506457Y-11778143D01*
X8458838Y-11711476D02*
X8458838Y-11882905D01*
X8468362Y-11901952D01*
X8487410Y-11911476D01*
X8506457Y-11911476D01*
X8649314Y-11901952D02*
X8630267Y-11911476D01*
X8592171Y-11911476D01*
X8573124Y-11901952D01*
X8563600Y-11882905D01*
X8563600Y-11806714D01*
X8573124Y-11787667D01*
X8592171Y-11778143D01*
X8630267Y-11778143D01*
X8649314Y-11787667D01*
X8658838Y-11806714D01*
X8658838Y-11825762D01*
X8563600Y-11844809D01*
X8830267Y-11911476D02*
X8830267Y-11711476D01*
X8830267Y-11901952D02*
X8811219Y-11911476D01*
X8773124Y-11911476D01*
X8754076Y-11901952D01*
X8744552Y-11892428D01*
X8735029Y-11873381D01*
X8735029Y-11816238D01*
X8744552Y-11797190D01*
X8754076Y-11787667D01*
X8773124Y-11778143D01*
X8811219Y-11778143D01*
X8830267Y-11787667D01*
X8906457Y-11987667D02*
X8915981Y-11978143D01*
X8935029Y-11949571D01*
X8944552Y-11930524D01*
X8954076Y-11901952D01*
X8963600Y-11854333D01*
X8963600Y-11816238D01*
X8954076Y-11768619D01*
X8944552Y-11740048D01*
X8935029Y-11721000D01*
X8915981Y-11692428D01*
X8906457Y-11682905D01*
D13*
X2153600Y-12085000D02*
G75*
G03*
X2153600Y-12085000I-80000J0D01*
G01*
D11*
X2515981Y-12175476D02*
X2401695Y-12175476D01*
X2458838Y-12175476D02*
X2458838Y-11975476D01*
X2439790Y-12004048D01*
X2420743Y-12023095D01*
X2401695Y-12032619D01*
X2601695Y-12156428D02*
X2611219Y-12165952D01*
X2601695Y-12175476D01*
X2592171Y-12165952D01*
X2601695Y-12156428D01*
X2601695Y-12175476D01*
X2782648Y-11975476D02*
X2744552Y-11975476D01*
X2725505Y-11985000D01*
X2715981Y-11994524D01*
X2696933Y-12023095D01*
X2687410Y-12061190D01*
X2687410Y-12137381D01*
X2696933Y-12156428D01*
X2706457Y-12165952D01*
X2725505Y-12175476D01*
X2763600Y-12175476D01*
X2782648Y-12165952D01*
X2792171Y-12156428D01*
X2801695Y-12137381D01*
X2801695Y-12089762D01*
X2792171Y-12070714D01*
X2782648Y-12061190D01*
X2763600Y-12051667D01*
X2725505Y-12051667D01*
X2706457Y-12061190D01*
X2696933Y-12070714D01*
X2687410Y-12089762D01*
X2925505Y-11975476D02*
X2944552Y-11975476D01*
X2963600Y-11985000D01*
X2973124Y-11994524D01*
X2982648Y-12013571D01*
X2992171Y-12051667D01*
X2992171Y-12099286D01*
X2982648Y-12137381D01*
X2973124Y-12156428D01*
X2963600Y-12165952D01*
X2944552Y-12175476D01*
X2925505Y-12175476D01*
X2906457Y-12165952D01*
X2896933Y-12156428D01*
X2887409Y-12137381D01*
X2877886Y-12099286D01*
X2877886Y-12051667D01*
X2887409Y-12013571D01*
X2896933Y-11994524D01*
X2906457Y-11985000D01*
X2925505Y-11975476D01*
X3115981Y-11975476D02*
X3135028Y-11975476D01*
X3154076Y-11985000D01*
X3163600Y-11994524D01*
X3173124Y-12013571D01*
X3182648Y-12051667D01*
X3182648Y-12099286D01*
X3173124Y-12137381D01*
X3163600Y-12156428D01*
X3154076Y-12165952D01*
X3135028Y-12175476D01*
X3115981Y-12175476D01*
X3096933Y-12165952D01*
X3087409Y-12156428D01*
X3077886Y-12137381D01*
X3068362Y-12099286D01*
X3068362Y-12051667D01*
X3077886Y-12013571D01*
X3087409Y-11994524D01*
X3096933Y-11985000D01*
X3115981Y-11975476D01*
X3268362Y-12175476D02*
X3268362Y-12042143D01*
X3268362Y-12061190D02*
X3277886Y-12051667D01*
X3296933Y-12042143D01*
X3325505Y-12042143D01*
X3344552Y-12051667D01*
X3354076Y-12070714D01*
X3354076Y-12175476D01*
X3354076Y-12070714D02*
X3363600Y-12051667D01*
X3382648Y-12042143D01*
X3411219Y-12042143D01*
X3430267Y-12051667D01*
X3439790Y-12070714D01*
X3439790Y-12175476D01*
X3535028Y-12175476D02*
X3535028Y-12042143D01*
X3535028Y-12061190D02*
X3544552Y-12051667D01*
X3563600Y-12042143D01*
X3592171Y-12042143D01*
X3611219Y-12051667D01*
X3620743Y-12070714D01*
X3620743Y-12175476D01*
X3620743Y-12070714D02*
X3630267Y-12051667D01*
X3649314Y-12042143D01*
X3677886Y-12042143D01*
X3696933Y-12051667D01*
X3706457Y-12070714D01*
X3706457Y-12175476D01*
X4096933Y-11965952D02*
X3925505Y-12223095D01*
X4354076Y-11975476D02*
X4373124Y-11975476D01*
X4392171Y-11985000D01*
X4401695Y-11994524D01*
X4411219Y-12013571D01*
X4420743Y-12051667D01*
X4420743Y-12099286D01*
X4411219Y-12137381D01*
X4401695Y-12156428D01*
X4392171Y-12165952D01*
X4373124Y-12175476D01*
X4354076Y-12175476D01*
X4335029Y-12165952D01*
X4325505Y-12156428D01*
X4315981Y-12137381D01*
X4306457Y-12099286D01*
X4306457Y-12051667D01*
X4315981Y-12013571D01*
X4325505Y-11994524D01*
X4335029Y-11985000D01*
X4354076Y-11975476D01*
X4506457Y-12156428D02*
X4515981Y-12165952D01*
X4506457Y-12175476D01*
X4496933Y-12165952D01*
X4506457Y-12156428D01*
X4506457Y-12175476D01*
X4639790Y-11975476D02*
X4658838Y-11975476D01*
X4677886Y-11985000D01*
X4687410Y-11994524D01*
X4696933Y-12013571D01*
X4706457Y-12051667D01*
X4706457Y-12099286D01*
X4696933Y-12137381D01*
X4687410Y-12156428D01*
X4677886Y-12165952D01*
X4658838Y-12175476D01*
X4639790Y-12175476D01*
X4620743Y-12165952D01*
X4611219Y-12156428D01*
X4601695Y-12137381D01*
X4592171Y-12099286D01*
X4592171Y-12051667D01*
X4601695Y-12013571D01*
X4611219Y-11994524D01*
X4620743Y-11985000D01*
X4639790Y-11975476D01*
X4877886Y-11975476D02*
X4839790Y-11975476D01*
X4820743Y-11985000D01*
X4811219Y-11994524D01*
X4792171Y-12023095D01*
X4782648Y-12061190D01*
X4782648Y-12137381D01*
X4792171Y-12156428D01*
X4801695Y-12165952D01*
X4820743Y-12175476D01*
X4858838Y-12175476D01*
X4877886Y-12165952D01*
X4887410Y-12156428D01*
X4896933Y-12137381D01*
X4896933Y-12089762D01*
X4887410Y-12070714D01*
X4877886Y-12061190D01*
X4858838Y-12051667D01*
X4820743Y-12051667D01*
X4801695Y-12061190D01*
X4792171Y-12070714D01*
X4782648Y-12089762D01*
X4963600Y-11975476D02*
X5087410Y-11975476D01*
X5020743Y-12051667D01*
X5049314Y-12051667D01*
X5068362Y-12061190D01*
X5077886Y-12070714D01*
X5087410Y-12089762D01*
X5087410Y-12137381D01*
X5077886Y-12156428D01*
X5068362Y-12165952D01*
X5049314Y-12175476D01*
X4992171Y-12175476D01*
X4973124Y-12165952D01*
X4963600Y-12156428D01*
X5211219Y-11975476D02*
X5230267Y-11975476D01*
X5249314Y-11985000D01*
X5258838Y-11994524D01*
X5268362Y-12013571D01*
X5277886Y-12051667D01*
X5277886Y-12099286D01*
X5268362Y-12137381D01*
X5258838Y-12156428D01*
X5249314Y-12165952D01*
X5230267Y-12175476D01*
X5211219Y-12175476D01*
X5192171Y-12165952D01*
X5182648Y-12156428D01*
X5173124Y-12137381D01*
X5163600Y-12099286D01*
X5163600Y-12051667D01*
X5173124Y-12013571D01*
X5182648Y-11994524D01*
X5192171Y-11985000D01*
X5211219Y-11975476D01*
X5354076Y-11975476D02*
X5354076Y-12013571D01*
X5430267Y-11975476D02*
X5430267Y-12013571D01*
X5725505Y-12251667D02*
X5715981Y-12242143D01*
X5696933Y-12213571D01*
X5687409Y-12194524D01*
X5677886Y-12165952D01*
X5668362Y-12118333D01*
X5668362Y-12080238D01*
X5677886Y-12032619D01*
X5687409Y-12004048D01*
X5696933Y-11985000D01*
X5715981Y-11956428D01*
X5725505Y-11946905D01*
X5792171Y-11994524D02*
X5801695Y-11985000D01*
X5820743Y-11975476D01*
X5868362Y-11975476D01*
X5887409Y-11985000D01*
X5896933Y-11994524D01*
X5906457Y-12013571D01*
X5906457Y-12032619D01*
X5896933Y-12061190D01*
X5782648Y-12175476D01*
X5906457Y-12175476D01*
X6144552Y-12175476D02*
X6144552Y-11975476D01*
X6230267Y-12175476D02*
X6230267Y-12070714D01*
X6220743Y-12051667D01*
X6201695Y-12042143D01*
X6173124Y-12042143D01*
X6154076Y-12051667D01*
X6144552Y-12061190D01*
X6354076Y-12175476D02*
X6335028Y-12165952D01*
X6325505Y-12156428D01*
X6315981Y-12137381D01*
X6315981Y-12080238D01*
X6325505Y-12061190D01*
X6335028Y-12051667D01*
X6354076Y-12042143D01*
X6382648Y-12042143D01*
X6401695Y-12051667D01*
X6411219Y-12061190D01*
X6420743Y-12080238D01*
X6420743Y-12137381D01*
X6411219Y-12156428D01*
X6401695Y-12165952D01*
X6382648Y-12175476D01*
X6354076Y-12175476D01*
X6535028Y-12175476D02*
X6515981Y-12165952D01*
X6506457Y-12146905D01*
X6506457Y-11975476D01*
X6687409Y-12165952D02*
X6668362Y-12175476D01*
X6630267Y-12175476D01*
X6611219Y-12165952D01*
X6601695Y-12146905D01*
X6601695Y-12070714D01*
X6611219Y-12051667D01*
X6630267Y-12042143D01*
X6668362Y-12042143D01*
X6687409Y-12051667D01*
X6696933Y-12070714D01*
X6696933Y-12089762D01*
X6601695Y-12108809D01*
X6773124Y-12165952D02*
X6792171Y-12175476D01*
X6830267Y-12175476D01*
X6849314Y-12165952D01*
X6858838Y-12146905D01*
X6858838Y-12137381D01*
X6849314Y-12118333D01*
X6830267Y-12108809D01*
X6801695Y-12108809D01*
X6782648Y-12099286D01*
X6773124Y-12080238D01*
X6773124Y-12070714D01*
X6782648Y-12051667D01*
X6801695Y-12042143D01*
X6830267Y-12042143D01*
X6849314Y-12051667D01*
X6925505Y-12251667D02*
X6935028Y-12242143D01*
X6954076Y-12213571D01*
X6963600Y-12194524D01*
X6973124Y-12165952D01*
X6982648Y-12118333D01*
X6982648Y-12080238D01*
X6973124Y-12032619D01*
X6963600Y-12004048D01*
X6954076Y-11985000D01*
X6935028Y-11956428D01*
X6925505Y-11946905D01*
X7287409Y-12251667D02*
X7277886Y-12242143D01*
X7258838Y-12213571D01*
X7249314Y-12194524D01*
X7239790Y-12165952D01*
X7230267Y-12118333D01*
X7230267Y-12080238D01*
X7239790Y-12032619D01*
X7249314Y-12004048D01*
X7258838Y-11985000D01*
X7277886Y-11956428D01*
X7287409Y-11946905D01*
X7363600Y-12042143D02*
X7363600Y-12175476D01*
X7363600Y-12061190D02*
X7373124Y-12051667D01*
X7392171Y-12042143D01*
X7420743Y-12042143D01*
X7439790Y-12051667D01*
X7449314Y-12070714D01*
X7449314Y-12175476D01*
X7573124Y-12175476D02*
X7554076Y-12165952D01*
X7544552Y-12156428D01*
X7535028Y-12137381D01*
X7535028Y-12080238D01*
X7544552Y-12061190D01*
X7554076Y-12051667D01*
X7573124Y-12042143D01*
X7601695Y-12042143D01*
X7620743Y-12051667D01*
X7630267Y-12061190D01*
X7639790Y-12080238D01*
X7639790Y-12137381D01*
X7630267Y-12156428D01*
X7620743Y-12165952D01*
X7601695Y-12175476D01*
X7573124Y-12175476D01*
X7696933Y-12042143D02*
X7773124Y-12042143D01*
X7725505Y-11975476D02*
X7725505Y-12146905D01*
X7735028Y-12165952D01*
X7754076Y-12175476D01*
X7773124Y-12175476D01*
X7992171Y-12042143D02*
X7992171Y-12242143D01*
X7992171Y-12051667D02*
X8011219Y-12042143D01*
X8049314Y-12042143D01*
X8068362Y-12051667D01*
X8077886Y-12061190D01*
X8087409Y-12080238D01*
X8087409Y-12137381D01*
X8077886Y-12156428D01*
X8068362Y-12165952D01*
X8049314Y-12175476D01*
X8011219Y-12175476D01*
X7992171Y-12165952D01*
X8201695Y-12175476D02*
X8182648Y-12165952D01*
X8173124Y-12146905D01*
X8173124Y-11975476D01*
X8363600Y-12175476D02*
X8363600Y-12070714D01*
X8354076Y-12051667D01*
X8335028Y-12042143D01*
X8296933Y-12042143D01*
X8277886Y-12051667D01*
X8363600Y-12165952D02*
X8344552Y-12175476D01*
X8296933Y-12175476D01*
X8277886Y-12165952D01*
X8268362Y-12146905D01*
X8268362Y-12127857D01*
X8277886Y-12108809D01*
X8296933Y-12099286D01*
X8344552Y-12099286D01*
X8363600Y-12089762D01*
X8430267Y-12042143D02*
X8506457Y-12042143D01*
X8458838Y-11975476D02*
X8458838Y-12146905D01*
X8468362Y-12165952D01*
X8487410Y-12175476D01*
X8506457Y-12175476D01*
X8649314Y-12165952D02*
X8630267Y-12175476D01*
X8592171Y-12175476D01*
X8573124Y-12165952D01*
X8563600Y-12146905D01*
X8563600Y-12070714D01*
X8573124Y-12051667D01*
X8592171Y-12042143D01*
X8630267Y-12042143D01*
X8649314Y-12051667D01*
X8658838Y-12070714D01*
X8658838Y-12089762D01*
X8563600Y-12108809D01*
X8830267Y-12175476D02*
X8830267Y-11975476D01*
X8830267Y-12165952D02*
X8811219Y-12175476D01*
X8773124Y-12175476D01*
X8754076Y-12165952D01*
X8744552Y-12156428D01*
X8735029Y-12137381D01*
X8735029Y-12080238D01*
X8744552Y-12061190D01*
X8754076Y-12051667D01*
X8773124Y-12042143D01*
X8811219Y-12042143D01*
X8830267Y-12051667D01*
X8906457Y-12251667D02*
X8915981Y-12242143D01*
X8935029Y-12213571D01*
X8944552Y-12194524D01*
X8954076Y-12165952D01*
X8963600Y-12118333D01*
X8963600Y-12080238D01*
X8954076Y-12032619D01*
X8944552Y-12004048D01*
X8935029Y-11985000D01*
X8915981Y-11956428D01*
X8906457Y-11946905D01*
X2053600Y-12265000D02*
X2053600Y-12465000D01*
X1953600Y-12365000D02*
X2153600Y-12365000D01*
X2392171Y-12255476D02*
X2515981Y-12255476D01*
X2449314Y-12331667D01*
X2477886Y-12331667D01*
X2496933Y-12341190D01*
X2506457Y-12350714D01*
X2515981Y-12369762D01*
X2515981Y-12417381D01*
X2506457Y-12436428D01*
X2496933Y-12445952D01*
X2477886Y-12455476D01*
X2420743Y-12455476D01*
X2401695Y-12445952D01*
X2392171Y-12436428D01*
X2601695Y-12436428D02*
X2611219Y-12445952D01*
X2601695Y-12455476D01*
X2592171Y-12445952D01*
X2601695Y-12436428D01*
X2601695Y-12455476D01*
X2687410Y-12274524D02*
X2696933Y-12265000D01*
X2715981Y-12255476D01*
X2763600Y-12255476D01*
X2782648Y-12265000D01*
X2792171Y-12274524D01*
X2801695Y-12293571D01*
X2801695Y-12312619D01*
X2792171Y-12341190D01*
X2677886Y-12455476D01*
X2801695Y-12455476D01*
X2925505Y-12255476D02*
X2944552Y-12255476D01*
X2963600Y-12265000D01*
X2973124Y-12274524D01*
X2982648Y-12293571D01*
X2992171Y-12331667D01*
X2992171Y-12379286D01*
X2982648Y-12417381D01*
X2973124Y-12436428D01*
X2963600Y-12445952D01*
X2944552Y-12455476D01*
X2925505Y-12455476D01*
X2906457Y-12445952D01*
X2896933Y-12436428D01*
X2887409Y-12417381D01*
X2877886Y-12379286D01*
X2877886Y-12331667D01*
X2887409Y-12293571D01*
X2896933Y-12274524D01*
X2906457Y-12265000D01*
X2925505Y-12255476D01*
X3115981Y-12255476D02*
X3135028Y-12255476D01*
X3154076Y-12265000D01*
X3163600Y-12274524D01*
X3173124Y-12293571D01*
X3182648Y-12331667D01*
X3182648Y-12379286D01*
X3173124Y-12417381D01*
X3163600Y-12436428D01*
X3154076Y-12445952D01*
X3135028Y-12455476D01*
X3115981Y-12455476D01*
X3096933Y-12445952D01*
X3087409Y-12436428D01*
X3077886Y-12417381D01*
X3068362Y-12379286D01*
X3068362Y-12331667D01*
X3077886Y-12293571D01*
X3087409Y-12274524D01*
X3096933Y-12265000D01*
X3115981Y-12255476D01*
X3268362Y-12455476D02*
X3268362Y-12322143D01*
X3268362Y-12341190D02*
X3277886Y-12331667D01*
X3296933Y-12322143D01*
X3325505Y-12322143D01*
X3344552Y-12331667D01*
X3354076Y-12350714D01*
X3354076Y-12455476D01*
X3354076Y-12350714D02*
X3363600Y-12331667D01*
X3382648Y-12322143D01*
X3411219Y-12322143D01*
X3430267Y-12331667D01*
X3439790Y-12350714D01*
X3439790Y-12455476D01*
X3535028Y-12455476D02*
X3535028Y-12322143D01*
X3535028Y-12341190D02*
X3544552Y-12331667D01*
X3563600Y-12322143D01*
X3592171Y-12322143D01*
X3611219Y-12331667D01*
X3620743Y-12350714D01*
X3620743Y-12455476D01*
X3620743Y-12350714D02*
X3630267Y-12331667D01*
X3649314Y-12322143D01*
X3677886Y-12322143D01*
X3696933Y-12331667D01*
X3706457Y-12350714D01*
X3706457Y-12455476D01*
X4096933Y-12245952D02*
X3925505Y-12503095D01*
X4354076Y-12255476D02*
X4373124Y-12255476D01*
X4392171Y-12265000D01*
X4401695Y-12274524D01*
X4411219Y-12293571D01*
X4420743Y-12331667D01*
X4420743Y-12379286D01*
X4411219Y-12417381D01*
X4401695Y-12436428D01*
X4392171Y-12445952D01*
X4373124Y-12455476D01*
X4354076Y-12455476D01*
X4335029Y-12445952D01*
X4325505Y-12436428D01*
X4315981Y-12417381D01*
X4306457Y-12379286D01*
X4306457Y-12331667D01*
X4315981Y-12293571D01*
X4325505Y-12274524D01*
X4335029Y-12265000D01*
X4354076Y-12255476D01*
X4506457Y-12436428D02*
X4515981Y-12445952D01*
X4506457Y-12455476D01*
X4496933Y-12445952D01*
X4506457Y-12436428D01*
X4506457Y-12455476D01*
X4706457Y-12455476D02*
X4592171Y-12455476D01*
X4649314Y-12455476D02*
X4649314Y-12255476D01*
X4630267Y-12284048D01*
X4611219Y-12303095D01*
X4592171Y-12312619D01*
X4782648Y-12274524D02*
X4792171Y-12265000D01*
X4811219Y-12255476D01*
X4858838Y-12255476D01*
X4877886Y-12265000D01*
X4887410Y-12274524D01*
X4896933Y-12293571D01*
X4896933Y-12312619D01*
X4887410Y-12341190D01*
X4773124Y-12455476D01*
X4896933Y-12455476D01*
X5068362Y-12255476D02*
X5030267Y-12255476D01*
X5011219Y-12265000D01*
X5001695Y-12274524D01*
X4982648Y-12303095D01*
X4973124Y-12341190D01*
X4973124Y-12417381D01*
X4982648Y-12436428D01*
X4992171Y-12445952D01*
X5011219Y-12455476D01*
X5049314Y-12455476D01*
X5068362Y-12445952D01*
X5077886Y-12436428D01*
X5087410Y-12417381D01*
X5087410Y-12369762D01*
X5077886Y-12350714D01*
X5068362Y-12341190D01*
X5049314Y-12331667D01*
X5011219Y-12331667D01*
X4992171Y-12341190D01*
X4982648Y-12350714D01*
X4973124Y-12369762D01*
X5211219Y-12255476D02*
X5230267Y-12255476D01*
X5249314Y-12265000D01*
X5258838Y-12274524D01*
X5268362Y-12293571D01*
X5277886Y-12331667D01*
X5277886Y-12379286D01*
X5268362Y-12417381D01*
X5258838Y-12436428D01*
X5249314Y-12445952D01*
X5230267Y-12455476D01*
X5211219Y-12455476D01*
X5192171Y-12445952D01*
X5182648Y-12436428D01*
X5173124Y-12417381D01*
X5163600Y-12379286D01*
X5163600Y-12331667D01*
X5173124Y-12293571D01*
X5182648Y-12274524D01*
X5192171Y-12265000D01*
X5211219Y-12255476D01*
X5354076Y-12255476D02*
X5354076Y-12293571D01*
X5430267Y-12255476D02*
X5430267Y-12293571D01*
X5725505Y-12531667D02*
X5715981Y-12522143D01*
X5696933Y-12493571D01*
X5687409Y-12474524D01*
X5677886Y-12445952D01*
X5668362Y-12398333D01*
X5668362Y-12360238D01*
X5677886Y-12312619D01*
X5687409Y-12284048D01*
X5696933Y-12265000D01*
X5715981Y-12236428D01*
X5725505Y-12226905D01*
X5906457Y-12455476D02*
X5792171Y-12455476D01*
X5849314Y-12455476D02*
X5849314Y-12255476D01*
X5830267Y-12284048D01*
X5811219Y-12303095D01*
X5792171Y-12312619D01*
X6144552Y-12455476D02*
X6144552Y-12255476D01*
X6230267Y-12455476D02*
X6230267Y-12350714D01*
X6220743Y-12331667D01*
X6201695Y-12322143D01*
X6173124Y-12322143D01*
X6154076Y-12331667D01*
X6144552Y-12341190D01*
X6354076Y-12455476D02*
X6335028Y-12445952D01*
X6325505Y-12436428D01*
X6315981Y-12417381D01*
X6315981Y-12360238D01*
X6325505Y-12341190D01*
X6335028Y-12331667D01*
X6354076Y-12322143D01*
X6382648Y-12322143D01*
X6401695Y-12331667D01*
X6411219Y-12341190D01*
X6420743Y-12360238D01*
X6420743Y-12417381D01*
X6411219Y-12436428D01*
X6401695Y-12445952D01*
X6382648Y-12455476D01*
X6354076Y-12455476D01*
X6535028Y-12455476D02*
X6515981Y-12445952D01*
X6506457Y-12426905D01*
X6506457Y-12255476D01*
X6687409Y-12445952D02*
X6668362Y-12455476D01*
X6630267Y-12455476D01*
X6611219Y-12445952D01*
X6601695Y-12426905D01*
X6601695Y-12350714D01*
X6611219Y-12331667D01*
X6630267Y-12322143D01*
X6668362Y-12322143D01*
X6687409Y-12331667D01*
X6696933Y-12350714D01*
X6696933Y-12369762D01*
X6601695Y-12388809D01*
X6763600Y-12531667D02*
X6773124Y-12522143D01*
X6792171Y-12493571D01*
X6801695Y-12474524D01*
X6811219Y-12445952D01*
X6820743Y-12398333D01*
X6820743Y-12360238D01*
X6811219Y-12312619D01*
X6801695Y-12284048D01*
X6792171Y-12265000D01*
X6773124Y-12236428D01*
X6763600Y-12226905D01*
X7125505Y-12531667D02*
X7115981Y-12522143D01*
X7096933Y-12493571D01*
X7087409Y-12474524D01*
X7077886Y-12445952D01*
X7068362Y-12398333D01*
X7068362Y-12360238D01*
X7077886Y-12312619D01*
X7087409Y-12284048D01*
X7096933Y-12265000D01*
X7115981Y-12236428D01*
X7125505Y-12226905D01*
X7201695Y-12322143D02*
X7201695Y-12455476D01*
X7201695Y-12341190D02*
X7211219Y-12331667D01*
X7230267Y-12322143D01*
X7258838Y-12322143D01*
X7277886Y-12331667D01*
X7287409Y-12350714D01*
X7287409Y-12455476D01*
X7411219Y-12455476D02*
X7392171Y-12445952D01*
X7382648Y-12436428D01*
X7373124Y-12417381D01*
X7373124Y-12360238D01*
X7382648Y-12341190D01*
X7392171Y-12331667D01*
X7411219Y-12322143D01*
X7439790Y-12322143D01*
X7458838Y-12331667D01*
X7468362Y-12341190D01*
X7477886Y-12360238D01*
X7477886Y-12417381D01*
X7468362Y-12436428D01*
X7458838Y-12445952D01*
X7439790Y-12455476D01*
X7411219Y-12455476D01*
X7535028Y-12322143D02*
X7611219Y-12322143D01*
X7563600Y-12255476D02*
X7563600Y-12426905D01*
X7573124Y-12445952D01*
X7592171Y-12455476D01*
X7611219Y-12455476D01*
X7830267Y-12322143D02*
X7830267Y-12522143D01*
X7830267Y-12331667D02*
X7849314Y-12322143D01*
X7887409Y-12322143D01*
X7906457Y-12331667D01*
X7915981Y-12341190D01*
X7925505Y-12360238D01*
X7925505Y-12417381D01*
X7915981Y-12436428D01*
X7906457Y-12445952D01*
X7887409Y-12455476D01*
X7849314Y-12455476D01*
X7830267Y-12445952D01*
X8039790Y-12455476D02*
X8020743Y-12445952D01*
X8011219Y-12426905D01*
X8011219Y-12255476D01*
X8201695Y-12455476D02*
X8201695Y-12350714D01*
X8192171Y-12331667D01*
X8173124Y-12322143D01*
X8135028Y-12322143D01*
X8115981Y-12331667D01*
X8201695Y-12445952D02*
X8182648Y-12455476D01*
X8135028Y-12455476D01*
X8115981Y-12445952D01*
X8106457Y-12426905D01*
X8106457Y-12407857D01*
X8115981Y-12388809D01*
X8135028Y-12379286D01*
X8182648Y-12379286D01*
X8201695Y-12369762D01*
X8268362Y-12322143D02*
X8344552Y-12322143D01*
X8296933Y-12255476D02*
X8296933Y-12426905D01*
X8306457Y-12445952D01*
X8325505Y-12455476D01*
X8344552Y-12455476D01*
X8487410Y-12445952D02*
X8468362Y-12455476D01*
X8430267Y-12455476D01*
X8411219Y-12445952D01*
X8401695Y-12426905D01*
X8401695Y-12350714D01*
X8411219Y-12331667D01*
X8430267Y-12322143D01*
X8468362Y-12322143D01*
X8487410Y-12331667D01*
X8496933Y-12350714D01*
X8496933Y-12369762D01*
X8401695Y-12388809D01*
X8668362Y-12455476D02*
X8668362Y-12255476D01*
X8668362Y-12445952D02*
X8649314Y-12455476D01*
X8611219Y-12455476D01*
X8592171Y-12445952D01*
X8582648Y-12436428D01*
X8573124Y-12417381D01*
X8573124Y-12360238D01*
X8582648Y-12341190D01*
X8592171Y-12331667D01*
X8611219Y-12322143D01*
X8649314Y-12322143D01*
X8668362Y-12331667D01*
X8744552Y-12531667D02*
X8754076Y-12522143D01*
X8773124Y-12493571D01*
X8782648Y-12474524D01*
X8792171Y-12445952D01*
X8801695Y-12398333D01*
X8801695Y-12360238D01*
X8792171Y-12312619D01*
X8782648Y-12284048D01*
X8773124Y-12265000D01*
X8754076Y-12236428D01*
X8744552Y-12226905D01*
M02*
